<?xml version="1.0" encoding="utf-8"?>
<!-- Generator: Adobe Illustrator 24.2.3, SVG Export Plug-In . SVG Version: 6.00 Build 0)  -->
<svg version="1.1" id="Layer_1" xmlns="http://www.w3.org/2000/svg" xmlns:xlink="http://www.w3.org/1999/xlink" x="0px" y="0px"
	 viewBox="0 0 368 368" style="enable-background:new 0 0 368 368;" xml:space="preserve">
<style type="text/css">
	.st0{enable-background:new    ;}
	.st1{fill:#8F48FF;}
	.st2{fill:#FFFFFF;}
	.st3{display:none;}
	.st4{display:inline;enable-background:new    ;}
	.st5{opacity:0.6;}
</style>
<g>
	<g>
		<g>
			<g class="st0">
				<g>
					<g>
						<g>
							<path class="st1" d="M38.6,178.2l40.1-38.9c0,2.7,2.1,4.9,4.8,4.9l-40.1,38.9C40.7,183,38.6,180.8,38.6,178.2z"/>
						</g>
					</g>
				</g>
				<g>
					<g>
						<g>
							<path class="st1" d="M91.9,218.2l40.1-38.9c0,2.7,2.1,4.9,4.8,4.9l-40.1,38.9C94,223.1,91.9,220.9,91.9,218.2z"/>
						</g>
					</g>
				</g>
				<g>
					<g>
						<g>
							<polygon class="st1" points="43.4,183.1 83.6,144.2 117.8,144.8 77.7,183.7 							"/>
						</g>
					</g>
				</g>
				<g>
					<g>
						<g>
							<polygon class="st1" points="92.1,198.5 132.2,159.6 132,179.3 91.9,218.2 							"/>
						</g>
					</g>
				</g>
				<g>
					<g>
						<g>
							<polygon class="st1" points="96.7,223.1 136.8,184.2 158.5,184.6 118.4,223.5 							"/>
						</g>
					</g>
				</g>
				<g>
					<g>
						<g>
							<path class="st1" d="M160.4,184l-40.1,38.9c-0.6,0.5-1.1,0.6-1.9,0.6l40.1-38.9C159.3,184.6,159.9,184.6,160.4,184z"/>
						</g>
					</g>
				</g>
				<g>
					<g>
						<g>
							<path class="st2" d="M161.5,182.5c-0.4,0.7-0.7,1.2-1.1,1.5l-40.1,38.9c0.3-0.3,0.7-0.8,1.1-1.5
								C134.8,208.4,148.1,195.4,161.5,182.5z"/>
						</g>
					</g>
				</g>
				<g>
					<g>
						<g>
							<path class="st1" d="M77.7,183.7l40.1-38.9c8.2,0.1,14.5,6.6,14.4,14.8l-40.1,38.9C92.2,190.3,85.8,183.8,77.7,183.7z"/>
						</g>
					</g>
				</g>
				<g>
					<g>
						<g>
							<path class="st2" d="M161.5,182.5c-0.1,0.1-0.2,0.2-0.3,0.3s-0.2,0.2-0.3,0.3c-0.2,0.2-0.4,0.4-0.5,0.5c-0.3,0.3-0.7,0.6-1,1
								c-12.7,12.3-25.4,24.6-38.1,36.9c0.4-0.7,0.8-1.6,1.4-2.8c0.2-0.4,0.4-0.9,0.6-1.3c13.4-13,26.8-25.9,40.1-38.9
								c-0.2,0.4-0.4,0.9-0.6,1.3C162.3,180.8,161.9,181.8,161.5,182.5z"/>
						</g>
					</g>
				</g>
				<g>
					<g>
						<g>
							<path class="st2" d="M163.5,178.3c-0.2,0.3-0.7,0.7-1,1c-2.6,2.5-5.2,5-7.8,7.5c-2.9,2.8-5.9,5.7-8.8,8.5
								c-7.5,7.3-15,14.6-22.5,21.9c0.1-0.3,0.3-0.6,0.4-0.9c1.2-2.6,2.9-5.8,4.3-8.6c1.2-1.2,2.9-2.8,4.1-3.9
								c1.3-1.3,3-2.9,4.3-4.2s3.1-3,4.5-4.3s3.2-3.1,4.6-4.4c1.4-1.3,3.2-3.1,4.6-4.4c1.3-1.3,3.1-3,4.5-4.3c1.3-1.3,3-2.9,4.3-4.2
								c1.2-1.2,2.9-2.8,4.1-3.9c0.2-0.2,0.4-0.4,0.6-0.6c0.2-0.2,0.5-0.4,0.7-0.6c0.2-0.2,0.5-0.5,0.7-0.7s0.5-0.5,0.7-0.7
								s0.5-0.5,0.7-0.7s0.5-0.5,0.7-0.7s0.5-0.4,0.7-0.6c0.2-0.2,0.4-0.4,0.6-0.6c-1.4,2.8-3.1,6.1-4.3,8.6
								C163.7,177.8,163.6,178.1,163.5,178.3z"/>
						</g>
					</g>
				</g>
				<g>
					<g>
						<g>
							<path class="st2" d="M168.2,168.8c-0.1,0.1-0.2,0.2-0.3,0.3c-0.8,0.8-1.6,1.5-2.3,2.3c-0.9,0.9-1.8,1.7-2.6,2.6
								c-11.6,11.3-23.2,22.5-34.8,33.8c0.1-0.3,0.3-0.5,0.4-0.8c13.4-13,26.8-25.9,40.1-38.9C168.5,168.3,168.3,168.6,168.2,168.8z
								"/>
						</g>
					</g>
				</g>
				<g>
					<g>
						<g>
							<path class="st2" d="M168.6,168c-0.1,0.1-0.2,0.2-0.3,0.3c-0.3,0.3-0.6,0.6-0.9,0.9c-0.4,0.4-0.8,0.8-1.2,1.1
								c-12.6,12.2-25.1,24.4-37.7,36.6c1.4-2.8,2.5-4.9,2.6-5.1l40.1-38.9C171.1,163.1,170,165.3,168.6,168z"/>
						</g>
					</g>
				</g>
				<g>
					<g>
						<g>
							<path class="st1" d="M163.8,187.5l-40.1,38.9c2-1.9,3-4.9,4.4-7.9c2.6-5.5,7-14,7.3-14.4l40.1-38.9c-0.2,0.4-4.6,9-7.3,14.4
								C166.8,182.6,165.8,185.6,163.8,187.5z"/>
						</g>
					</g>
				</g>
				<g>
					<g>
						<g>
							<path class="st1" d="M139.8,202.1l40.1-38.9c0.2,0.4,4.2,9.3,6.4,14.9c0.8,2.1,1.8,4.4,2.8,5.8c0.8,1.1,1.4,1.3,2.3,1.3
								l-40.1,38.9c-0.9,0-1.5-0.2-2.3-1.3c-1.1-1.4-2-3.7-2.8-5.8C144,211.4,139.9,202.5,139.8,202.1z"/>
						</g>
					</g>
				</g>
				<g>
					<g>
						<g>
							<polygon class="st2" points="135.6,192.9 175.8,154 171.2,162.9 131,201.9 							"/>
						</g>
					</g>
				</g>
				<g>
					<g>
						<g>
							<polygon class="st1" points="135.6,192.9 175.8,154 179.9,163.2 139.8,202.1 							"/>
						</g>
					</g>
				</g>
				<g>
					<g>
						<g>
							<polygon class="st1" points="151.3,224.1 191.5,185.2 213.1,185.6 173,224.5 							"/>
						</g>
					</g>
				</g>
				<g>
					<g>
						<g>
							<path class="st1" d="M215.3,184.8l-40.1,38.9c-0.6,0.6-1.3,0.8-2.2,0.8l40.1-38.9C214,185.6,214.7,185.4,215.3,184.8z"/>
						</g>
					</g>
				</g>
				<g>
					<g>
						<g>
							<polygon class="st1" points="39.9,51.7 80,12.8 78.8,139.2 38.6,178.2 							"/>
						</g>
					</g>
				</g>
				<g>
					<g>
						<g>
							<path class="st2" d="M131.7,127.8c7.8,0.1,15.3-3,21.5-9.1l-40.1,38.9c-6.3,6-13.7,9.2-21.5,9.1c-10.3-0.2-19.8-6-26.7-16.5
								c-2.5-3.8-4.6-8-6.2-12.6c12.7-12.3,25.4-24.6,38.1-36.9c0.1-0.1,0.2-0.2,0.3-0.3c0.1-0.1,0.2-0.2,0.3-0.3
								c0.1-0.1,0.2-0.2,0.3-0.3c0.1-0.1,0.2-0.2,0.3-0.3c0.1-0.1,0.2-0.2,0.3-0.3l0.1-0.1l0.1-0.1c0.1-0.1,0.2-0.2,0.3-0.3l0.1-0.1
								c1.6,4.6,3.7,8.8,6.2,12.6C112,121.8,121.4,127.6,131.7,127.8z"/>
						</g>
					</g>
				</g>
				<g>
					<g>
						<g>
							<path class="st1" d="M150,115.1L109.9,154c-5.2,5.1-11.5,8-18.2,7.8l40.1-38.9C138.5,123.1,144.8,120.2,150,115.1z"/>
						</g>
					</g>
				</g>
				<g>
					<g>
						<g>
							<path class="st2" d="M218,180.1c-1.2,2.6-1.9,4-2.7,4.7l-40.1,38.9c0.8-0.7,1.5-2.1,2.7-4.7c0.2-0.4,0.4-0.8,0.5-1.1
								c13.4-13,26.8-25.9,40.1-38.9C218.4,179.3,218.2,179.7,218,180.1z"/>
						</g>
					</g>
				</g>
				<g>
					<g>
						<g>
							<path class="st2" d="M218.6,179c-0.3,0.4-0.8,0.8-1.2,1.2c-0.2,0.2-0.4,0.4-0.6,0.6c-1.1,1.1-2.2,2.1-3.3,3.2
								c-1.7,1.7-3.4,3.3-5.1,5c-10,9.7-19.9,19.3-29.9,29c0.1-0.2,0.2-0.4,0.3-0.5c0.9-1.8,1.9-4,2.9-6.1
								c13.4-13,26.8-25.9,40.1-38.9c-1,2.1-2,4.3-2.9,6.1C218.7,178.6,218.7,178.8,218.6,179z"/>
						</g>
					</g>
				</g>
				<g>
					<g>
						<g>
							<path class="st2" d="M98.8,98.7c-13.4,13-26.8,25.9-40.1,38.9c-2.5-7.3-3.9-15.5-3.8-23.9c0.1-11.3,2.7-22,7.5-30.9
								C75.8,69.9,89.1,57,102.5,44c-4.7,8.8-7.3,19.6-7.5,30.9C95,83.3,96.3,91.4,98.8,98.7z"/>
						</g>
					</g>
				</g>
				<g>
					<g>
						<g>
							<path class="st2" d="M221.7,172.3c-0.4,0.6-1.2,1.1-1.7,1.6c-0.3,0.3-0.6,0.6-0.9,0.8c-1.5,1.5-3,2.9-4.5,4.4
								c-2.3,2.3-4.6,4.5-7,6.8c-8.7,8.4-17.4,16.9-26.1,25.3c1.9-4.2,3.6-8.1,3.7-8.1l40.1-38.9
								C225.3,164.2,223.6,168.1,221.7,172.3z"/>
						</g>
					</g>
				</g>
				<g>
					<g>
						<g>
							<path class="st1" d="M218.7,188.3l-40.1,38.9c2-1.9,3.1-4.8,4.5-7.8c2.6-5.5,6.4-14,6.6-14.4l40.1-38.9
								c-0.2,0.4-4,9-6.6,14.4C221.8,183.5,220.7,186.4,218.7,188.3z"/>
						</g>
					</g>
				</g>
				<g>
					<g>
						<g>
							<path class="st2" d="M183.1,126c-13.4,13-26.8,25.9-40.1,38.9c-0.3-2.8,0.3-6,1.9-9.5c7.5-7.3,15-14.6,22.5-21.9
								c0.6-0.6,1.4-1.4,2.1-2c0.7-0.6,1.5-1.5,2.2-2.1c0.7-0.7,1.6-1.5,2.3-2.2s1.6-1.6,2.3-2.2s1.6-1.6,2.3-2.2
								c0.7-0.7,1.6-1.5,2.3-2.2c0.7-0.6,1.5-1.5,2.2-2.1c0.6-0.6,1.4-1.4,2.1-2C183.4,120,182.8,123.3,183.1,126z"/>
						</g>
					</g>
				</g>
				<g>
					<g>
						<g>
							<path class="st1" d="M41.3,48.3L81.5,9.4c-0.9,0.9-1.4,2.1-1.5,3.4L39.9,51.7C39.9,50.4,40.4,49.2,41.3,48.3z"/>
						</g>
					</g>
				</g>
				<g>
					<g>
						<g>
							<path class="st1" d="M194,203l40.1-38.9c0.2,0.4,4.5,9.2,7,14.8c1.2,2.7,2.2,4.8,3.3,6.1c0.9,1.2,1.5,1.2,1.9,1.2l-40.1,38.9
								c-0.4,0-1,0-1.9-1.2c-1.1-1.4-2.1-3.5-3.3-6.1C198.5,212.2,194.2,203.3,194,203z"/>
						</g>
					</g>
				</g>
				<g>
					<g>
						<g>
							<path class="st2" d="M200.4,128.4c-13.4,13-26.8,25.9-40.1,38.9c-1.1,0.6-2.2,1.3-3.1,1.9c-2.4,1.6-4.7,3-7.3,3
								c-2,0-3.9-1-5.1-2.6c-1-1.3-1.5-2.8-1.8-4.5c13.4-13,14.2-38.9,40.1-38.9c0.2,1.7,0.8,3.2,1.8,4.5c1.2,1.6,3,2.6,5.1,2.6
								c2.6,0,4.9-1.4,7.3-3C198.2,129.6,199.3,128.9,200.4,128.4z"/>
						</g>
					</g>
				</g>
				<g>
					<g>
						<g>
							<path class="st2" d="M81.5,9.4C82.4,8.5,83.6,8,84.9,8L44.8,47c-1.3,0-2.5,0.5-3.4,1.4C53.4,36.7,69.4,21.1,81.5,9.4z"/>
						</g>
					</g>
				</g>
				<g>
					<g>
						<g>
							<path class="st1" d="M74.4,74.8l40.1-38.9c-8.6,8.4-14.4,22.7-14.6,39c-0.3,26.2,14,47.7,31.9,48l-40.1,38.9
								c-17.9-0.3-32.1-21.8-31.9-48C59.9,97.5,65.7,83.2,74.4,74.8z"/>
						</g>
					</g>
				</g>
				<g>
					<g>
						<g>
							<polygon class="st2" points="189.4,193.5 229.6,154.6 225.4,164.1 185.2,203.1 							"/>
						</g>
					</g>
				</g>
				<g>
					<g>
						<g>
							<polygon class="st1" points="189.4,193.5 229.6,154.6 234.2,164 194,203 							"/>
						</g>
					</g>
				</g>
				<g>
					<g>
						<g>
							<path class="st2" d="M102.5,44L62.4,82.9c1-1.8,2.1-3.6,3.2-5.2c1.7-2.4,3.5-4.6,5.5-6.5l40.1-38.9c-2,1.9-3.8,4-5.5,6.5
								C104.6,40.4,103.5,42.2,102.5,44z"/>
						</g>
					</g>
				</g>
				<g>
					<g>
						<g>
							<path class="st1" d="M37.9,44.8L78.1,5.9c1.8-1.7,4.2-2.8,6.9-2.7L44.8,42.1C42.1,42.1,39.7,43.1,37.9,44.8z"/>
						</g>
					</g>
				</g>
				<g>
					<g>
						<g>
							<path class="st2" d="M207.1,129.1c-13.4,13-26.8,25.9-40.1,38.9c-1.4-0.9-2.8-1.6-3.9-1.7c-0.8,0-1.8,0.4-2.8,0.9
								c12.3-12,24.7-23.9,37-35.9c0.1-0.1,0.2-0.2,0.4-0.3c0.1-0.1,0.3-0.3,0.4-0.4c0.1-0.1,0.3-0.3,0.4-0.4
								c0.1-0.1,0.3-0.3,0.4-0.4c0.1-0.1,0.3-0.3,0.4-0.4c0.1-0.1,0.3-0.3,0.4-0.4c0.1-0.1,0.3-0.3,0.4-0.4c0.1-0.1,0.3-0.3,0.4-0.4
								c1-0.5,2-0.9,2.8-0.9C204.2,127.5,205.7,128.3,207.1,129.1z"/>
						</g>
					</g>
				</g>
				<g>
					<g>
						<g>
							<path class="st2" d="M211.5,132c-13.4,13-26.8,25.9-40.1,38.9c-0.8-0.5-1.6-1-2.4-1.6c-0.6-0.4-1.3-0.9-2-1.3
								c4.3-4.2,8.6-8.4,13-12.6c4.3-4.2,8.7-8.4,13-12.6c0.5-0.5,1.2-1.1,1.7-1.6s1.2-1.2,1.8-1.7c0.5-0.5,1.3-1.2,1.8-1.8
								c0.6-0.5,1.3-1.3,1.8-1.8c0.6-0.5,1.3-1.3,1.8-1.8s1.3-1.2,1.8-1.8c0.5-0.5,1.2-1.2,1.8-1.7c0.5-0.5,1.2-1.1,1.7-1.6
								c0.7,0.4,1.4,0.9,2,1.3C209.9,131,210.7,131.6,211.5,132z"/>
						</g>
					</g>
				</g>
				<g>
					<g>
						<g>
							<path class="st2" d="M185,116.6c-0.2,0.3-0.7,0.7-1,1c-2.6,2.5-5.2,5-7.8,7.5c-2.9,2.8-5.9,5.7-8.8,8.5
								c-7.5,7.3-15,14.6-22.5,21.9c0.2-0.4,0.4-0.8,0.6-1.3c1-2,2.6-4.4,4.4-6.6c13.4-13,26.8-25.9,40.1-38.9
								c-1.9,2.2-3.4,4.6-4.4,6.6C185.4,115.7,185.2,116.1,185,116.6z"/>
						</g>
					</g>
				</g>
				<g>
					<g>
						<g>
							<path class="st2" d="M211.5,132c1,0.6,1.9,1.1,2.9,1.3c-13.4,13-26.8,25.9-40.1,38.9c-1-0.3-2-0.8-2.9-1.3
								C184.7,158,198.1,145,211.5,132z"/>
						</g>
					</g>
				</g>
				<g>
					<g>
						<g>
							<polygon class="st1" points="206.3,225.1 246.4,186.2 267.8,186.5 227.6,225.4 							"/>
						</g>
					</g>
				</g>
				<g>
					<g>
						<g>
							<path class="st2" d="M190,108.7c-0.2,0.2-0.5,0.5-0.7,0.7c-0.4,0.4-1,1-1.4,1.4c-1.3,1.2-2.5,2.5-3.8,3.7
								c-2,1.9-3.9,3.8-5.9,5.7c-9.4,9.1-18.9,18.3-28.3,27.4c0.8-0.9,1.6-1.8,2.4-2.6l40.1-38.9C191.6,106.9,190.8,107.8,190,108.7
								z"/>
						</g>
					</g>
				</g>
				<g>
					<g>
						<g>
							<path class="st1" d="M271.2,185.2l-40.1,38.9c-0.9,0.9-2.1,1.4-3.4,1.4l40.1-38.9C269.1,186.5,270.3,186,271.2,185.2z"/>
						</g>
					</g>
				</g>
				<g>
					<g>
						<g>
							<path class="st1" d="M155.6,148.5l40.1-38.9c-5.4,5.3-9.9,14.1-7,18.1c0.3,0.4,0.7,0.6,1.2,0.6c2.8,0,8-5.8,13.3-5.7
								c5.2,0.1,10.4,6.2,13.1,6.2c0.4,0,0.8-0.1,1.1-0.4l-40.1,38.9c-0.3,0.3-0.7,0.4-1.1,0.4c-2.8,0-7.9-6.1-13.1-6.2
								c-5.2-0.1-10.5,5.8-13.3,5.7c-0.5,0-0.9-0.2-1.2-0.6C145.7,162.7,150.2,153.8,155.6,148.5z"/>
						</g>
					</g>
				</g>
				<g>
					<g>
						<g>
							<path class="st2" d="M216.3,133.7c1.7,0,3.3-0.6,4.5-1.8l-40.1,38.9c-1.2,1.2-2.8,1.8-4.5,1.8c-0.7,0-1.3-0.1-1.9-0.3
								c6.7-6.5,13.4-12.9,20-19.4c6.7-6.5,13.4-13,20.1-19.5C215,133.6,215.7,133.7,216.3,133.7z"/>
						</g>
					</g>
				</g>
				<g>
					<g>
						<g>
							<path class="st2" d="M271.2,185.2l-40.1,38.9c0.9-0.9,1.4-2.1,1.5-3.4l40.1-38.9C272.6,183.1,272.1,184.3,271.2,185.2z"/>
						</g>
					</g>
				</g>
				<g>
					<g>
						<g>
							<path class="st1" d="M152.3,145l40.1-38.9c3.2-3.1,7.1-5.5,11-5.4l-40.1,38.9C159.4,139.5,155.5,141.9,152.3,145z"/>
						</g>
					</g>
				</g>
				<g>
					<g>
						<g>
							<path class="st1" d="M71,71.3l40.1-38.9c6.3-6.1,13.7-9.3,21.6-9.1L92.6,62.1C84.8,62,77.3,65.2,71,71.3z"/>
						</g>
					</g>
				</g>
				<g>
					<g>
						<g>
							<path class="st1" d="M220.8,131.9l-40.1,38.9c0.2-0.2,0.4-0.4,0.6-0.7c2.8-3.6,2.6-9-0.4-15.3c-2.9-6.1-10-15.1-17.6-15.2
								l40.1-38.9c7.5,0.1,14.6,9.2,17.6,15.2c3,6.3,3.2,11.7,0.4,15.3C221.3,131.5,221,131.7,220.8,131.9z"/>
						</g>
					</g>
				</g>
				<g>
					<g>
						<g>
							<polygon class="st2" points="232.7,200.9 272.9,162 272.7,181.8 232.5,220.7 							"/>
						</g>
					</g>
				</g>
				<g>
					<g>
						<g>
							<path class="st1" d="M274.6,188.7l-40.1,38.9c1.8-1.7,2.9-4.1,2.9-6.8c0-0.7,0.1-14.8,0.2-19.7l40.1-38.9
								c0,4.9-0.2,19-0.2,19.7C277.5,184.5,276.4,186.9,274.6,188.7z"/>
						</g>
					</g>
				</g>
				<g>
					<g>
						<g>
							<path class="st1" d="M153.3,118.7l-40.1,38.9c1.9-1.9,3.7-4,5.4-6.4c6.7-9.6,10.5-22.5,10.7-36.1c0.1-13.6-3.4-26.6-10-36.5
								c-6.9-10.5-16.4-16.3-26.7-16.5l40.1-38.9c10.3,0.2,19.8,6,26.7,16.5c6.6,9.9,10.1,22.8,10,36.5
								c-0.1,13.6-3.9,26.5-10.7,36.1C157.1,114.7,155.3,116.8,153.3,118.7z"/>
						</g>
					</g>
				</g>
				<g>
					<g>
						<g>
							<path class="st2" d="M236.8,190.3l40.1-38.9c-2.6,2.5-4,6.1-4.1,10.6l-40.1,38.9C232.8,196.5,234.2,192.8,236.8,190.3z"/>
						</g>
					</g>
				</g>
				<g>
					<g>
						<g>
							<path class="st1" d="M240.2,193.8l40.1-38.9c-1.8,1.7-2.6,4.3-2.7,7.2l-40,38.9C237.6,198.1,238.4,195.5,240.2,193.8z"/>
						</g>
					</g>
				</g>
				<g>
					<g>
						<g>
							<path class="st1" d="M236.8,190.3l40.1-38.9c2.5-2.4,6-3.7,10.3-3.7l-40.1,38.9C242.8,186.6,239.3,187.9,236.8,190.3z"/>
						</g>
					</g>
				</g>
				<g>
					<g>
						<g>
							<path class="st2" d="M274.3,130.3c7.8,0.1,15.3-3,21.5-9.1l-40.1,38.9c-6.3,6-13.7,9.2-21.5,9.1c-10.3-0.2-19.8-6-26.7-16.5
								c-2.9-4.4-5.2-9.4-6.9-14.8c13.4-13,26.8-25.9,40.1-38.9c1.7,5.4,4,10.4,6.9,14.8C254.5,124.3,264,130.1,274.3,130.3z"/>
						</g>
					</g>
				</g>
				<g>
					<g>
						<g>
							<path class="st1" d="M292.6,117.6l-40.1,38.9c-5.2,5.1-11.5,8-18.2,7.8l40.1-38.9C281.1,125.6,287.3,122.7,292.6,117.6z"/>
						</g>
					</g>
				</g>
				<g>
					<g>
						<g>
							<polygon class="st1" points="247.1,186.6 287.2,147.7 322.8,148.4 282.6,187.3 							"/>
						</g>
					</g>
				</g>
				<g>
					<g>
						<g>
							<path class="st1" d="M326.2,147l-40.1,38.9c-0.9,0.9-2.1,1.4-3.4,1.4l40.1-38.9C324.1,148.4,325.3,147.9,326.2,147z"/>
						</g>
					</g>
				</g>
				<g>
					<g>
						<g>
							<path class="st2" d="M240.7,99c-13.4,13-26.8,25.9-40.1,38.9c-2.1-6.7-3.1-14.1-3.1-21.7c0.1-10,2.1-19.5,5.9-27.7
								c13.4-13,26.8-25.9,40.1-38.9c-3.7,8.2-5.8,17.7-5.9,27.7C237.6,84.9,238.6,92.3,240.7,99z"/>
						</g>
					</g>
				</g>
				<g>
					<g>
						<g>
							<path class="st1" d="M216.9,77.3L257,38.4c-8.6,8.4-14.4,22.7-14.6,39c-0.3,26.2,14,47.7,31.9,48l-40.1,38.9
								c-17.9-0.3-32.1-21.8-31.9-48C202.5,100,208.3,85.7,216.9,77.3z"/>
						</g>
					</g>
				</g>
				<g>
					<g>
						<g>
							<path class="st2" d="M243.5,49.7c-0.2,0.3-0.6,0.5-0.8,0.8c-0.3,0.2-0.6,0.6-0.8,0.8c-0.6,0.6-1.2,1.1-1.7,1.7
								c-1.1,1.1-2.2,2.1-3.3,3.2c-11.2,10.8-22.3,21.6-33.5,32.4c1.4-3,3-5.8,4.8-8.4c1.7-2.4,3.5-4.6,5.5-6.5l40.1-38.9
								c-2,1.9-3.8,4-5.5,6.5C246.5,43.8,244.9,46.7,243.5,49.7z"/>
						</g>
					</g>
				</g>
				<g>
					<g>
						<g>
							<path class="st1" d="M213.6,73.7l40.1-38.9c6.3-6.1,13.7-9.3,21.6-9.1l-40.1,38.9C227.3,64.5,219.9,67.7,213.6,73.7z"/>
						</g>
					</g>
				</g>
				<g>
					<g>
						<g>
							<path class="st1" d="M295.9,121.2l-40.1,38.9c1.9-1.9,3.7-4,5.4-6.4c6.7-9.6,10.5-22.5,10.7-36.1c0.1-13.6-3.4-26.6-10-36.5
								c-6.9-10.5-16.4-16.3-26.7-16.5l40.1-38.9c10.3,0.2,19.8,6,26.7,16.5c6.6,9.9,10.1,22.8,10,36.5
								c-0.1,13.6-3.9,26.5-10.7,36.1C299.6,117.1,297.8,119.3,295.9,121.2z"/>
						</g>
					</g>
				</g>
				<g>
					<g>
						<g>
							<path class="st2" d="M284,51.1c2.7,0,4.8,2.3,4.8,4.9l-1.2,126.4c0,2.7-2.2,4.8-4.9,4.8l-35.6-0.6
								c-8.6-0.2-14.3,5.5-14.4,14.3l-0.2,19.7c0,2.7-2.2,4.8-4.9,4.8l-21.3-0.4c-0.4,0-1,0-1.9-1.2c-1.1-1.4-2.1-3.5-3.3-6.1
								c-2.5-5.5-6.8-14.4-7-14.8l-4.6-9.4l-4.2,9.5c0,0.1-4,9-6.5,14.3c-0.3,0.6-0.5,1.1-0.8,1.7c-2.2,4.7-2.9,5.5-4.9,5.5
								l-21.7-0.4c-0.9,0-1.5-0.2-2.3-1.3c-1.1-1.4-2-3.7-2.8-5.8c-2.2-5.6-6.2-14.5-6.4-14.9l-4.1-9.2l-4.6,8.9
								c-0.2,0.4-4.7,9.1-7.3,14.5c-0.4,0.7-0.7,1.5-1,2.2c-2.1,4.6-2.6,5-4.4,5l-21.7-0.4c-2.7,0-4.8-2.3-4.8-4.9l0.2-19.7
								c0.1-8.2-6.2-14.7-14.4-14.8l-34.3-0.6c-2.7,0-4.8-2.3-4.8-4.9l1.2-126.5c0-2.7,2.2-4.8,4.9-4.8L284,51.1z M261.2,153.6
								c6.7-9.6,10.5-22.5,10.7-36.1c0.1-13.6-3.4-26.6-10-36.5c-6.9-10.5-16.4-16.3-26.7-16.5c-10.3-0.2-19.9,5.3-27,15.5
								c-6.7,9.6-10.5,22.5-10.7,36.1c-0.1,13.6,3.4,26.6,10,36.5c6.9,10.5,16.4,16.3,26.7,16.5C244.4,169.4,254,163.9,261.2,153.6
								 M118.6,151.2c6.7-9.6,10.5-22.5,10.7-36.1c0.1-13.6-3.4-26.6-10-36.5c-6.9-10.5-16.4-16.3-26.7-16.5s-19.9,5.3-27,15.5
								c-6.7,9.6-10.5,22.5-10.7,36.1c-0.1,13.6,3.4,26.6,10,36.5c6.9,10.5,16.4,16.3,26.7,16.5
								C101.9,166.9,111.5,161.4,118.6,151.2 M181.3,170.1c2.8-3.6,2.6-9-0.4-15.3c-2.9-6.1-10-15.1-17.6-15.2
								c-7.5-0.1-14.8,8.7-17.9,14.6c-3.2,6.2-3.4,11.6-0.7,15.3c1.2,1.6,3,2.6,5.1,2.6c2.6,0,4.9-1.4,7.3-3
								c1.8-1.2,4.4-2.8,5.9-2.8c1.6,0,4,1.7,5.9,3c2.4,1.6,4.6,3.2,7.3,3.2C178.2,172.6,180.1,171.7,181.3,170.1"/>
						</g>
					</g>
				</g>
				<g>
					<g>
						<g>
							<path class="st2" d="M326.2,147l-40.1,38.9c0.9-0.9,1.4-2.1,1.5-3.4l40.1-38.9C327.7,144.9,327.1,146.1,326.2,147z"/>
						</g>
					</g>
				</g>
				<g>
					<g>
						<g>
							<polygon class="st2" points="44.8,47 84.9,8.1 324.1,12.2 284,51.1 							"/>
						</g>
					</g>
				</g>
				<g>
					<g>
						<g>
							<polygon class="st2" points="288.8,56.1 328.9,17.2 327.7,143.6 287.5,182.5 							"/>
						</g>
					</g>
				</g>
				<g>
					<g>
						<g>
							<path class="st2" d="M326.6,13c-13.4,13-26.8,25.9-40.1,38.9c-0.7-0.5-1.6-0.7-2.5-0.8l40.1-38.9
								C325,12.3,325.9,12.5,326.6,13z"/>
						</g>
					</g>
				</g>
				<g>
					<g>
						<g>
							<path class="st2" d="M326.6,13c1.4,0.9,2.3,2.4,2.3,4.2l-40.1,38.9c0-1.7-0.9-3.3-2.3-4.2C299.9,38.9,313.3,26,326.6,13z"/>
						</g>
					</g>
				</g>
				<g>
					<g>
						<g>
							<path class="st1" d="M284,46.3c5.3,0.1,9.7,4.5,9.6,9.9l-1.2,126.4c-0.1,5.3-4.5,9.6-9.8,9.5c-1.3,0-26.7-0.5-35.6-0.6
								c-6.5-0.1-9.4,4-9.5,9.5c0,4.9-0.2,19-0.2,19.7c-0.1,5.3-4.5,9.6-9.8,9.5c-0.8,0-16-0.3-21.3-0.4c-4.9-0.1-7-4.6-9.6-10.2
								c-2.5-5.5-6.7-14.2-7-14.7c-0.2,0.4-4,9-6.6,14.4c-2.4,4.9-4,10-10.1,9.8c-4.7-0.1-16.2-0.3-21.7-0.4
								c-5.5-0.1-7.6-5.1-9.6-10.2c-2.2-5.5-6.1-14.2-6.3-14.7c-0.2,0.4-4.6,9-7.3,14.4c-2.4,4.9-3.7,10-9.8,9.9
								c-4.8-0.1-20.8-0.4-21.7-0.4c-5.3-0.1-9.7-4.5-9.6-9.9c0-0.7,0.1-14.8,0.2-19.7c0.1-5.2-3.8-9.8-9.6-9.9
								c-8.6-0.1-33-0.6-34.3-0.6c-5.3-0.1-9.7-4.5-9.6-9.9l1.4-126c0.1-5.3,4.5-9.6,9.8-9.5L284,46.3z M287.5,182.5l1.2-126.4
								c0-2.7-2.1-4.9-4.8-4.9L44.8,47c-2.7,0-4.9,2.1-4.9,4.8l-1.3,126.4c0,2.7,2.1,4.9,4.8,4.9l34.3,0.6
								c8.2,0.1,14.5,6.6,14.4,14.8l-0.2,19.7c0,2.7,2.1,4.9,4.8,4.9l21.7,0.4c1.8,0,2.3-0.4,4.4-5c0.3-0.7,0.6-1.4,1-2.2
								c2.6-5.4,7.1-14.2,7.3-14.5l4.6-8.9l4.1,9.2c0.2,0.4,4.2,9.3,6.4,14.9c0.8,2.1,1.8,4.4,2.8,5.8c0.8,1.1,1.4,1.3,2.3,1.3
								l21.7,0.4c2,0,2.7-0.7,4.9-5.5c0.3-0.5,0.5-1.1,0.8-1.7c2.6-5.3,6.5-14.2,6.5-14.3l4.2-9.5l4.6,9.4c0.2,0.4,4.5,9.2,7,14.8
								c1.2,2.7,2.2,4.8,3.3,6.1c0.9,1.2,1.5,1.2,1.9,1.2l21.3,0.4c2.7,0,4.9-2.1,4.9-4.8l0.2-19.7c0.1-8.8,5.7-14.5,14.4-14.3
								l35.6,0.6C285.3,187.3,287.5,185.2,287.5,182.5"/>
						</g>
					</g>
				</g>
				<g>
					<g>
						<g>
							<path class="st1" d="M163.3,139.6c7.5,0.1,14.6,9.2,17.6,15.2c3,6.3,3.2,11.7,0.4,15.3c-1.2,1.6-3.1,2.5-5.1,2.5
								c-2.6,0-4.9-1.6-7.3-3.2c-1.8-1.2-4.3-2.9-5.9-3c-1.6,0-4.1,1.6-5.9,2.8c-2.4,1.5-4.7,3-7.3,3c-2,0-3.9-1-5.1-2.6
								c-2.7-3.7-2.4-9.1,0.7-15.3C148.5,148.2,155.8,139.4,163.3,139.6z M177.5,167.1c4.4-5.7-7-22.6-14.2-22.7
								c-7.2-0.1-18.9,16.4-14.6,22.2c0.3,0.4,0.7,0.6,1.2,0.6c2.8,0,8-5.8,13.3-5.7c5.2,0.1,10.4,6.2,13.1,6.2
								C176.7,167.7,177.1,167.6,177.5,167.1"/>
						</g>
					</g>
				</g>
				<g>
					<g>
						<g>
							<path class="st1" d="M92.6,62.1c10.3,0.2,19.8,6,26.7,16.5c6.6,9.9,10.1,22.8,10,36.5c-0.1,13.6-3.9,26.5-10.7,36.1
								c-7.1,10.2-16.7,15.7-27,15.5s-19.8-6-26.7-16.5c-6.6-9.9-10.1-22.8-10-36.5c0.1-13.6,3.9-26.5,10.7-36.1
								C72.7,67.5,82.3,61.9,92.6,62.1z M91.6,161.9c17.9,0.3,32.5-20.7,32.8-46.9c0.3-26.2-14-47.7-31.9-48
								C74.7,66.7,60,87.6,59.8,113.8C59.5,140.1,73.8,161.5,91.6,161.9"/>
						</g>
					</g>
				</g>
				<g>
					<g>
						<g>
							<path class="st1" d="M329.6,150.5l-40.1,38.9c1.8-1.7,2.9-4.1,2.9-6.8l40.1-38.9C332.5,146.4,331.4,148.8,329.6,150.5z"/>
						</g>
					</g>
				</g>
				<g>
					<g>
						<g>
							<path class="st1" d="M235.2,64.6c10.3,0.2,19.8,6,26.7,16.5c6.6,9.9,10.1,22.8,10,36.5c-0.1,13.6-3.9,26.5-10.7,36.1
								c-7.1,10.2-16.7,15.7-27,15.5s-19.8-6-26.7-16.5c-6.6-9.9-10.1-22.8-10-36.5c0.1-13.6,3.9-26.5,10.7-36.1
								C215.3,70,224.9,64.4,235.2,64.6z M234.2,164.3c17.9,0.3,32.5-20.7,32.8-46.9s-14-47.7-31.9-48
								c-17.9-0.3-32.5,20.7-32.8,46.9C202.1,142.5,216.4,164,234.2,164.3"/>
						</g>
					</g>
				</g>
				<g>
					<g>
						<g>
							<polygon class="st1" points="44.8,42.1 84.9,3.2 324.2,7.4 284,46.3 							"/>
						</g>
					</g>
				</g>
				<g>
					<g>
						<g>
							<polygon class="st1" points="293.6,56.2 333.8,17.3 332.5,143.7 292.4,182.6 							"/>
						</g>
					</g>
				</g>
				<g>
					<g>
						<g>
							<path class="st1" d="M284,46.3l40.1-38.9c5.3,0.1,9.7,4.5,9.6,9.9l-40.1,38.9C293.7,50.8,289.4,46.4,284,46.3z"/>
						</g>
					</g>
				</g>
			</g>
		</g>
		<g>
			<g>
				<g>
					<g class="st0">
						<g>
							<g>
								<g>
									<polygon class="st1" points="111.1,340.1 116.9,334.5 116,336.8 110.3,342.3 									"/>
								</g>
							</g>
						</g>
						<g>
							<g>
								<g>
									<polygon class="st1" points="108.9,339.2 114.6,333.6 116.9,334.5 111.1,340.1 									"/>
								</g>
							</g>
						</g>
						<g>
							<g>
								<g>
									<path class="st1" d="M135.4,349.6l-5.7,5.6c-1.2,1.2-2.6,2.1-4.6,2.8c-1.1,0.4-2.1,0.5-3.2,0.5c-4.6-0.1-9-3.3-10.3-5.6
										c-2.2-4.1-2.6-7.1-1.3-10.5l5.7-5.6c-1.3,3.4-0.9,6.4,1.3,10.5c1.3,2.3,5.7,5.5,10.3,5.6c1.1,0,2.2-0.1,3.2-0.5
										C132.8,351.6,134.2,350.7,135.4,349.6z"/>
								</g>
							</g>
						</g>
						<g>
							<g>
								<g>
									<path class="st2" d="M136.5,348.4c-0.3,0.4-0.7,0.8-1,1.1l-5.7,5.6c0.4-0.3,0.7-0.7,1-1.1
										C132.7,352.1,134.6,350.3,136.5,348.4z"/>
								</g>
							</g>
						</g>
						<g>
							<g>
								<g>
									<path class="st2" d="M136.7,348.2c-0.1,0.1-0.1,0.2-0.2,0.2c-1.9,1.9-3.8,3.7-5.7,5.6c0.1-0.1,0.1-0.2,0.2-0.2
										C132.9,351.9,134.8,350,136.7,348.2z"/>
								</g>
							</g>
						</g>
						<g>
							<g>
								<g>
									<path class="st1" d="M105.1,319.4l5.7-5.6c-3.5,3.4-4.2,9.3-3.2,11.9c1.6,4.3,3.6,6.6,7,7.9l-5.7,5.6
										c-3.4-1.3-5.4-3.6-7-7.9C100.9,328.6,101.7,322.7,105.1,319.4z"/>
								</g>
							</g>
						</g>
						<g>
							<g>
								<g>
									<path class="st2" d="M136.7,348.2C136.7,348.2,136.6,348.2,136.7,348.2c-0.1,0.1-0.2,0.2-0.2,0.2l-0.1,0.1
										c-0.1,0.1-0.2,0.2-0.3,0.3c-0.2,0.2-0.4,0.4-0.6,0.6c-1.5,1.4-3,2.9-4.5,4.3c0.8-1,1.6-2.2,2.6-3.6
										c0.3-0.4,0.5-0.7,0.8-1.1c1.9-1.9,3.8-3.7,5.7-5.6c-0.3,0.4-0.5,0.8-0.8,1.1C138.3,346,137.5,347.2,136.7,348.2z"/>
								</g>
							</g>
						</g>
						<g>
							<g>
								<g>
									<path class="st2" d="M140,343.5C140,343.5,140,343.6,140,343.5c-0.1,0.1-0.2,0.1-0.2,0.2c-0.1,0.1-0.1,0.1-0.2,0.2
										c-1.8,1.7-3.6,3.5-5.3,5.2c0.7-1,1.5-2.2,2.5-3.4c0.1-0.1,0.3-0.3,0.4-0.4c0.1-0.1,0.3-0.3,0.4-0.4s0.3-0.3,0.4-0.4
										c0.1-0.1,0.3-0.3,0.4-0.4s0.3-0.3,0.4-0.4c0.1-0.1,0.3-0.3,0.4-0.4s0.3-0.3,0.4-0.4c0.1-0.1,0.3-0.3,0.4-0.4
										c0.4-0.4,0.8-0.8,1.2-1.1c0.4-0.4,0.8-0.8,1.2-1.1C141.5,341.3,140.7,342.5,140,343.5z"/>
								</g>
							</g>
						</g>
						<g>
							<g>
								<g>
									<path class="st1" d="M143.5,345.4l5.7-5.6c-0.9,0.9-1.9,1.9-2.7,3c-1.3,1.7-2.4,3.2-3.3,4.6c-1.5,2.1-2.8,4-4.4,5.6
										l-5.7,5.6c1.7-1.6,3-3.5,4.4-5.6c0.9-1.4,2-2.9,3.3-4.6C141.7,347.3,142.6,346.3,143.5,345.4z"/>
								</g>
							</g>
						</g>
						<g>
							<g>
								<g>
									<path class="st2" d="M142.5,340.1c-0.1,0.1-0.2,0.2-0.3,0.3c-0.3,0.3-0.6,0.6-0.9,0.9c-0.4,0.4-0.8,0.8-1.2,1.1
										c-1.1,1.1-2.3,2.2-3.4,3.3c0.1-0.1,0.1-0.2,0.2-0.3c1-1.3,2.1-2.5,3.2-3.6l5.7-5.6c-1.1,1.1-2.2,2.3-3.2,3.6
										C142.6,339.9,142.5,340,142.5,340.1z"/>
								</g>
							</g>
						</g>
						<g>
							<g>
								<g>
									<path class="st1" d="M140.1,341.8l5.7-5.6c5-4.8,10.3-7.2,10.6-7.4l-5.7,5.6C150.4,334.6,145.1,337,140.1,341.8z"/>
								</g>
							</g>
						</g>
						<g>
							<g>
								<g>
									<path class="st2" d="M132,312c8.3,0.1,15.4-2.9,15.8-3.1l-5.7,5.6c-0.3,0.1-7.5,3.2-15.8,3.1c-0.6,0-1.2,0-1.8-0.1
										c-2.3-0.2-4.2-0.4-5.9-0.6c-1.9-0.3-3.5-0.5-5-0.5c-2.2,0-4.1,0.3-6.4,1.6c-0.8,0.4-1.4,0.9-2,1.5l5.7-5.6
										c0.6-0.6,1.3-1.1,2-1.5c2.4-1.2,4.3-1.6,6.4-1.6c1.5,0,3,0.2,5,0.5c1.7,0.2,3.6,0.5,5.9,0.6C130.8,312,131.4,312,132,312z"
										/>
								</g>
							</g>
						</g>
						<g>
							<g>
								<g>
									<path class="st1" d="M101.7,315.9l5.7-5.6c0.9-0.9,2-1.7,3.1-2.3c3.2-1.7,6-2.2,8.8-2.1c1.8,0,3.6,0.3,5.5,0.5
										c1.6,0.2,3.5,0.5,5.6,0.6c0.5,0,1,0.1,1.5,0.1c7.2,0.1,13.7-2.6,13.8-2.7L140,310c-0.1,0-6.5,2.8-13.8,2.7
										c-0.5,0-1,0-1.5-0.1c-2.1-0.2-4-0.4-5.6-0.6c-1.9-0.3-3.7-0.5-5.5-0.5c-2.8,0-5.5,0.4-8.8,2.1
										C103.7,314.2,102.6,315,101.7,315.9z"/>
								</g>
							</g>
						</g>
						<g>
							<g>
								<g>
									<polygon class="st1" points="150.7,334.5 156.4,328.9 227.9,297.3 222.2,302.9 									"/>
								</g>
							</g>
						</g>
						<g>
							<g>
								<g>
									<polygon class="st2" points="142.1,314.5 147.8,309 219.3,277.3 213.5,282.9 									"/>
								</g>
							</g>
						</g>
						<g>
							<g>
								<g>
									<polygon class="st1" points="140.1,310.1 145.8,304.5 217.3,272.9 211.5,278.4 									"/>
								</g>
							</g>
						</g>
						<g>
							<g>
								<g>
									<path class="st2" d="M229.9,269.9l-5.7,5.6c-5,4.9-10.4,7.3-10.7,7.4l5.7-5.6C219.5,277.2,224.9,274.7,229.9,269.9z"/>
								</g>
							</g>
						</g>
						<g>
							<g>
								<g>
									<path class="st1" d="M226.6,266.4l-5.7,5.6c-4.4,4.3-9.2,6.5-9.3,6.5l5.7-5.6C217.3,272.9,222.1,270.6,226.6,266.4z"/>
								</g>
							</g>
						</g>
						<g>
							<g>
								<g>
									<path class="st1" d="M222.2,302.9l5.7-5.6c0.3-0.1,7.5-3.2,15.9-3.1c0.6,0,1.2,0,1.8,0.1c2.3,0.2,4.2,0.4,5.9,0.7
										c1.9,0.3,3.5,0.5,5,0.5c2.2,0,4.1-0.3,6.5-1.6l-5.7,5.6c-2.4,1.2-4.3,1.6-6.5,1.6c-1.5,0-3.1-0.2-5-0.5
										c-1.7-0.2-3.6-0.5-5.9-0.7c-0.6,0-1.2-0.1-1.8-0.1C229.7,299.6,222.5,302.7,222.2,302.9z"/>
								</g>
							</g>
						</g>
						<g>
							<g>
								<g>
									<path class="st1" d="M265,292.4l-5.7,5.6c-0.6,0.6-1.3,1.1-2,1.5l5.7-5.6C263.7,293.5,264.4,293,265,292.4z"/>
								</g>
							</g>
						</g>
						<g>
							<g>
								<g>
									<path class="st1" d="M234.6,262.3l5.7-5.6c-1.3,1.3-2.4,2.8-3.8,4.9c-1,1.4-2.1,3-3.5,4.8c-1,1.3-2.1,2.4-3.1,3.5l-5.7,5.6
										c1.1-1.1,2.2-2.2,3.1-3.5c1.4-1.8,2.5-3.4,3.5-4.8C232.2,265.1,233.3,263.5,234.6,262.3z"/>
								</g>
							</g>
						</g>
						<g>
							<g>
								<g>
									<path class="st2" d="M268.6,281.8c0.4,3-0.6,7.7-3.6,10.6l-5.7,5.6c3-2.9,3.9-7.6,3.6-10.6
										C264.7,285.5,266.7,283.7,268.6,281.8z"/>
								</g>
							</g>
						</g>
						<g>
							<g>
								<g>
									<polygon class="st2" points="253.2,277.2 259,271.6 261.2,272.5 255.5,278.1 									"/>
								</g>
							</g>
						</g>
						<g>
							<g>
								<g>
									<path class="st2" d="M268.3,280.5c0.1,0.4,0.2,0.8,0.3,1.3c-1.9,1.9-3.8,3.7-5.7,5.6c-0.1-0.5-0.2-1-0.3-1.3
										c-0.2-0.5-0.3-0.9-0.5-1.3c1.9-1.9,3.8-3.7,5.7-5.6C267.9,279.6,268.1,280,268.3,280.5z"/>
								</g>
							</g>
						</g>
						<g>
							<g>
								<g>
									<path class="st2" d="M267.7,279.1c-1.9,1.9-3.8,3.7-5.7,5.6c0-0.1-0.1-0.1-0.1-0.2c0.5-0.4,0.9-0.9,1.4-1.3
										c0.2-0.2,0.5-0.5,0.7-0.7c0.2-0.2,0.5-0.5,0.8-0.7c1-0.9,1.9-1.9,2.9-2.8C267.7,279,267.7,279.1,267.7,279.1z"/>
								</g>
							</g>
						</g>
						<g>
							<g>
								<g>
									<path class="st2" d="M267.5,278.6c0.1,0.1,0.1,0.2,0.2,0.3c-1.9,1.9-3.8,3.7-5.7,5.6c-0.1-0.1-0.1-0.2-0.2-0.3
										C263.7,282.3,265.6,280.4,267.5,278.6z"/>
								</g>
							</g>
						</g>
						<g>
							<g>
								<g>
									<path class="st2" d="M267.5,278.6c-1.9,1.9-3.8,3.7-5.7,5.6c-0.3-0.7-0.7-1.3-1-1.9c1.9-1.9,3.8-3.7,5.7-5.6
										C266.8,277.3,267.2,277.9,267.5,278.6z"/>
								</g>
							</g>
						</g>
						<g>
							<g>
								<g>
									<polygon class="st2" points="254.1,274.9 259.8,269.4 259,271.6 253.2,277.2 									"/>
								</g>
							</g>
						</g>
						<g>
							<g>
								<g>
									<path class="st2" d="M266.5,276.7c-1.9,1.9-3.8,3.7-5.7,5.6c-1.3-2-3-3.3-5.2-4.2l5.7-5.6
										C263.5,273.4,265.2,274.7,266.5,276.7z"/>
								</g>
							</g>
						</g>
						<g>
							<g>
								<g>
									<path class="st1" d="M268.4,295.9l-5.7,5.6c4.9-4.7,6-12.6,4.4-17l5.7-5.6C274.4,283.3,273.3,291.2,268.4,295.9z"/>
								</g>
							</g>
						</g>
						<g>
							<g>
								<g>
									<path class="st2" d="M234.6,262.3l5.7-5.6c1.2-1.2,2.6-2.1,4.7-2.8c1.1-0.4,2.2-0.6,3.3-0.5l-5.7,5.6
										c-1.1,0-2.2,0.1-3.3,0.5C237.3,260.2,235.8,261.1,234.6,262.3z"/>
								</g>
							</g>
						</g>
						<g>
							<g>
								<g>
									<path class="st2" d="M248.3,253.3c1.1,0,2.3,0.2,3.3,0.6c-1.9,1.9-3.8,3.7-5.7,5.6c-1.1-0.3-2.2-0.6-3.3-0.6
										C244.3,257.2,246.6,255,248.3,253.3z"/>
								</g>
							</g>
						</g>
						<g>
							<g>
								<g>
									<path class="st1" d="M259.3,274.5l5.7-5.6c4.6,2.5,6.6,6.5,7.8,9.9l-5.7,5.6C265.9,281.1,263.9,277,259.3,274.5z"/>
								</g>
							</g>
						</g>
						<g>
							<g>
								<g>
									<path class="st2" d="M258.6,258.9c2.2,4,2.6,7.1,1.2,10.5l-5.7,5.6c1.3-3.4,0.9-6.4-1.2-10.5l0,0
										C254.8,262.6,256.7,260.7,258.6,258.9L258.6,258.9z"/>
								</g>
							</g>
						</g>
						<g>
							<g>
								<g>
									<path class="st2" d="M258.4,258.6c0.1,0.1,0.1,0.2,0.2,0.3c-1.9,1.9-3.8,3.7-5.7,5.6c-0.1-0.1-0.1-0.2-0.2-0.3
										C254.6,262.3,256.5,260.5,258.4,258.6z"/>
								</g>
							</g>
						</g>
						<g>
							<g>
								<g>
									<path class="st2" d="M258.4,258.6c-1.9,1.9-3.8,3.7-5.7,5.6c-1.1-1.7-3.7-3.7-6.8-4.7c1.1-1,2.2-2.1,3.2-3.1
										c0.2-0.2,0.5-0.5,0.7-0.7c0.4-0.3,0.7-0.7,1.1-1c0.2-0.2,0.5-0.4,0.7-0.6C254.7,254.9,257.3,256.9,258.4,258.6z"/>
								</g>
							</g>
						</g>
						<g>
							<g>
								<g>
									<path class="st1" d="M231.2,258.8l5.7-5.6c1.6-1.6,3.6-2.9,6.4-3.9c1.7-0.6,3.4-0.9,5-0.8c6.4,0.1,12.4,4.2,14.5,8.1
										c1.7,3.1,3.4,7.3,2.2,12.3l-5.7,5.6c1.2-5.1-0.5-9.2-2.2-12.3c-2.1-3.9-8.1-8-14.5-8.1c-1.7,0-3.4,0.2-5,0.8
										C234.8,255.9,232.9,257.2,231.2,258.8z"/>
								</g>
							</g>
						</g>
						<g>
							<g>
								<g>
									<path class="st1" d="M267.1,284.4c1.9,5.3-0.1,15.4-7.6,19.3c-3.3,1.7-6,2.2-8.8,2.1c-1.8,0-3.6-0.3-5.5-0.5
										c-1.6-0.2-3.5-0.5-5.6-0.6c-0.5,0-1-0.1-1.6-0.1c-7.3-0.1-13.7,2.6-13.8,2.7l-71.4,31.6c-0.1,0-7.1,3.3-11.9,9.5
										c-1.3,1.7-2.4,3.2-3.3,4.6c-2.9,4.2-5.1,7.4-10.7,9.5c-1.6,0.6-3.3,0.9-5,0.8c-6.3-0.1-12.4-4.3-14.5-8.2
										c-1.7-3.1-3.4-7.3-2.2-12.4c-4.6-2.5-6.5-6.5-7.8-9.9c-1.9-5.3,0.1-15.4,7.6-19.3c3.2-1.7,6-2.2,8.8-2.1
										c1.8,0,3.6,0.3,5.5,0.5c1.6,0.2,3.5,0.5,5.6,0.6c0.5,0,1,0.1,1.5,0.1c7.2,0.1,13.7-2.6,13.8-2.7l71.4-31.6
										c0.1,0,7.2-3.3,12-9.5c1.3-1.7,2.4-3.2,3.3-4.6c2.9-4.2,5.1-7.4,10.8-9.5c1.7-0.6,3.4-0.9,5-0.8c6.4,0.1,12.4,4.2,14.5,8.1
										c1.7,3.1,3.4,7.3,2.2,12.3C263.9,277,265.9,281.1,267.1,284.4z M257.2,299.4c5.2-2.7,6.4-10.3,5.3-13.4
										c-1.6-4.3-3.6-6.6-7-8l-2.3-0.9l0.9-2.3c1.3-3.4,0.9-6.4-1.2-10.5c-1.3-2.3-5.7-5.5-10.3-5.6c-1.1,0-2.2,0.1-3.3,0.5
										c-4.2,1.5-5.7,3.7-8.5,7.7c-1,1.4-2.1,3-3.5,4.8c-5.6,7.2-13.5,10.8-13.8,10.9L142,314.2c-0.3,0.1-7.5,3.2-15.8,3.1
										c-0.6,0-1.2,0-1.8-0.1c-2.3-0.2-4.2-0.4-5.9-0.6c-1.9-0.3-3.5-0.5-5-0.5c-2.2,0-4.1,0.3-6.4,1.6
										c-5.2,2.7-6.4,10.3-5.3,13.3c1.6,4.3,3.6,6.6,7,7.9l2.3,0.9l-0.9,2.3c-1.3,3.4-0.9,6.4,1.3,10.5c1.3,2.3,5.7,5.5,10.3,5.6
										c1.1,0,2.2-0.1,3.2-0.5c4.2-1.5,5.7-3.7,8.4-7.7c1-1.4,2.1-3,3.4-4.8c5.5-7.2,13.4-10.8,13.7-10.9l71.5-31.6
										c0.3-0.1,7.5-3.2,15.9-3.1c0.6,0,1.2,0,1.8,0.1c2.3,0.2,4.2,0.4,5.9,0.7c1.9,0.3,3.5,0.5,5,0.5
										C252.9,301,254.9,300.7,257.2,299.4"/>
								</g>
							</g>
						</g>
						<g>
							<g>
								<g>
									<path class="st2" d="M242.6,258.9c4.6,0.1,9,3.2,10.3,5.6c2.2,4,2.6,7.1,1.2,10.5l-0.9,2.3l2.3,0.9c3.4,1.3,5.4,3.6,7,8
										c1.1,3.1-0.1,10.7-5.3,13.4c-2.4,1.2-4.3,1.6-6.5,1.6c-1.5,0-3.1-0.2-5-0.5c-1.7-0.2-3.6-0.5-5.9-0.7
										c-0.6,0-1.2-0.1-1.8-0.1c-8.4-0.1-15.5,2.9-15.9,3.1l-71.5,31.6c-0.3,0.1-8.2,3.7-13.7,10.9c-1.4,1.8-2.5,3.4-3.4,4.8
										c-2.7,4-4.2,6.2-8.4,7.7c-1.1,0.4-2.1,0.5-3.2,0.5c-4.6-0.1-9-3.3-10.3-5.6c-2.2-4.1-2.6-7.1-1.3-10.5l0.9-2.3l-2.3-0.9
										c-3.4-1.3-5.4-3.6-7-7.9c-1.1-3.1,0.1-10.6,5.3-13.3c2.4-1.2,4.3-1.6,6.4-1.6c1.5,0,3,0.2,5,0.5c1.7,0.2,3.6,0.5,5.9,0.6
										c0.6,0,1.2,0.1,1.8,0.1c8.3,0.1,15.4-2.9,15.8-3.1l71.5-31.6c0.3-0.2,8.2-3.8,13.8-10.9c1.4-1.8,2.5-3.4,3.5-4.8
										c2.8-4,4.3-6.2,8.5-7.7C240.4,259,241.5,258.9,242.6,258.9z"/>
								</g>
							</g>
						</g>
					</g>
				</g>
			</g>
			<g>
				<g>
					<g class="st0">
						<g>
							<g>
								<g>
									<path class="st1" d="M73.2,277.7l5.7-5.6c-1.3,1.3-2.3,3-3.3,5.3c-1.2,3-0.1,10.7,5,13.6c2.4,1.3,4.3,1.8,6.5,1.8
										c1.4,0,3-0.1,4.9-0.3c1.7-0.2,3.7-0.3,5.9-0.4c0.6,0,1.1,0,1.7,0c8.4,0.1,15.6,3.5,15.9,3.7l-5.7,5.6
										c-0.3-0.2-7.5-3.5-15.9-3.7c-0.6,0-1.1,0-1.7,0c-2.3,0.1-4.2,0.3-5.9,0.4c-1.9,0.2-3.5,0.3-4.9,0.3c-2.2,0-4.1-0.5-6.5-1.8
										c-5.1-2.9-6.2-10.5-5-13.6C70.9,280.7,71.9,279,73.2,277.7z"/>
								</g>
							</g>
						</g>
						<g>
							<g>
								<g>
									<path class="st2" d="M82.6,270c-1.9,1.9-3.8,3.7-5.7,5.6c-1.4,0.5-2.6,1.2-3.6,2.2l5.7-5.6C80,271.2,81.2,270.5,82.6,270z"
										/>
								</g>
							</g>
						</g>
						<g>
							<g>
								<g>
									<path class="st1" d="M69.8,274.3l5.7-5.6c1-1,2.2-1.8,3.6-2.6l-5.7,5.6C72,272.4,70.8,273.3,69.8,274.3z"/>
								</g>
							</g>
						</g>
						<g>
							<g>
								<g>
									<path class="st2" d="M82.6,270c0.1,0,0.2-0.1,0.3-0.1l-5.7,5.6c-0.1,0-0.2,0.1-0.3,0.1c0.2-0.2,0.4-0.4,0.5-0.5
										c0.2-0.2,0.4-0.4,0.6-0.5c0.2-0.2,0.4-0.4,0.6-0.6c0.2-0.2,0.4-0.4,0.6-0.6s0.4-0.4,0.6-0.6c0.2-0.2,0.4-0.4,0.6-0.6
										s0.4-0.4,0.6-0.5c0.2-0.2,0.4-0.4,0.5-0.5l0.1-0.1c0,0,0.1-0.1,0.2-0.1c0,0,0.1-0.1,0.2-0.2c0,0,0.1-0.1,0.2-0.2
										c0,0,0.1-0.1,0.2-0.2c0,0,0.1-0.1,0.2-0.2c0,0,0.1-0.1,0.2-0.1C82.5,270.1,82.6,270,82.6,270z"/>
								</g>
							</g>
						</g>
						<g>
							<g>
								<g>
									<polygon class="st2" points="77.1,275.4 82.9,269.9 85.2,269.1 79.4,274.6 									"/>
								</g>
							</g>
						</g>
						<g>
							<g>
								<g>
									<polygon class="st1" points="78.6,272.3 84.4,266.8 85.2,269.1 79.4,274.6 									"/>
								</g>
							</g>
						</g>
						<g>
							<g>
								<g>
									<path class="st1" d="M85.2,257.5c-1.7,3.4-1.9,6.1-0.8,9.2l-5.7,5.6c-1.1-3.1-0.9-5.8,0.8-9.2c0.2-0.2,0.5-0.5,0.7-0.6
										c0.2-0.2,0.5-0.5,0.7-0.7s0.5-0.5,0.7-0.7c0.2-0.2,0.5-0.5,0.8-0.7c0.2-0.2,0.5-0.5,0.8-0.7c0.2-0.2,0.5-0.5,0.7-0.7
										s0.5-0.5,0.7-0.7C84.7,258,85,257.7,85.2,257.5z"/>
								</g>
							</g>
						</g>
						<g>
							<g>
								<g>
									<path class="st1" d="M85.9,256.3c-0.2,0.4-0.5,0.8-0.7,1.2c-1.1,1-2.2,2.1-3.2,3.1c-0.6,0.6-1.2,1.2-1.8,1.8
										c-0.1,0.1-0.2,0.2-0.3,0.3c-0.1,0.1-0.2,0.3-0.3,0.3c0.2-0.4,0.4-0.8,0.7-1.2c0.3-0.5,0.7-1,1.2-1.5l5.7-5.6
										C86.5,255.4,86.1,255.8,85.9,256.3z"/>
								</g>
							</g>
						</g>
						<g>
							<g>
								<g>
									<path class="st2" d="M87,254.9c0.7-0.7,1.7-1.4,2.8-2c-1.9,1.9-3.8,3.7-5.7,5.6c-1.1,0.6-2.1,1.3-2.8,2
										C83,258.8,85.3,256.5,87,254.9z"/>
								</g>
							</g>
						</g>
						<g>
							<g>
								<g>
									<path class="st2" d="M89.8,252.8c1.9-1,4.1-1.8,6.4-1.7l-5.7,5.6c-2.3,0-4.6,0.7-6.4,1.7c0.2-0.2,0.5-0.5,0.7-0.6
										c0.2-0.2,0.5-0.5,0.7-0.7c0.2-0.2,0.5-0.5,0.7-0.7s0.5-0.5,0.8-0.7c0.2-0.2,0.5-0.5,0.8-0.7c0.2-0.2,0.5-0.5,0.7-0.7
										c0.2-0.2,0.5-0.5,0.7-0.7C89.4,253.3,89.6,253,89.8,252.8z"/>
								</g>
							</g>
						</g>
						<g>
							<g>
								<g>
									<path class="st2" d="M90.5,256.7l5.7-5.6c1.1,0,2.2,0.2,3.3,0.7c4.2,1.7,5.6,4,8.3,8.1c0.9,1.4,2,3.1,3.4,4.9
										c5.4,7.4,13.2,11.6,13.5,11.7l-5.7,5.6c-0.3-0.2-8.1-4.4-13.5-11.7c-1.3-1.8-2.4-3.5-3.4-4.9c-2.7-4.1-4.1-6.4-8.3-8.1
										C92.7,256.9,91.6,256.7,90.5,256.7z"/>
								</g>
							</g>
						</g>
						<g>
							<g>
								<g>
									<path class="st1" d="M77.9,256.9l5.7-5.6c2.9-2.8,7.7-5.2,12.6-5.1c1.7,0,3.4,0.3,5,1c5.6,2.3,7.8,5.7,10.6,9.9
										c0.9,1.4,1.9,3,3.2,4.7c4.5,6.2,11.3,10,11.8,10.3l-5.7,5.6c-0.5-0.3-7.3-4.1-11.8-10.3c-1.3-1.7-2.3-3.3-3.2-4.7
										c-2.8-4.3-5-7.6-10.6-9.9c-1.7-0.7-3.4-1-5-1C85.6,251.7,80.9,254.1,77.9,256.9z"/>
								</g>
							</g>
						</g>
						<g>
							<g>
								<g>
									<polygon class="st1" points="109.9,301.4 115.7,295.9 186.4,330.1 180.7,335.7 									"/>
								</g>
							</g>
						</g>
						<g>
							<g>
								<g>
									<path class="st1" d="M224,351.4l-5.7,5.6c-2,1.9-5.6,3.8-9.2,3.7c-1.1,0-2.2-0.2-3.3-0.6c-4.1-1.7-5.6-3.9-8.3-8
										c-0.9-1.4-2-3.1-3.3-4.9c-5.4-7.4-13.2-11.2-13.5-11.4l5.7-5.6c0.3,0.2,8.1,4,13.5,11.4c1.3,1.8,2.4,3.5,3.3,4.9
										c2.7,4.1,4.1,6.3,8.3,8c1.1,0.4,2.2,0.6,3.3,0.6C218.4,355.2,222,353.3,224,351.4z"/>
								</g>
							</g>
						</g>
						<g>
							<g>
								<g>
									<polygon class="st2" points="119,282.1 124.7,276.5 195.5,310.8 189.8,316.4 									"/>
								</g>
							</g>
						</g>
						<g>
							<g>
								<g>
									<path class="st2" d="M225.1,350c-0.3,0.5-0.7,1-1.2,1.4l-5.7,5.6c0.5-0.5,0.9-1,1.2-1.4c2.3-4,2.7-7,1.5-10.4l5.7-5.6
										C227.8,343,227.4,346,225.1,350z"/>
								</g>
							</g>
						</g>
						<g>
							<g>
								<g>
									<polygon class="st2" points="220.1,342.8 225.8,337.3 226.6,339.5 220.9,345.1 									"/>
								</g>
							</g>
						</g>
						<g>
							<g>
								<g>
									<polygon class="st1" points="121.2,277.8 126.9,272.2 197.5,306.4 191.8,312 									"/>
								</g>
							</g>
						</g>
						<g>
							<g>
								<g>
									<polygon class="st1" points="220.1,342.8 225.8,337.3 228.1,336.5 222.4,342 									"/>
								</g>
							</g>
						</g>
						<g>
							<g>
								<g>
									<path class="st1" d="M227.3,354.9l-5.7,5.6c0.8-0.8,1.5-1.7,2-2.5c1.8-3.1,3.5-7.1,2.5-12.2l5.7-5.6
										c1.1,5.1-0.7,9.2-2.5,12.2C228.8,353.3,228.2,354.1,227.3,354.9z"/>
								</g>
							</g>
						</g>
						<g>
							<g>
								<g>
									<path class="st2" d="M206.5,313.8c-1.9,1.9-3.8,3.7-5.7,5.6c-6.1-0.8-10.7-2.8-11-3l5.7-5.6
										C195.8,311,200.4,313,206.5,313.8z"/>
								</g>
							</g>
						</g>
						<g>
							<g>
								<g>
									<path class="st1" d="M232,334.1l-5.7,5.6c-1.1,1-2.4,1.8-3.9,2.3l5.7-5.6C229.6,335.9,230.9,335.2,232,334.1z"/>
								</g>
							</g>
						</g>
						<g>
							<g>
								<g>
									<path class="st2" d="M235.3,328.8c-0.9,2.4-2,4.1-3.3,5.4l-5.7,5.6c1.3-1.3,2.4-3,3.3-5.4c0.9-2.3,0.5-7.4-2-10.9
										c1.9-1.9,3.8-3.7,5.7-5.6C235.8,321.4,236.2,326.4,235.3,328.8z"/>
								</g>
							</g>
						</g>
						<g>
							<g>
								<g>
									<path class="st2" d="M233.3,317.8c-1.9,1.9-3.8,3.7-5.7,5.6c-0.8-1.1-1.7-2-2.9-2.7c-2.3-1.3-4.2-1.8-6.4-1.8
										c-1.5,0-3,0.1-5,0.3c-1.7,0.2-3.6,0.3-5.9,0.4c-0.7,0-1.3,0-1.9,0c-1.6,0-3.1-0.2-4.6-0.4c0.6-0.6,1.1-1.1,1.7-1.7
										c0.1-0.1,0.3-0.3,0.4-0.4c0.1-0.1,0.3-0.3,0.4-0.4c0.1-0.1,0.3-0.2,0.4-0.4c0.1-0.1,0.2-0.2,0.3-0.3
										c0.1-0.1,0.2-0.2,0.3-0.3c0.1-0.1,0.2-0.2,0.3-0.3c0.1-0.1,0.2-0.2,0.3-0.3c0.1-0.1,0.2-0.2,0.4-0.3
										c0.1-0.1,0.1-0.1,0.2-0.2c0.1-0.1,0.2-0.2,0.3-0.3c0.1,0,0.1-0.1,0.2-0.2c0.1-0.1,0.2-0.2,0.3-0.3c0,0,0.1-0.2,0.2-0.2
										c1.5,0.2,3,0.3,4.6,0.4c0.6,0,1.3,0,1.9,0c2.3-0.1,4.2-0.3,5.9-0.4c1.9-0.2,3.5-0.3,5-0.3c2.2,0,4.1,0.5,6.4,1.8
										C231.5,315.8,232.5,316.8,233.3,317.8z"/>
								</g>
							</g>
						</g>
						<g>
							<g>
								<g>
									<path class="st2" d="M90.5,256.7c1.1,0,2.2,0.2,3.3,0.7c4.2,1.7,5.6,4,8.3,8.1c0.9,1.4,2,3.1,3.4,4.9
										c5.4,7.4,13.2,11.6,13.5,11.7l70.8,34.3c0.4,0.2,7.4,3.2,15.6,3.3c0.6,0,1.3,0,1.9,0c2.3-0.1,4.2-0.3,5.9-0.4
										c1.9-0.2,3.5-0.3,5-0.3c2.2,0,4.1,0.5,6.4,1.8c5.1,2.9,6.1,10.5,4.9,13.6c-1.7,4.3-3.7,6.5-7.2,7.7l-2.3,0.8l0.8,2.3
										c1.2,3.4,0.8,6.4-1.5,10.4c-1.3,2.3-5.8,5.3-10.4,5.2c-1.1,0-2.2-0.2-3.3-0.6c-4.1-1.7-5.6-3.9-8.3-8
										c-0.9-1.4-2-3.1-3.3-4.9c-5.4-7.4-13.2-11.2-13.5-11.4l-70.7-34.3c-0.3-0.2-7.5-3.5-15.9-3.7c-0.6,0-1.1,0-1.7,0
										c-2.3,0.1-4.2,0.3-5.9,0.4c-1.9,0.2-3.5,0.3-4.9,0.3c-2.2,0-4.1-0.5-6.5-1.8c-5.1-2.9-6.2-10.5-5-13.6
										c1.7-4.3,3.7-6.5,7.2-7.7l2.3-0.8l-0.8-2.3c-1.2-3.4-0.8-6.5,1.5-10.5C81.4,259.6,86,256.6,90.5,256.7z"/>
								</g>
							</g>
						</g>
						<g>
							<g>
								<g>
									<path class="st1" d="M191.8,312l5.7-5.6c0.5,0.2,6.7,2.7,13.6,2.9c0.5,0,1.1,0,1.6,0c2.1-0.1,4-0.3,5.6-0.4
										c1.9-0.2,3.7-0.4,5.5-0.3c2.8,0,5.5,0.6,8.8,2.4l-5.7,5.6c-3.2-1.8-6-2.4-8.8-2.4c-1.8,0-3.5,0.1-5.5,0.3
										c-1.6,0.2-3.5,0.3-5.6,0.4c-0.6,0-1.1,0-1.6,0C198.5,314.7,192.3,312.2,191.8,312z"/>
								</g>
							</g>
						</g>
						<g>
							<g>
								<g>
									<path class="st1" d="M235.4,337.6l-5.7,5.6c2.2-2.2,3.5-4.8,4.4-7c2-5.2,0.3-15.4-7.1-19.6l5.7-5.6
										c7.4,4.2,9.1,14.4,7.1,19.6C238.9,332.8,237.7,335.4,235.4,337.6z"/>
								</g>
							</g>
						</g>
						<g>
							<g>
								<g>
									<path class="st1" d="M227,316.5c7.4,4.2,9.1,14.4,7.1,19.6c-1.3,3.3-3.3,7.3-8,9.6c1.1,5.1-0.7,9.2-2.5,12.2
										c-2.2,3.8-8.3,7.7-14.6,7.6c-1.7,0-3.4-0.3-5-1c-5.6-2.3-7.8-5.6-10.5-9.9c-0.9-1.4-1.9-3-3.2-4.7
										c-4.7-6.4-11.6-9.9-11.7-9.9l-70.7-34.3c-0.1,0-6.5-3.1-13.9-3.2c-0.5,0-1,0-1.4,0c-2.1,0.1-4,0.3-5.7,0.4
										c-1.9,0.2-3.7,0.3-5.4,0.3c-2.8,0-5.6-0.6-8.8-2.4c-7.4-4.2-9.2-14.4-7.2-19.6c1.3-3.3,3.3-7.2,8-9.6
										c-1.1-5.1,0.7-9.2,2.5-12.3c2.2-3.8,8.3-7.7,14.7-7.6c1.7,0,3.4,0.3,5,1c5.6,2.3,7.8,5.7,10.6,9.9c0.9,1.4,1.9,3,3.2,4.7
										c4.5,6.2,11.3,10,11.8,10.3l70.6,34.2c0.5,0.2,6.7,2.7,13.6,2.9c0.5,0,1.1,0,1.6,0c2.1-0.1,4-0.3,5.6-0.4
										c1.9-0.2,3.7-0.4,5.5-0.3C221,314.1,223.8,314.7,227,316.5z M229.5,334.3c1.2-3,0.2-10.7-4.9-13.6
										c-2.3-1.3-4.2-1.8-6.4-1.8c-1.5,0-3,0.1-5,0.3c-1.7,0.2-3.6,0.3-5.9,0.4c-0.7,0-1.3,0-1.9,0c-8.2-0.1-15.2-3.1-15.5-3.3
										L119,282.1c-0.4-0.2-8.1-4.4-13.5-11.8c-1.3-1.8-2.4-3.5-3.4-4.9c-2.7-4.1-4.1-6.4-8.3-8.1c-1.1-0.4-2.2-0.6-3.3-0.7
										c-4.6-0.1-9.1,2.9-10.4,5.2c-2.3,4-2.7,7-1.5,10.5l0.8,2.3l-2.3,0.8c-3.4,1.2-5.5,3.4-7.2,7.7c-1.2,3-0.1,10.7,5,13.6
										c2.4,1.3,4.3,1.8,6.5,1.8c1.4,0,3-0.1,4.9-0.3c1.7-0.2,3.7-0.3,5.9-0.4c0.6,0,1.1,0,1.7,0c8.4,0.1,15.6,3.5,15.9,3.7
										l70.7,34.3c0.3,0.2,8.1,4,13.5,11.4c1.3,1.8,2.4,3.5,3.3,4.9c2.7,4.1,4.1,6.3,8.3,8c1.1,0.4,2.2,0.6,3.3,0.6
										c4.6,0.1,9.1-2.9,10.4-5.2c2.3-4,2.7-7,1.5-10.4l-0.8-2.3l2.3-0.8C225.8,340.8,227.9,338.6,229.5,334.3"/>
								</g>
							</g>
						</g>
					</g>
				</g>
			</g>
		</g>
		<g class="st3">
			<g class="st4">
				<g>
					<path class="st1" d="M159.1,348l11.1-11.5c-1,1-2.2,3-1.2,4.6c0.6,1,1.7,1.6,2.9,1.6c0.6,0,1.1-0.2,1.6-0.5l-11.1,11.5
						c-0.5,0.3-1.1,0.5-1.6,0.5c-1.2,0-2.3-0.6-2.9-1.6C156.9,351,158.2,349,159.1,348z"/>
				</g>
				<g>
					<path class="st2" d="M170.2,336.5l0.1-0.1l-11.1,11.5l-0.1,0.1C162.5,344.6,166.9,340,170.2,336.5z"/>
				</g>
				<g>
					<path class="st1" d="M156.8,345.8l11.1-11.5c0.1-0.1,0.2-0.2,0.2-0.2L157,345.6C156.9,345.6,156.9,345.7,156.8,345.8z"/>
				</g>
				<g>
					<path class="st1" d="M112,298.8l11-11.5c-0.6,0.6-0.9,1.5-0.9,2.4c0,1.2,0.7,2.3,1.7,2.8l-11,11.5c-1-0.6-1.7-1.6-1.7-2.8
						C111,300.3,111.4,299.5,112,298.8z"/>
				</g>
				<g>
					<path class="st2" d="M112,298.8l11-11.5c0.2-0.2,0.4-0.4,0.6-0.5l-11.1,11.5C112.4,298.5,112.2,298.6,112,298.8z"/>
				</g>
				<g>
					<path class="st1" d="M109.6,296.6l11.1-11.5c0.4-0.4,0.8-0.7,1.3-1l-11.1,11.5C110.4,295.9,110,296.2,109.6,296.6z"/>
				</g>
				<g>
					<polygon class="st1" points="112.8,304 123.8,292.5 168.1,317.1 157.1,328.6 					"/>
				</g>
				<g>
					<path class="st1" d="M172.1,316.5L161,328c-0.6,0.6-1.4,1-2.3,1c-0.6,0-1.1-0.1-1.6-0.4l11.1-11.5c0.5,0.3,1.1,0.4,1.6,0.4
						C170.6,317.5,171.5,317.1,172.1,316.5z"/>
				</g>
				<g>
					<polygon class="st2" points="140.5,306 151.6,294.5 151.7,294.6 140.6,306.1 					"/>
				</g>
				<g>
					<path class="st2" d="M151.4,294.3c0.1,0.1,0.1,0.1,0.2,0.2L140.5,306c-0.1-0.1-0.1-0.1-0.2-0.2
						C144,302,147.7,298.1,151.4,294.3z"/>
				</g>
				<g>
					<path class="st2" d="M151.4,294.3c-3.7,3.8-7.4,7.7-11.1,11.5c-0.5-0.5-1.2-1.2-1.7-2c3.7-3.8,7.4-7.7,11.1-11.5
						C150.2,293.1,150.8,293.7,151.4,294.3z"/>
				</g>
				<g>
					<polygon class="st2" points="140.6,306.1 151.7,294.6 171,311.2 159.9,322.7 					"/>
				</g>
				<g>
					<path class="st2" d="M172.1,316.5L161,328c0.2-0.2,0.4-0.4,0.5-0.7c0.9-1.7-0.6-3.7-1.6-4.7l11.1-11.5c1,0.9,2.5,3,1.6,4.7
						C172.4,316.1,172.3,316.3,172.1,316.5z"/>
				</g>
				<g>
					<polygon class="st1" points="142.8,303.7 153.8,292.2 173.1,308.7 162,320.3 					"/>
				</g>
				<g>
					<path class="st1" d="M174.4,318.8l-11.1,11.5c0.4-0.4,0.7-0.9,1-1.4c1.8-3.3-0.1-6.7-2.3-8.7l11.1-11.5
						c2.2,1.9,4.1,5.4,2.3,8.7C175.1,317.9,174.8,318.4,174.4,318.8z"/>
				</g>
				<g>
					<path class="st2" d="M148.6,289.2c0,1.2,0.5,2.2,1.1,3.1c-3.7,3.8-7.4,7.7-11.1,11.5c-0.6-0.9-1-1.9-1.1-3.1
						c-0.1-2.4,1.4-3.9,2.8-5.5c3.7-3.8,7.4-7.7,11.1-11.5C150,285.3,148.6,286.8,148.6,289.2z"/>
				</g>
				<g>
					<path class="st1" d="M142.7,297.6l11.1-11.5c-1.2,1.3-1.9,2.1-1.9,3.1c0,1.1,1.1,2.1,2,3l-11.1,11.5c-0.9-0.9-1.9-1.9-2-3
						C140.8,299.6,141.4,298.9,142.7,297.6z"/>
				</g>
				<g>
					<polygon class="st1" points="140.3,295.3 151.4,283.8 169.8,266.6 158.8,278.1 					"/>
				</g>
				<g>
					<path class="st2" d="M151.5,283.7L151.5,283.7c-3.7,3.9-7.4,7.7-11.1,11.5l0,0C143.7,291.8,148.1,287.2,151.5,283.7z"/>
				</g>
				<g>
					<polygon class="st2" points="159.3,347.9 170.4,336.4 188.8,319.2 177.7,330.7 					"/>
				</g>
				<g>
					<polygon class="st1" points="157,345.6 168.1,334 186.6,316.9 175.5,328.4 					"/>
				</g>
				<g>
					<polygon class="st1" points="177.9,330.5 189,319 188.8,319.2 177.7,330.7 					"/>
				</g>
				<g>
					<path class="st1" d="M177.5,319.9l11.1-11.5c1.5,1.4,3,2.9,3.1,5.3s-1.5,4.1-2.7,5.3l-11.1,11.5c1.2-1.3,2.7-3,2.7-5.3
						C180.5,322.8,179,321.3,177.5,319.9z"/>
				</g>
				<g>
					<polygon class="st1" points="158.2,303.3 169.2,291.8 188.6,308.4 177.5,319.9 					"/>
				</g>
				<g>
					<path class="st1" d="M157.1,297.9l11.1-11.5c-0.2,0.2-0.4,0.4-0.5,0.7c-0.9,1.6,0.3,3.5,1.6,4.7l-11.1,11.5
						c-1.3-1.2-2.5-3.1-1.6-4.7C156.7,298.4,156.9,298.1,157.1,297.9z"/>
				</g>
				<g>
					<path class="st2" d="M169.6,285.5c0.3-0.1,0.6-0.1,0.8-0.1l-11.1,11.5c-0.3,0-0.6,0-0.8,0.1c-0.6,0.2-1.1,0.5-1.4,0.9
						l11.1-11.5C168.5,286,169,285.7,169.6,285.5z"/>
				</g>
				<g>
					<path class="st2" d="M159.4,296.9l11.1-11.5c0.6,0,1.1,0.1,1.6,0.4L161,297.3C160.5,297.1,159.9,296.9,159.4,296.9z"/>
				</g>
				<g>
					<path class="st1" d="M154.7,295.7l11.1-11.5c0.8-0.8,1.8-1.4,2.9-1.7c0.6-0.2,1.1-0.2,1.7-0.3c1.1,0,2.3,0.3,3.3,0.8
						l-11.1,11.5c-1-0.6-2.1-0.8-3.3-0.8c-0.6,0-1.1,0.1-1.7,0.3C156.5,294.3,155.5,294.9,154.7,295.7z"/>
				</g>
				<g>
					<polygon class="st1" points="162.4,353.7 173.5,342.2 216.7,316.1 205.7,327.6 					"/>
				</g>
				<g>
					<path class="st1" d="M217.4,315.6l-11.1,11.5c-0.2,0.2-0.4,0.4-0.7,0.5l11.1-11.5C217,316,217.2,315.8,217.4,315.6z"/>
				</g>
				<g>
					<path class="st2" d="M171.2,261.8c0.9,1.5-0.1,3.4-1.3,4.6l-11,11.6c1.2-1.2,2.2-3.1,1.3-4.6l0,0
						C163.8,269.5,167.5,265.7,171.2,261.8L171.2,261.8z"/>
				</g>
				<g>
					<path class="st1" d="M170,266.4L158.9,278l-0.1,0.1l11.1-11.5C169.9,266.5,169.9,266.5,170,266.4z"/>
				</g>
				<g>
					<polygon class="st2" points="161,297.3 172.1,285.8 216.6,310.4 205.5,321.9 					"/>
				</g>
				<g>
					<path class="st2" d="M218.3,313.2c0,0.9-0.3,1.7-0.9,2.4l-11.1,11.5c0.6-0.6,0.9-1.5,0.9-2.4
						C210.9,320.9,214.6,317.1,218.3,313.2c-3.7,3.8-7.4,7.7-11.1,11.5c0-1.2-0.7-2.3-1.7-2.8l11.1-11.5
						C217.6,311,218.3,312.1,218.3,313.2z"/>
				</g>
				<g>
					<path class="st2" d="M159.4,296.9c0.6,0,1.1,0.1,1.6,0.4l44.5,24.6c1,0.6,1.7,1.6,1.7,2.8c0,1.2-0.6,2.3-1.6,2.9l-43.2,26.1
						c-0.5,0.3-1.1,0.5-1.6,0.5c-1.2,0-2.3-0.6-2.9-1.6c-1-1.7,0.4-3.8,1.4-4.7l18.5-17.2l0.2-0.2c1.2-1.3,2.7-3,2.7-5.3
						c-0.1-2.4-1.6-3.9-3.1-5.3l-19.4-16.6c-1.3-1.2-2.5-3.1-1.6-4.7c0.4-0.8,1.1-1.3,2-1.6C158.8,297,159.1,296.9,159.4,296.9z"/>
				</g>
				<g>
					<polygon class="st2" points="112.6,298.3 123.7,286.8 166.7,260.7 155.7,272.2 					"/>
				</g>
				<g>
					<polygon class="st1" points="110.9,295.6 122,284 165,257.9 154,269.4 					"/>
				</g>
				<g>
					<path class="st2" d="M155.7,272.2l11.1-11.5c0.5-0.3,1-0.5,1.6-0.5l-11.1,11.5C156.7,271.8,156.1,271.9,155.7,272.2z"/>
				</g>
				<g>
					<polygon class="st1" points="162.6,294.5 173.6,283 218.1,307.6 207.1,319.1 					"/>
				</g>
				<g>
					<path class="st2" d="M168.3,260.2c0.3,0,0.6,0,0.8,0.1c-3.7,3.8-7.4,7.7-11.1,11.5c-0.3-0.1-0.6-0.1-0.8-0.1
						C160.6,268.3,165,263.7,168.3,260.2z"/>
				</g>
				<g>
					<path class="st2" d="M169.2,260.3c-3.7,3.8-7.4,7.7-11.1,11.5l0,0l0,0c1.8-1.9,3.7-3.8,5.5-5.8c0.4-0.5,1-1.1,1.4-1.5
						s1-1,1.4-1.5c0.4-0.4,1-1,1.4-1.4C168.3,261.3,168.8,260.7,169.2,260.3L169.2,260.3L169.2,260.3z"/>
				</g>
				<g>
					<path class="st1" d="M219.7,317.8l-11.1,11.5c1.2-1.2,1.9-2.9,1.8-4.7c-0.1-2.3-1.4-4.5-3.4-5.6l11.1-11.5
						c2,1.1,3.3,3.3,3.4,5.6C221.6,314.9,220.9,316.6,219.7,317.8z"/>
				</g>
				<g>
					<path class="st1" d="M207.1,319.1c2,1.1,3.3,3.3,3.4,5.6c0.1,2.3-1.1,4.5-3.1,5.7l-43.2,26.1c-1,0.6-2.1,0.9-3.2,0.9
						c-2.3,0-4.5-1.2-5.7-3.2c-2-3.2-0.2-6.7,1.9-8.7l18.4-17.2c0.9-1,1.9-2.1,1.9-3.1s-0.7-1.8-2-3L156,305.7
						c-2.2-2-4.1-5.4-2.3-8.6c0.8-1.5,2.2-2.6,3.9-3.1c0.6-0.2,1.1-0.2,1.7-0.3c1.1,0,2.3,0.3,3.3,0.8L207.1,319.1z M205.7,327.6
						c1-0.6,1.6-1.7,1.6-2.9c0-1.2-0.7-2.3-1.7-2.8L161,297.3c-0.5-0.3-1.1-0.4-1.6-0.4c-0.3,0-0.6,0-0.8,0.1
						c-0.8,0.2-1.5,0.8-2,1.6c-0.9,1.6,0.3,3.5,1.6,4.7l19.4,16.6c1.5,1.4,3,2.9,3.1,5.3s-1.5,4.1-2.7,5.3l-0.2,0.2l-18.5,17.2
						c-1,1-2.4,3-1.4,4.7c0.6,1,1.7,1.6,2.9,1.6c0.6,0,1.1-0.2,1.6-0.5L205.7,327.6"/>
				</g>
				<g>
					<path class="st2" d="M169.2,260.3c0.8,0.2,1.6,0.7,2,1.5c-3.7,3.8-7.4,7.7-11.1,11.5c-0.5-0.8-1.2-1.3-2-1.5
						C161.8,268,165.5,264.2,169.2,260.3z"/>
				</g>
				<g>
					<path class="st2" d="M157.3,271.7c0.3,0,0.6,0,0.8,0.1c0.8,0.2,1.6,0.7,2,1.5c0.9,1.6-0.1,3.5-1.4,4.7l-18.4,17.2
						c-1.5,1.5-2.9,3.1-2.8,5.5c0.1,2.4,1.8,4.1,2.9,5.2l0.1,0.1l19.3,16.6c1,0.9,2.5,3,1.6,4.7c-0.6,1-1.6,1.7-2.8,1.7
						c-0.6,0-1.1-0.1-1.6-0.4L112.8,304c-1-0.6-1.7-1.6-1.7-2.8c0-1.2,0.6-2.3,1.6-2.9l43-26.1C156.1,271.9,156.7,271.8,157.3,271.7
						z"/>
				</g>
				<g>
					<path class="st1" d="M162,320.3c2.2,1.9,4.1,5.4,2.3,8.7c-1.1,2-3.2,3.3-5.5,3.4c-1.1,0-2.3-0.3-3.3-0.8L111.2,307
						c-2-1.1-3.3-3.3-3.4-5.6c-0.1-2.3,1.1-4.5,3.1-5.7l43-26.1c1-0.6,2.1-0.9,3.2-0.9c0.6,0,1.1,0.1,1.7,0.2c1.7,0.4,3.1,1.5,4,3
						c1.9,3.2,0.2,6.7-1.9,8.7l-18.4,17.2c-1.2,1.3-1.9,2.1-1.9,3.1c0,1.1,1.1,2.1,2,3L162,320.3z M161.5,327.3
						c0.9-1.7-0.6-3.7-1.6-4.7L140.6,306l-0.1-0.1c-1.1-1.1-2.9-2.9-2.9-5.2c-0.1-2.4,1.4-4,2.8-5.4l18.4-17.2
						c1.2-1.2,2.3-3.2,1.4-4.7c-0.5-0.8-1.2-1.3-2-1.5c-0.3-0.1-0.6-0.1-0.8-0.1c-0.6,0-1.1,0.2-1.6,0.5l-43,26.1
						c-1,0.6-1.6,1.7-1.6,2.9c0,1.2,0.7,2.3,1.7,2.8l44.3,24.6c0.5,0.3,1.1,0.4,1.6,0.4C159.9,329,160.9,328.4,161.5,327.3"/>
				</g>
				<g>
					<path class="st1" d="M172.3,268.7l-11.1,11.5c2-2.1,3.5-5.5,1.7-8.5c-0.9-1.5-2.3-2.6-4-3c-0.6-0.1-1.1-0.2-1.7-0.2
						c-1.1,0-2.2,0.3-3.2,0.9l11.1-11.5c1-0.6,2.1-0.9,3.2-0.9c0.6,0,1.1,0.1,1.7,0.2c1.7,0.4,3.1,1.5,4,3
						C175.8,263.3,174.3,266.6,172.3,268.7z"/>
				</g>
			</g>
		</g>
		<g class="st5">
			<g>
				<g class="st0">
					<g>
						<g>
							<g>
								<path class="st2" d="M115.7,151.6l-5.7,5.6c-4.9,4.8-10.5,7.3-16.3,7.2l5.7-5.6C105.2,158.9,110.8,156.4,115.7,151.6z"/>
							</g>
						</g>
					</g>
					<g>
						<g>
							<g>
								<path class="st2" d="M78.5,71.9l5.7-5.6c-1.8,1.8-3.6,3.9-5.2,6.3c-6.4,9.4-9.9,22.1-10.1,35.8c-0.1,13.7,3.2,26.5,9.4,36.1
									c5.8,9,13.3,14.1,21.2,14.2l-5.7,5.6c-7.9-0.1-15.4-5.2-21.2-14.2c-6.2-9.6-9.5-22.5-9.4-36.1c0.1-13.7,3.7-26.4,10.1-35.8
									C74.9,75.8,76.6,73.7,78.5,71.9z"/>
							</g>
						</g>
					</g>
					<g>
						<g>
							<g>
								<path class="st2" d="M75.1,68.5l5.7-5.6c5.7-5.5,12.5-8.7,19.7-8.5L94.8,60C87.5,59.8,80.8,62.9,75.1,68.5z"/>
							</g>
						</g>
					</g>
					<g>
						<g>
							<g>
								<path class="st2" d="M119.1,155.1l-5.7,5.6c9.9-9.6,16.5-26.3,16.7-45.5c0.3-30.2-15.5-54.9-35.3-55.3l5.7-5.6
									c19.8,0.3,35.6,25.1,35.3,55.3C135.7,128.8,129,145.5,119.1,155.1z"/>
							</g>
						</g>
					</g>
					<g>
						<g>
							<g>
								<path class="st2" d="M94.8,59.9c19.8,0.3,35.6,25.1,35.3,55.3c-0.3,30.2-16.6,54.4-36.4,54c-19.8-0.3-35.6-25.1-35.3-55.3
									C58.7,83.8,75,59.6,94.8,59.9z M93.7,164.4c7.9,0.1,15.5-4.6,21.5-13.4c6.4-9.4,9.9-22.1,10.1-35.8
									c0.1-13.7-3.2-26.5-9.4-36.1c-5.8-9-13.3-14.1-21.2-14.2s-15.5,4.6-21.5,13.4c-6.4,9.4-9.9,22.1-10.1,35.8
									c-0.1,13.7,3.2,26.5,9.4,36.1C78.3,159.2,85.9,164.2,93.7,164.4"/>
							</g>
						</g>
					</g>
				</g>
				<g class="st0">
					<g>
						<g>
							<g>
								<path class="st2" d="M258.3,154.1l-5.7,5.6c-4.9,4.8-10.5,7.3-16.3,7.2l5.7-5.6C247.8,161.4,253.4,158.9,258.3,154.1z"/>
							</g>
						</g>
					</g>
					<g>
						<g>
							<g>
								<path class="st2" d="M221,74.4l5.7-5.6c-1.8,1.8-3.6,3.9-5.2,6.3c-6.4,9.4-9.9,22.1-10.1,35.8c-0.1,13.7,3.2,26.5,9.4,36.1
									c5.8,9,13.3,14.1,21.2,14.2l-5.7,5.6c-7.9-0.1-15.4-5.2-21.2-14.2c-6.2-9.6-9.5-22.5-9.4-36.1c0.1-13.7,3.7-26.4,10.1-35.8
									C217.5,78.3,219.2,76.2,221,74.4z"/>
							</g>
						</g>
					</g>
					<g>
						<g>
							<g>
								<path class="st2" d="M217.6,71l5.7-5.6c5.7-5.5,12.5-8.7,19.7-8.5l-5.7,5.6C230.1,62.3,223.3,65.4,217.6,71z"/>
							</g>
						</g>
					</g>
					<g>
						<g>
							<g>
								<path class="st2" d="M261.7,157.6l-5.7,5.6c9.9-9.6,16.5-26.3,16.7-45.5c0.3-30.2-15.5-54.9-35.3-55.3l5.7-5.6
									c19.8,0.3,35.6,25.1,35.3,55.3C278.2,131.3,271.6,148,261.7,157.6z"/>
							</g>
						</g>
					</g>
					<g>
						<g>
							<g>
								<path class="st2" d="M237.3,62.4c19.8,0.3,35.6,25.1,35.3,55.3c-0.3,30.2-16.6,54.4-36.4,54c-19.8-0.3-35.6-25.1-35.3-55.3
									C201.2,86.3,217.5,62.1,237.3,62.4z M236.3,166.8c7.9,0.1,15.5-4.6,21.5-13.4c6.4-9.4,9.9-22.1,10.1-35.8
									c0.1-13.7-3.2-26.5-9.4-36.1c-5.8-9-13.3-14.1-21.2-14.2s-15.5,4.6-21.5,13.4c-6.4,9.4-9.9,22.1-10.1,35.8
									c-0.1,13.7,3.2,26.5,9.4,36.1C220.9,161.7,228.4,166.7,236.3,166.8"/>
							</g>
						</g>
					</g>
				</g>
				<g class="st0">
					<g>
						<g>
							<g>
								<path class="st2" d="M149.7,171l5.7-5.6c0.7-0.4,1.5-0.8,2.1-1.1c4-2.2,8.9-5,14-4.9c0.9,0,1.7,0.1,2.5,0.3
									c5.9,1.3,10,6.7,13.2,11c0.4,0.5,0.9,1.1,1.3,1.7l-5.7,5.6c-0.5-0.6-0.9-1.2-1.3-1.7c-3.3-4.3-7.3-9.7-13.2-11
									c-0.8-0.2-1.6-0.3-2.5-0.3c-5.1-0.1-10,2.7-14,4.9C151.1,170.2,150.4,170.6,149.7,171z"/>
							</g>
						</g>
					</g>
					<g>
						<g>
							<g>
								<path class="st2" d="M160.3,147.1l5.7-5.6c-1.2,1.1-2.4,2.5-3.5,4.1c-4.4,6.2-7.2,14.3-7.1,19.7l-5.7,5.6
									c-0.1-5.4,2.7-13.5,7.1-19.7C157.9,149.7,159.1,148.3,160.3,147.1z"/>
							</g>
						</g>
					</g>
					<g>
						<g>
							<g>
								<path class="st2" d="M156.9,143.6l5.7-5.6c3-2.9,6.4-4.8,9.6-4.9c0.3,0,0.6,0,0.9,0l-5.7,5.6c-0.3,0-0.6,0-0.9,0
									C163.3,138.8,160,140.7,156.9,143.6z"/>
							</g>
						</g>
					</g>
					<g>
						<g>
							<g>
								<path class="st2" d="M190.5,178.5l-5.7,5.6c0.1-0.1,0.1-0.1,0.2-0.2c8-9,5.7-44.8-17.5-45.2l5.7-5.6
									c23.2,0.4,25.5,36.2,17.5,45.2C190.6,178.4,190.5,178.5,190.5,178.5z"/>
							</g>
						</g>
					</g>
					<g>
						<g>
							<g>
								<path class="st2" d="M167.4,138.7c23.2,0.4,25.5,36.2,17.5,45.2c-0.5,0.6-1,0.8-1.5,0.8c-3.8-0.1-8.8-13.1-16.1-14.7
									c-0.5-0.1-1-0.2-1.5-0.2c-6.6-0.1-14.5,7.1-18.3,7.1c-0.9,0-1.6-0.5-1.9-1.5c-3.7-11.7,9.1-36.4,21.1-36.7
									C166.9,138.7,167.1,138.7,167.4,138.7z M182.7,178c2-5.3,2.3-15.7-1.4-24.1c-3-6.8-7.7-10.3-14-10.4c-0.2,0-0.5,0-0.7,0
									c-2.8,0.1-6.6,3-9.9,7.7c-4.4,6.2-7.2,14.3-7.1,19.7c0.7-0.4,1.5-0.8,2.1-1.1c4-2.2,8.9-5,14-4.9c0.9,0,1.7,0.1,2.5,0.3
									c5.9,1.3,10,6.7,13.2,11C181.8,176.8,182.3,177.4,182.7,178"/>
							</g>
						</g>
					</g>
				</g>
			</g>
		</g>
		<g>
			<g>
				<g>
					<g>
						<path class="st1" d="M235.8,65.5c10.3,0.2,19.8,6,26.7,16.4c6.6,9.8,10.1,22.8,10,36.3s-3.9,26.4-10.7,36
							c-7.1,10.2-16.7,15.7-27,15.5s-19.8-6-26.7-16.4c-6.6-9.8-10.1-22.8-10-36.3s3.9-26.4,10.7-36
							C215.9,70.8,225.5,65.3,235.8,65.5z M234.8,164.9c17.9,0.3,32.5-20.6,32.8-46.7s-14-47.5-31.9-47.8s-32.5,20.6-32.8,46.7
							C202.7,143.2,216.9,164.6,234.8,164.9"/>
					</g>
				</g>
			</g>
			<g>
				<g>
					<g>
						<path class="st1" d="M163.9,140.2c7.6,0.1,14.7,9.2,17.6,15.3c3,6.2,3.2,11.6,0.4,15.2c-1.2,1.6-3.1,2.5-5.1,2.4
							c-2.6,0-4.9-1.6-7.3-3.2c-1.8-1.2-4.3-2.9-5.9-3c-1.6,0-4.1,1.6-5.9,2.8c-2.4,1.5-4.7,3-7.3,3c-2,0-3.9-1-5.1-2.6
							c-2.7-3.7-2.5-9.1,0.7-15.2C149.1,148.9,156.4,140.1,163.9,140.2z M178.1,167.7c4.4-5.7-7-22.5-14.2-22.6
							s-18.9,16.3-14.6,22.1c0.3,0.4,0.7,0.6,1.2,0.6c2.8,0,8-5.8,13.2-5.7c5.2,0.1,10.4,6.1,13.1,6.2
							C177.3,168.3,177.7,168.1,178.1,167.7"/>
					</g>
				</g>
			</g>
			<g class="st0">
				<g>
					<g>
						<g>
							<path class="st1" d="M93.2,63c10.3,0.2,19.8,6,26.7,16.4c6.6,9.8,10.1,22.8,10,36.3c-0.1,13.5-3.9,26.4-10.7,36
								c-7.1,10.2-16.7,15.7-27,15.5s-19.8-6-26.7-16.4c-6.6-9.8-10.1-22.8-10-36.3s3.9-26.4,10.7-36C73.3,68.4,82.9,62.9,93.2,63z
								 M92.2,162.4c17.9,0.3,32.5-20.6,32.8-46.7s-14-47.5-31.9-47.8s-32.5,20.6-32.8,46.7C60.1,140.7,74.4,162.1,92.2,162.4"/>
						</g>
					</g>
				</g>
				<g>
					<g>
						<g>
							<path class="st1" d="M284.6,47.3c5.3,0.1,9.7,4.5,9.6,9.8l-1.2,126c-0.1,5.3-4.5,9.6-9.8,9.5c-1.3,0-26.7-0.5-35.6-0.6
								c-6.5-0.1-9.4,4-9.5,9.5c0,4.9-0.2,18.9-0.2,19.7c-0.1,5.3-4.5,9.6-9.8,9.5c-0.8,0-16-0.3-21.3-0.4c-4.9-0.1-7-4.6-9.6-10.2
								c-2.5-5.5-6.7-14.2-7-14.6c-0.2,0.4-4,9-6.6,14.4c-2.4,4.9-4,9.9-10.1,9.8c-4.7-0.1-16.2-0.3-21.7-0.4
								c-5.5-0.1-7.6-5.1-9.6-10.2c-2.2-5.5-6.1-14.2-6.3-14.6c-0.2,0.4-4.6,8.9-7.3,14.4c-2.4,4.9-3.7,9.9-9.8,9.8
								c-4.9-0.1-20.8-0.4-21.7-0.4c-5.3-0.1-9.7-4.5-9.6-9.8c0-0.7,0.1-14.7,0.2-19.7c0.1-5.2-3.8-9.7-9.6-9.8
								c-8.6-0.1-33-0.6-34.3-0.6c-5.3-0.1-9.7-4.5-9.6-9.8l1.2-126c0.1-5.3,4.5-9.6,9.8-9.5L284.6,47.3z M288.1,183l1.2-126
								c0-2.7-2.1-4.9-4.8-4.9L45.3,48c-2.7,0-4.9,2.1-4.9,4.7l-1.2,126c0,2.7,2.1,4.9,4.8,4.9l34.3,0.6c8.2,0.1,14.5,6.6,14.4,14.8
								l-0.2,19.7c0,2.7,2.1,4.9,4.8,4.9L119,224c1.8,0,2.3-0.4,4.4-4.9c0.3-0.7,0.6-1.4,1-2.2c2.6-5.4,7.1-14.1,7.3-14.5l4.6-8.9
								l4.1,9.2c0.2,0.4,4.2,9.3,6.4,14.8c0.8,2.1,1.8,4.4,2.8,5.8c0.8,1.1,1.5,1.3,2.3,1.3l21.7,0.4c2,0,2.7-0.7,4.9-5.5
								c0.3-0.5,0.5-1.1,0.8-1.7c2.6-5.3,6.5-14.1,6.5-14.2l4.2-9.5l4.6,9.4c0.2,0.4,4.5,9.2,7,14.7c1.2,2.6,2.2,4.8,3.3,6.1
								c0.9,1.1,1.4,1.2,1.9,1.2l21.3,0.4c2.7,0,4.9-2.1,4.9-4.7l0.2-19.7c0.1-8.8,5.7-14.4,14.4-14.3l35.6,0.6
								C285.9,187.8,288.1,185.7,288.1,183"/>
						</g>
					</g>
				</g>
			</g>
		</g>
	</g>
</g>
</svg>
