<svg xmlns="http://www.w3.org/2000/svg" xmlns:xlink="http://www.w3.org/1999/xlink" viewBox="0 0 500 178.8" xml:space="preserve"><style>.st3{fill:#8f48ff}.st4{enable-background:new}.st5{fill:#fff}</style><g display="none"><path display="inline" fill="#2b2b2b" d="M-8105-8607.1H7930V7499.9H-8105z"/><path display="inline" fill="#2e2938" d="M-481-267.5H981V545.4H-481z"/></g><g><g class="bb-text"><path class="st3" d="M222.2 85.5c-1 0-2-.1-3-.2-.7-.1-1.4-.2-2.1-.2-.3 0-.6-.1-.9-.1-.3-.1-.7-.1-1.2-.1-.5.1-.9.1-1.3.1-.8 0-1.4-.2-2-.5h-.6l-.3-.6c-.5-.5-.9-1.1-1.3-1.8-.8-1.6-1.3-3.3-1.4-5-.5-6.6-.8-13.2-1.1-19.8-.1-.6-.1-1.2-.1-1.9 0-1.2 0-2.4-.1-3.5 0-3.2 0-9.1 0-17.6 0-3.3-.2-6.5-.5-9.7-.2-1.2-.2-2.4-.2-3.6 0-2.6.4-6.1 1.2-10.6.3-1.9 1.1-3.3 2.4-4.1 1.1-.7 2.3-1.1 3.8-1.1l1.2 0c1.2 0 2.5-.2 3.8-.5.6-.2 1.3-.3 1.9-.4H248c3.6 1.4 6.1 2.3 7.3 2.8 2.4 1.1 5.3 3.1 8.8 6.1.2.2.4.4.8.6.7.5 1.2 1.1 1.5 1.7.5 1.2 1.1 2.4 1.8 3.6.9 1.7 1.6 3.4 2.3 5.1.7 1.7 1 3.6 1 5.7 0 .9.2 1.7.5 2.4.2.4.3.8.3 1.2 0 .9-.7 1.9-2.1 2.9-1.1.7-1.7 1.3-1.8 1.8-.2.7-1.6 1.6-4.1 2.6-1.4.6-2.4 1.1-2.9 1.5.6.5 1.6.9 2.9 1.4 1.3.5 2.5 1.1 3.5 1.7 1.1.6 1.6 1.4 1.6 2.3 0 .4.5.9 1.5 1.6.4.3.7.6.9.9 1.1 1.7 1.6 3.4 1.6 5.2 0 3.5-.7 6.5-2 9.1-.4.9-.8 1.8-1.1 2.8-.8 2.4-2.4 4.2-4.7 5.5-1.3.9-2.5 2.1-3.5 3.3-1 1.1-1.7 1.8-1.9 1.9-3.9 1.5-6.8 2.7-8.7 3.5-1.1.5-2.1.8-3.2.8-.4.2-.8.3-1.2.3l-1.2-.2-2.9.8c-3 .4-5.5.6-7.3.8-1.4.1-3.8.1-7.3.1C226 85.2 224 85.5 222.2 85.5zM241.3 36c.9 0 1.7-.3 2.4-.9 1.1-1 2.2-2 3.4-2.9.8-.7 1.2-1.3 1.2-2 0-.7-.4-1.3-1.2-1.9-1.4-1-2.7-2.1-4-3.2-.8-.7-1.7-1-2.5-1-2.4 0-4.5.2-6.1.7-1.6.8-2.4 1.3-2.4 1.5v2.2c0 1.8.2 3.5.7 5.2.3.8 1.3 1.4 2.8 1.8 1.4.4 2.8.5 4.3.5H241.3zM239.3 63.8c1.3 0 2.6-.1 3.9-.2 1.3-.2 2.3-.8 3.1-1.7.8-.9 1.5-1.9 2.1-3 .3-.5.5-.9.5-.9l-.1-.6c-.5-1.5-1.4-2.6-2.7-3.3-.9-.5-1.8-.7-2.8-.7-.5 0-1 .1-1.5.2-1.7.4-3.4.5-5.2.5-1.2 0-2.1.2-2.5.7-.3.3-.5.6-.5 1 0 .2.1.5.2.8-.2 1-.2 1.9-.2 2.8 0 1 .1 1.9.2 2.8 0 .1 0 .2 0 .3l0 1c1 0 2 0 3 0C237.6 63.8 238.5 63.8 239.3 63.8zM329.8 84.8c-.4 0-.8 0-1.3-.1-.6-.1-1.3-.1-2-.1-3.1-.1-4.8-1.8-5.1-5-.2-1.8-1-3.4-2.5-4.8-1.5-1.4-3.1-2.2-4.8-2.3-1.2 0-2.8.5-4.9 1.4-1.8.8-2.8 2.1-2.8 4 0 .2 0 .5.1.7.2.7.4 1.4.4 1.9 0 1.7-1.1 2.6-3.3 2.9-1 0-2 .1-3 .4-.8-.1-1.6-.1-2.3-.1-1.2 0-2.8.1-4.8.2l-2.9 0c-1.1 0-1.8 0-2.2-.1-2.2-.2-3.6-.3-4.2-.3-1 0-2-.3-3-.8-1.7-.8-2.7-2-3.2-3.5-.1-.3-.1-.6-.1-.9 0-.4.1-.8.2-1.3 0-.5.6-2.8 1.7-6.7.3-.9.6-1.7 1-2.5.5-1 .8-2.1 1.2-3.2.7-2.6 1.3-5.2 1.9-7.8.6-2.7 1.3-5.5 2-8.2.4-1.2.8-2.4 1.3-3.5.8-1.8 1.3-3.4 1.5-4.6.2-1.1 1.2-4.3 3-9.8 2.6-7.9 4.6-14.3 5.9-19.2.7-2.8 2.6-4.4 5.8-5 .5 0 1.4.1 2.6.2l4.2.1 2.7 0c.6 0 1.1 0 1.6-.1s.9-.1 1.2-.1l.9 0c.4 0 1.4 0 2.9-.1 1.6-.1 2.9-.1 4.1-.1 3.3 0 5.5 1.9 6.6 5.7.5 1.9 1.2 3.7 1.9 5.5 1 2.2 1.9 4.9 2.8 8.1.5 1.9 1.1 3.7 1.7 5.5.6 1.7 1 3.4 1.3 5.1.3 2 .8 3.8 1.5 5.5.7 1.7 1.2 3.4 1.6 5.1s.9 3.3 1.5 4.8c.2.7.4 1.4.4 2.2 0 .8.1 1.5.2 2.1.4 1.2.8 2.5 1.2 3.7.7 1.8 1.1 3.1 1.2 4.1 0 .4.1.8.3 1.4.5 2.3.8 4.5 1.1 6.6.3 2.1 1.1 4.3 2.5 6.6.2.4.3.8.3 1.2 0 1.1-.8 2.1-2.4 3.2-1.2.9-2.2 1.4-3 1.4-.6 0-2 .1-4.2.2-2.2.1-3.8.2-5 .2-1 0-1.8 0-2.4 0C331.6 84.7 330.7 84.8 329.8 84.8zM318.4 48.3c1.1 0 1.6-.5 1.6-1.4 0-.2 0-.4-.1-.5l-1.2-6.7-.7-1.4c-.5-1.2-1.2-2.2-2.1-3-.3-.2-.6-.4-.9-.4-.5 0-1.3.3-2.4.9-.2.2-.4.5-.6.6-.1.1-.1.1-.2.2-.1.1-.2.2-.3.2-.7.8-1 1.4-1 1.7l-.6 1.8c0 .6-.3 1.9-.9 3.8-.3.3-.5 1.4-.6 3.3.9.1 1.9.2 2.8.2l2.1-.1c.8 0 1.4.1 1.8.3 1 0 1.9.1 2.8.3C318 48.2 318.2 48.3 318.4 48.3zM408.1 85.5c-1 0-2.7-.1-5.3-.3-.5-.2-1-.3-1.6-.3-.4 0-.7 0-.9.1-.3 0-.4.1-.6.1-.3 0-.6-.1-.9-.2-.3-.1-.7-.2-1-.2l-.4 0-1.4 0c-2.6 0-3.9-.8-3.9-2.5 0-.4.1-.8.2-1.2l0-.5c0-1.1-.2-2.5-.6-4-.9-1.2-1.3-2.2-1.3-3 0-.3-.1-.8-.3-1.4s-.4-1-.7-1.2c-.4-1.1-.7-2-1-2.7-.6-1.5-1.2-2.9-1.7-4.3-.2-.6-.4-.9-.9-.9l-.3 0-.5-.1-.1 0c-.4.3-.7.9-.9 1.7-.5 1.1-.7 2.5-.7 3.9 0 1-.2 2.1-.5 3.5-.1 1.1-.1 2.1-.1 2.9l0 1.4c.2.5.2 1 .2 1.5l0 1.1c0 1.9-.6 3.4-1.7 4.4-1 .9-2.4 1.4-4.2 1.4-.4 0-.9 0-1.3-.1-.5 0-1-.1-1.5-.1-.7 0-1.3 0-1.9.1-.6.1-1.3.1-1.9.1l-1.8.2c-.5 0-.9-.1-1.3-.3-1.5-.3-3.5-.5-5.8-.5-.9 0-1.7-.1-2.6-.2-2.2-.6-3.6-2.5-4.1-5.6l-.4-13.2c0-1.9 0-3.8.1-5.7.1-1.4.1-2.9.1-4.4 0-2-.1-4.1-.3-6.2-.2-1.6-.2-3.3-.2-4.9 0-2.1.1-4.1.4-6.2.2-2.4.4-4.8.4-7.3 0-.6-.1-1.2-.2-1.8-.1-.6-.2-1.2-.2-1.8 0-.5.2-2.7.5-6.6.5-4.5.7-7.6.7-9.4 0-.7 0-1.4.1-1.9.2-1.3 1.8-2.8 4.7-4.5 1.8-1.1 5.8-1.7 11.9-2l.9 0c1.7-.1 3.1-.1 4.1-.1.8 0 1.4 0 1.7 0 2.9.2 5.7.4 8.6.5.5 0 1.1-.1 1.6-.2l.4 0c.6 0 1.9.1 3.9.4 4.7.3 9.2 1.5 13.4 3.5 2.2.9 4 2.5 5.2 4.8.4.6 1 1.2 1.8 1.6.7.5 1.3.9 1.7 1.3 1.1 1 1.7 1.8 1.9 2.4l3.1 5.2c.5.5.9 1.2 1.1 2.1.2.9.4 1.7.4 2.4 0 1.3.1 2.5.4 3.5.2 1.1.4 2.2.4 3.5l-.1 2.1c-.1 2.1-.3 4-.9 6-.5 1.9-1.7 3.6-3.5 5.1-.1.1-.1.1-.2.2-.1.1-.6.9-1.6 2.6-1.4 2.4-2.7 4.8-3.8 7.2-.1.2-.2.5-.2.8 0 .4.2 1.4.6 2.8.8 4.5 1.6 7.1 2.3 7.7.4.3 1 1.4 2 3.3 1 1.9 1.9 3.5 2.7 4.9.7 1.1 1 2.1 1 3.3 0 1.6-.7 2.8-2.2 3.8-1.4 1-2.6 1.5-3.6 1.5-.8 0-1.9.1-3.5.2C410.8 85.4 409.4 85.5 408.1 85.5zM390 38.9c.7 0 1.5-.1 2.3-.2 1.1 0 1.9-.2 2.3-.5 2.1-2.3 3.2-3.7 3.3-4.2l0-.4c0-.2 0-.4-.1-.6-.8-2.1-2-3.7-3.6-4.8-.7-.6-1.5-1-2.5-1.1-1.6-.2-3.7-.3-6.2-.3-.5 0-.9.1-1.2.2-.3.1-.6 2.3-.9 6.6-.1.5-.1.9-.1 1.3 0 1.1.2 1.8.7 2.3.3.5 1.2.9 2.6 1.3C387.6 38.8 388.8 38.9 390 38.9zM462.3 84.7c-1.7.2-3.2.4-4.4.4-1.5 0-2.6-.2-3.3-.5-.4-.2-.7-.3-1-.3-.2 0-.4 0-.6.1l-8-.2c-.8 0-1.6 0-2.4 0-.6 0-1.3.1-1.9.3-.9-.1-1.7-.1-2.4-.1-3.3 0-5.1-2.6-5.5-7.9l-.1-4.2c-.2-4-.3-8.1-.3-12.2 0-4.5.2-9.1.7-13.6l.5-6.3c0-.6-.1-1.1-.2-1.7-.1-.6-.2-1.1-.2-1.6v-.3c.2-2 .3-4 .3-6 .1-4.8.5-8.5 1.3-11.2.4-1.4.6-2.9.7-4.4l.3-2.5c.5-3.8 2.4-6 5.7-6.6.6 0 1.2.1 1.9.2.9.2 1.7.3 2.5.3.9.2 1.7.4 2.5.4 1.1 0 2-.2 2.8-.7.3-.2.8-.4 1.4-.6l.5-.1c.4-.1.9-.2 1.3-.2.5 0 1.1.1 1.7.3 1.4-.3 3.1-.5 4.9-.5 1.9 0 4.1.2 6.5.5.7 0 1.4.1 2.1.3 1.4 0 2.8.1 4.3.3 1.6.2 4.4.5 8.3.9 2.9.5 4.5.8 4.9.8l1.3-.1c2.1 0 3.8.7 5 2.2 1 1.1 1.4 2.3 1.4 3.8 0 .7-.1 1.5-.4 2.3-.3.8-.5 1.6-.5 2.4 0 1-.1 1.9-.2 2.8.2.4.3.9.3 1.4 0 .3-.1.5-.2.7v3.1c0 .7.1 1.3.2 2 .2.6.2 1.2.2 1.7 0 .9-.4 1.8-1.3 2.5-.9.8-1.7 1.3-2.4 1.6-.7.3-1.4.4-1.9.4-.5 0-1.1-.1-1.7-.3-3.7-1.3-7-1.9-9.8-1.9-1.2 0-2.4 0-3.6-.1l-.4 0c-.6 0-1.2-.2-1.9-.5-1.1-.2-3.7-.3-7.9-.3l-2.6 0c-.2 0-.3.2-.4.4-.1.2-.3.8-.6 1.5-.3.8-.5 1.3-.7 1.6 1.7.5 3.1.7 4.1.7.7 0 1.3-.1 2-.2.2-.1.4-.1.7-.1.5.2 1.2.3 2.2.3.5 0 1 0 1.6-.1.8.2 1.4.2 1.8.2h.4c.4 0 .9-.2 1.3-.5.3 0 .6 0 .9 0 1 0 2.1.1 3.3.4.3-.1.6-.1.9-.1 1.5 0 2.2.7 2.2 2 0 .6-.1 1.3-.4 1.9-.2.7-.4 1.4-.4 2 0 .8.2 1.7.7 2.4.3.4.4.8.4 1.2-.2 1.1-.2 2.2-.3 3.3-.1 1.3-.2 2.6-.4 3.9-.2 1.3-.4 2.3-.7 2.9-.7.5-1.4.9-2.2 1.1-.8.2-1.4.2-1.6.2-.9 0-1.8 0-2.6-.1-.8 0-1.6 0-2.1 0-.5 0-1 0-1.5.1-.7.1-1.5.2-2.5.2-1.4 0-2.5-.2-3.4-.7-.5-.2-.9-.2-1.4-.2-.6 0-1.2.2-1.7.7-.9.6-1.3 1.4-1.3 2.2 0 .4.1.8.2 1.2.3.6.6.9.9 1 .3.1.6.1.8.1.4 0 .9 0 1.3.1.5.1.9.1 1.5.1 1 0 1.9 0 2.6.1.7.1 1.3.1 1.8.1.9 0 1.9-.1 3.1-.2.7 0 1.1 0 1.3 0l.2 0c.9 0 2-.2 3.2-.5 1.2-.3 2.5-.6 4-.8.5-.2 1.1-.5 1.7-.9.6-.4 1.2-.7 1.7-1 .5-.3 1-.7 1.4-1.4.2-.3.5-.5.9-.5.8 0 1.7.3 2.8.8.8.4 1.4.9 1.9 1.5 1.9 2.3 2.8 5 2.8 8.1 0 1.3-.1 2.5-.2 3.8-.1 1.1-.2 2.2-.2 3.4 0 1.7.3 3.3.9 4.7.1.3.2.6.2.9 0 .8-.4 1.6-1.2 2.4-1 1.1-2.3 1.8-3.8 2.1-.8 0-1.5-.2-2.3-.4-.9.1-1.6.1-2.2.1-.6 0-1.1.1-1.6.4-1.2.2-2.2.3-2.9.4-.7.1-1.2.1-1.3.1-1.1 0-2.7.1-5 .2-2.2.1-4 .2-5.4.2-1 0-2-.1-3.1-.3-.2-.1-.5-.2-.8-.2C463.9 84.5 463.2 84.6 462.3 84.7zM221.6 169c-.8 0-1.7-.1-2.5-.2-.4-.1-.9-.1-1.3-.1l-.2 0c-.3 0-.5-.1-.8-.1 0 0-.1 0-.3 0-.4.1-.8.1-1.1.1-.7 0-1.3-.1-2-.3h-1.3l-.7-1.3c-.5-.5-.9-1.1-1.2-1.7-.7-1.4-1.1-2.9-1.3-4.4l0-.1c-.3-4.8-.6-9.7-.8-14.6 0-.5-.1-1-.1-1.5 0-.8 0-1.6-.1-2.4l0-.2c0-2.3 0-6.6 0-13 0-2.3-.1-4.6-.4-6.9-.1-1-.2-2-.2-2.9 0-2.1.3-4.7.9-8.2.4-2.5 1.7-3.9 2.7-4.5 1.2-.8 2.5-1.2 4.1-1.2l.1 0 .9 0c.7 0 1.5-.1 2.2-.3.5-.1 1.1-.2 1.6-.3l.2 0H241l.4.1c2.7 1 4.5 1.7 5.5 2.1l0 0c2 .9 4.3 2.5 7 4.9l.1.1c0 0 .1.1.3.2.8.6 1.4 1.3 1.8 2.1l0 .1c.4.8.8 1.7 1.2 2.5l0 0c.7 1.3 1.3 2.7 1.8 4 .6 1.5.9 3.2.9 5 0 .3 0 .6.1.8.3.6.4 1.2.4 1.8 0 1.4-.8 2.8-2.5 4l-.1.1c-.2.2-.4.3-.5.3-.3.8-1 1.4-2.1 2.1.2.1.5.3.7.4 1.5.9 2 2 2.2 2.8.1.1.2.1.3.2l.1.1c.5.4.8.7 1.1 1.1l.1.2c1 1.6 1.6 3.3 1.6 5.1 0 2.9-.6 5.5-1.7 7.7-.3.6-.5 1.2-.7 1.8-.8 2.2-2.3 4-4.3 5.2-.8.6-1.5 1.2-2.1 2l-.1.1c-1.1 1.3-1.7 1.8-2.3 2-2.8 1.1-4.9 1.9-6.2 2.5-.9.5-1.9.7-2.9.8-.4.1-.9.2-1.4.2h-.2l-.6-.1-1.8.5-.2 0c-2.3.3-4.1.5-5.5.6l0 0c-1 .1-2.7.1-5.2.1C224.6 168.8 223.1 169 221.6 169zM218 164.2c.5 0 1.1.1 1.6.1l0 0c.6.1 1.3.1 1.9.1 1.1 0 2.4-.2 3.8-.6l.3-.1h.3c2.5 0 4.3 0 5.2-.1 1.3-.1 3-.3 5.1-.5l2.5-.7 1 .2.4-.2.5 0c.4 0 .9-.1 1.3-.3l.1 0c1.4-.6 3.5-1.5 6.3-2.6.1-.1.4-.4.8-.8.9-1.1 1.9-2 3-2.8l.1-.1.1-.1c1.2-.7 2-1.6 2.4-2.8.3-.8.6-1.5.9-2.2l0-.1c.8-1.6 1.2-3.5 1.2-5.7 0-.8-.2-1.6-.8-2.5 0 0-.1-.1-.2-.2-.9-.7-1.9-1.5-2-2.7 0 0 0 0-.1 0-.7-.4-1.4-.8-2.3-1.1-1.1-.4-2-.9-2.6-1.3l-2.5-1.8 2.4-1.9c.6-.5 1.5-.9 2.7-1.5 1.1-.5 1.7-.8 1.9-.9.5-1 1.3-1.7 2-2.1.2-.2.3-.3.4-.4-.3-.8-.5-1.6-.5-2.5 0-1.2-.2-2.4-.6-3.4-.5-1.2-1-2.4-1.6-3.5-.5-.9-.9-1.8-1.3-2.7-.1-.1-.2-.3-.4-.4l0 0c-.3-.2-.6-.4-.8-.6-2.3-2-4.3-3.4-5.8-4.1-.9-.4-2.5-1-4.9-1.9h-19.9c-.3.1-.7.1-1 .2-1.1.3-2.2.4-3.3.4l-.1 0-.9 0c-.6 0-1.1.1-1.5.4l-.1 0c-.1.1-.5.3-.7 1.4l0 0c-.6 3.1-.8 5.6-.8 7.4 0 .8.1 1.6.1 2.4l0 0c.3 2.4.4 4.9.4 7.4 0 6.3 0 10.6 0 12.9.1.9.1 1.8.1 2.7 0 .4 0 .8.1 1.1l0 .1c.2 4.8.5 9.7.8 14.5.1 1 .4 1.9.8 2.9.1.3.3.5.4.6l0 0 .1.1c.1.1.3.1.5.1 0 0 .2 0 .5-.1l.2 0h.2c.5 0 1 0 1.3.1C217.8 164.2 217.9 164.2 218 164.2zM248.4 159.7C248.4 159.7 248.4 159.7 248.4 159.7 248.4 159.7 248.4 159.7 248.4 159.7zM256.2 128.9C256.2 128.9 256.2 128.9 256.2 128.9 256.2 128.9 256.2 128.9 256.2 128.9zM234.2 153.1c-.6 0-1.3 0-1.9-.1-.7 0-1.4 0-2.1 0H228l-.1-3c0-.1 0-.2 0-.3-.1-.7-.1-1.4-.1-2.1 0-.6 0-1.3.1-1.9-.1-.3-.1-.5-.1-.8 0-.9.4-1.8 1-2.4.8-.8 2-1.2 3.4-1.2 1.1 0 2.2-.1 3.3-.3 1.6-.4 3.2-.2 4.7.6l0 0c1.5.8 2.6 2.1 3.1 3.7l.1.2.1.8v.2c0 .7-.3 1.2-.7 1.8-.5.9-1.1 1.8-1.8 2.6-.9 1-2.1 1.7-3.6 2l-.2 0C236.3 153 235.3 153.1 234.2 153.1zM232.3 148.4c0 0 .1 0 .1 0l.1 0c1.4.1 2.9.1 4.2-.1.4-.1.7-.3 1-.5.4-.5.8-1 1.2-1.6-.2-.2-.4-.4-.6-.6-.5-.3-1.1-.3-1.6-.2l0 0c-1.3.3-2.7.4-4.1.4-.1.6-.1 1.1-.1 1.7C232.3 147.9 232.3 148.2 232.3 148.4zM235.7 132.5h-1.1c-1.3 0-2.6-.2-3.8-.5l0 0c-1.8-.5-3-1.4-3.5-2.6l-.1-.1 0-.1c-.4-1.4-.6-2.9-.6-4.4v-1.6c0-1.6 1.3-2.3 3-3.1l.2-.1.2-.1c1.4-.4 3.1-.6 5.1-.6 1.1 0 2.2.4 3.2 1.2l0 0c1 .8 1.9 1.5 2.9 2.3l0 0c1.5 1.1 1.8 2.4 1.8 3.2 0 .8-.3 2-1.7 3.2l0 0c-.8.7-1.6 1.4-2.4 2.1l-.1.1C238 132.1 236.9 132.5 235.7 132.5L235.7 132.5zM232 127.6c.8.2 1.7.3 2.6.3h1.1c.1 0 .2 0 .4-.1.7-.6 1.4-1.3 2.1-1.8-.9-.7-1.7-1.3-2.6-2-.3-.2-.4-.2-.4-.2-1.5 0-2.7.1-3.7.4-.1.1-.2.1-.3.2v.4c0 .9.1 1.9.3 2.7C231.6 127.5 231.7 127.6 232 127.6zM291.8 169.6c-3.6 0-7.1-.9-10.4-2.6l-.1 0c-.7-.4-1.4-1-2-1.7-.1-.1-.7-.7-2.9-2.4-1.6-1.2-3.1-2.4-4.6-3.8l-.1-.1c-.9-.9-1.8-2.5-3-5.1-.6-1.1-.8-1.6-1-1.7-.3-.4-.5-.8-.7-1.3l0-.1 0-.1c-.2-.8-.6-1.7-1-2.7-1.3-2.5-1.9-4.7-1.9-6.5 0-.6 0-1.2.1-1.8l.1-2.9 0-.2c.4-2 .8-4.1 1.1-6.2l0 0c.3-2.2 1.2-4.8 2.6-7.8.4-.8.8-1.7 1.1-2.5.4-1 .9-1.8 1.7-2.4l2.9-3.5c.5-.9 1.2-1.6 2-2 .5-.3 1-.5 1.5-.7.6-.5 1-1 1.4-1.3l.1-.1c1.7-1.7 3.5-2.6 5.5-2.8l.9-.7h.7l.1-.1.4-.2c1.5-.6 3-.9 4.5-.9.8 0 1.7.1 2.6.3l.3 0c.1 0 .2 0 .3 0l.1 0c.4-.1 1-.1 2.9-.2l.1 0c1 0 1.9.2 2.8.5l.2.1c1.4.6 3 1.1 4.5 1.3l.1 0 .1 0c1.1.3 2.1.8 3.1 1.6.3.2.5.4.8.5.3.2.6.4.9.6.5.3.9.6 1.4.8 1.9.9 3.7 2.3 5.4 4.3 1.8 2 2.9 3.9 3.3 5.7.1.4.3.9.6 1.3 1 1.4 1.9 3.6 2.6 6.6.6 1.9.9 3.9.9 5.8 0 6.2-.4 8.2-.8 9.2-.2.5-.5 1.6-1 4.3-.7 3.4-1.2 4.5-1.7 5.2-.2.3-.3.5-.5.8-.3.5-.5.9-.9 1.4l0 0c-3.2 4.4-7.3 8.1-12.1 10.9l0 0c-2.5 1.4-5 2.3-7.6 2.8C296.7 169.4 294.2 169.6 291.8 169.6zM283.6 163c2.6 1.4 5.4 2.1 8.2 2.1 2.2 0 4.4-.2 6.6-.6 2-.4 4.1-1.1 6.1-2.2 4.2-2.5 7.8-5.7 10.7-9.6.2-.3.4-.6.6-.9l0 0c.2-.4.4-.7.7-1.1l0-.1c0-.1.4-.7 1-3.5.5-2.4.9-4 1.2-4.9.2-.6.5-2.4.5-7.7 0-1.5-.2-3-.7-4.5l0-.2c-.7-3-1.4-4.4-1.8-5l0 0c-.6-.9-1.1-1.8-1.3-2.8l0-.1c-.3-1.1-1-2.4-2.3-3.8-1.3-1.5-2.7-2.6-4-3.2l-.1 0c-.6-.3-1.2-.7-1.8-1.1-.3-.2-.5-.4-.8-.5-.3-.2-.7-.5-1-.7l-.1-.1c-.5-.4-.9-.6-1.4-.8-1.9-.3-3.7-.8-5.4-1.6-.4-.1-.8-.2-1.2-.2-1.5.1-2 .1-2.2.1-.4.1-.9.1-1.3.1l-.1 0-.8 0-.2 0c-.6-.1-1.2-.2-1.7-.2-.8 0-1.6.2-2.4.5-.4.3-1 .6-1.7.7l-1 .7H285c-1 0-2.1.5-3.1 1.5-.5.5-1.1 1.1-1.9 1.8l-.4.3-.5.1c-.4.1-.8.3-1.2.5 0 0-.1.1-.2.3l-.1.2-3.6 4.5-.3.2c0 0-.1.1-.2.4l-.1.2c-.4.9-.8 1.8-1.2 2.8-1.2 2.5-2 4.7-2.2 6.4-.3 2.1-.6 4.3-1.1 6.4l-.1 2.8 0 .1c-.1.4-.1.8-.1 1.2 0 .8.2 2.2 1.4 4.5.6 1.2 1 2.3 1.3 3.4 0 0 0 0 0 0 .3.4.6 1 1.4 2.5l0 .1c1.3 2.6 2 3.6 2.2 3.9 1.3 1.2 2.7 2.4 4.1 3.4l0 0c2.4 1.9 3.2 2.6 3.5 3C283.1 162.7 283.3 162.9 283.6 163zM270.9 149C270.9 149 271 149 270.9 149 271 149 270.9 149 270.9 149zM293.8 149.2h-.1c-1.4 0-2.5-.3-3.4-.9l-.1 0c-2-1.5-3.5-3.2-4.3-5l-.2-.5v-.4l-.2-.3v-.7c0-.3 0-.7.1-1.2 0-.9.1-1.8.1-2.6 0-1.1.2-2.3.7-3.6.4-1.5.8-2.7 1.1-3.5.5-1.3 1.6-2.5 3.1-3.5 1.5-1 3-1.4 4.6-1.4 2.5 0 4.7 1.1 6.4 3.3 1.2 1.5 1.8 3.2 1.8 5 .2 1.1.3 2.6.3 4.7v.5l-.2.5c-.5 1.1-1 2.5-1.3 4.3l0 .2-1.1 2.5-.8.4c-.5.2-1.1.6-1.7 1-1.1.7-2.2 1.1-3.2 1.2L293.8 149.2zM292.9 144.5c.1 0 .3.1.7.1l1.3-.1c.2 0 .6-.1.9-.4.5-.4 1.1-.7 1.6-1l.2-.5c.4-1.8.9-3.3 1.4-4.6 0-2-.1-3-.2-3.6l0-.2v-.2c0-.9-.3-1.7-.9-2.5-.8-1-1.6-1.5-2.7-1.5-.6 0-1.4.2-2.1.7-.9.6-1.2 1.1-1.3 1.3-.3.7-.6 1.8-1 3.2l0 .1c-.4 1.1-.5 1.9-.5 2.3 0 .9 0 1.8-.1 2.9l0 .1c0 .2 0 .3 0 .4.1.2.1.4.1.7C290.8 142.7 291.6 143.6 292.9 144.5zM368.9 168.5H363c-1.7 0-4.1-.7-5.7-4-.3-.6-.7-1.2-1.1-1.9-.7-1.1-1.7-3.1-3-6l0 0c-.3-.7-.6-1.5-1-2.2 0 .4 0 .7 0 1.2 0 .7 0 1.5.1 2.3l0 .2c0 2.2-.9 4.4-2.7 6.5-1.8 2.3-4.4 3.6-7.5 3.6l-.2 0c-2.7-.2-5.4-.5-8-.6l-.1 0c-2.7-.3-4.7-1.3-5.8-2.9-1-1.4-1.5-3.2-1.5-5.4l0 0 0-3c0-1.8 0-3.5-.1-5.3 0-2.4-.1-4.8-.1-7.3 0-1.8 0-3.6.1-5.4.1-1.5.1-3 .1-4.5 0-1.2-.1-2.5-.3-3.7l0-.1 0-1 0-.9 0-4.1c-.1-.9-.1-1.7-.1-2.6 0-1.4.1-2.8.3-4.1l.2-1.7c.5-5.7 1.8-8.6 4.2-9.5l0 0c1-.4 2-.5 2.9-.5.4 0 .8 0 1.2.1.2 0 1.2.1 5.9.1l0 0 1.3 0c.5 0 .9 0 1.3-.1.5-.1.9-.2 1.4-.2 1.2 0 2.4.3 3.6 1 1.5.9 2.6 1.9 3.4 3.2l0 0c1.3 2.1 2.7 4.3 4.1 6.5 0-.1 0-.1 0-.1.1-.7.4-1.4.7-2.3.2-.4.2-.6.3-.7l0-.8c0-1 .1-2 .4-2.9l0 0c.6-1.8 1.8-3.2 3.8-4.3l.1-.1.1 0c.4-.2.9-.3 1.5-.3.2 0 .5 0 .7 0 0 0 .2 0 1 0l2.6 0 .1 0c1 .1 1.5.1 1.7.1.5 0 1 0 1.5.1.3 0 .7.1 1 .1 1.2 0 2.5 0 3.6-.1l.1 0 .1 0c3.6.1 6.1 2.1 6.9 5.6.1.4.2.9.4 1.3.6 1.7.8 4.2.8 7.6.2 1.2.3 2.4.3 3.5 0 .9-.1 1.8-.2 2.8-.1.8-.1 1.6-.1 2.4l0 2.5c0 .1 0 .5.2 1.4.2 1 .3 2 .3 2.9l0 .1c0 2.7-.1 5.4-.3 8.1 0 .6-.1 1.1-.1 1.7 0 .8 0 1.6.1 2.4.1.9.1 1.8.1 2.7 0 1.6-.1 3.2-.2 4.8-.1.8-.1 1.7-.2 2.5 0 .5-.1 1-.2 1.5l0 .1c-.1.4-.1.8-.1 1.3l0 .1c-.1 1.7-.7 3.4-2 5.1-1.7 2.5-3.9 3-5.4 3.1-1.6.1-3.1.1-4.7.1C370.6 168.5 369.8 168.5 368.9 168.5L368.9 168.5zM357.4 154.9c1.5 3.3 2.3 4.8 2.7 5.4.5.7.9 1.5 1.3 2.2l0 0c.7 1.5 1.4 1.5 1.7 1.5h5.7c.9 0 1.8-.1 2.6-.1 1.5 0 3 0 4.5-.1l.1 0c.5 0 1.1-.1 1.7-1.1.7-1 1.1-1.9 1.1-2.7 0-.7.1-1.4.2-2 0-.3.1-.6.1-.9 0-.9.1-1.8.2-2.7.1-1.5.2-2.9.2-4.3 0-.8 0-1.5-.1-2.3-.1-.9-.1-1.9-.1-2.8 0-.7 0-1.4.1-2.1l0 0c.2-2.6.3-5.2.3-7.7 0-.7-.1-1.4-.3-2.1-.2-1-.3-1.8-.3-2.4l0-2.5c0-1 .1-2 .2-2.9.1-.8.1-1.5.1-2.3 0-.9-.1-1.9-.2-2.9l0-.2v-.2c0-3.7-.3-5.5-.6-6.4l0-.1c-.2-.6-.3-1.1-.4-1.7-.3-1.4-1-2-2.5-2.1-1.2.1-2.5.1-3.8.1-.5 0-1.1 0-1.6-.1-.3 0-.6-.1-.9-.1-.4 0-1.1 0-2-.1l-2.4 0c-.9 0-1.3 0-1.5 0 0 0-.1 0-.1 0-.7.5-1.2 1-1.4 1.5-.1.5-.2 1-.2 1.6l0 .9c0 .6-.2 1.3-.6 2.3-.2.6-.4 1.1-.5 1.6-.1.5-.4 1.4-1.5 4l-1.2 6.1-3-4.7c-.7-1.1-1.4-2.1-2.1-3.2-1.7-2.4-3.2-4.9-4.7-7.3-.4-.7-1-1.2-1.8-1.7-.5-.3-.9-.4-1.3-.4-.1 0-.3 0-.4 0-.7.2-1.5.3-2.3.3l-.1 0-1.3 0c-4.9 0-6-.1-6.4-.1l0 0c-.2 0-.5 0-.7 0-.4 0-.8.1-1.3.2-.2.2-1 1.3-1.4 5.7l-.2 1.9c-.2 1.2-.2 2.3-.2 3.5 0 .8 0 1.5.1 2.3l0 .2 0 4.3 0 .9 0 .5c.2 1.4.4 2.9.4 4.3l0 0 0 0c0 1.6-.1 3.1-.1 4.7-.1 1.7-.1 3.4-.1 5.1 0 2.4 0 4.8.1 7.2 0 1.8.1 3.7.1 5.4l0 0 0 3c0 1.2.2 2.1.7 2.8.3.4 1.2.8 2.5.9 2.6.2 5.3.4 8 .6 1.7 0 2.9-.6 3.8-1.8l.1-.1c1.1-1.3 1.6-2.4 1.6-3.6-.1-.8-.1-1.7-.1-2.5 0-2.1.1-3.6.3-4.7.6-2.8 2.2-3.3 3.1-3.3 1.5 0 3.5.7 4.9 4.1C356.5 152.8 357 153.8 357.4 154.9zM357.4 113 357.4 113 357.4 113zM407.6 168.7c-1.4 0-2.4-.2-3.3-.5l-.1 0-6.4-.2c-.5 0-1.1 0-1.6 0-.2 0-.4 0-.6.1l-.4.2-.5 0c-.6 0-1.1-.1-1.6-.1-2.1 0-5.8-1-6.3-7.9l0-.1-.1-3.1c-.1-3-.2-6-.2-9.1 0-3.4.2-6.8.5-10.2l.4-4.5c0-.2 0-.5-.1-.7-.1-.6-.2-1.1-.2-1.6l0-.4c.1-1.4.2-2.8.2-4.2l0 0c.1-3.7.4-6.6 1-8.8.2-.9.4-1.9.4-2.8l0-.1.2-1.9c.5-3.8 2.7-6.2 6-6.8l.2 0h.2c.6 0 1.1.1 1.8.2l.1 0c.5.1 1 .2 1.4.2h.3l.3.1c.9.2 1.7.3 2.1 0 .5-.3 1.1-.6 1.8-.7l.1 0 .3 0c.9-.2 1.8-.2 2.8 0 1.1-.2 2.3-.3 3.6-.3 1.5 0 3.2.1 5 .4.5 0 1.1.1 1.7.2 1 0 2.1.1 3.2.2 1.2.1 3.3.4 6.1.7l.1 0c2.2.4 3 .5 3.2.6l1-.1c2.2 0 4 .8 5.4 2.4 1.1 1.2 1.6 2.7 1.6 4.3 0 .7-.1 1.5-.4 2.3l0 .1 0 .1c-.1.3-.2.6-.2.9 0 .6 0 1.2-.1 1.8.1.4.2.9.2 1.4 0 .4-.1.7-.2 1v1.7c0 .3 0 .6.1.9.2.7.2 1.2.2 1.8 0 1-.3 2.4-1.8 3.6-.9.7-1.7 1.2-2.5 1.5-.8.3-1.5.5-2.2.5-.6 0-1.3-.1-1.9-.3l-.1 0c-.7-.2-1.3-.4-1.9-.6.1.3.1.7.1 1 0 .7-.1 1.4-.4 2.2-.1.3-.1.5-.1.7 0 .2.1.4.2.6.4.6.6 1.4.6 2.1v.2l0 .2c-.1.7-.2 1.5-.2 2.2l0 0c0 1-.1 2.1-.3 3.1 0 .4-.1.7-.2 1 .5-.5 1.3-.8 2.1-.8 1 0 2 .3 3.1.8l.1 0c.8.4 1.5 1 2.1 1.6 1.8 2.1 2.6 4.6 2.6 7.4l0 .1c0 1-.1 2-.2 3l0 0c-.1.7-.1 1.5-.1 2.3 0 1 .2 1.8.5 2.6l0 .1c.2.5.3 1 .3 1.5 0 .8-.3 2.1-1.5 3.4-1.1 1.1-2.4 1.8-3.9 2.2l-.3.1-.3 0c-.6 0-1.2-.1-1.8-.2-.5 0-1 0-1.4 0 0 0-.1 0-.1 0l-.4.2-.4.1c-.9.1-1.6.2-2.1.3-.8.1-1.1.1-1.3.1-.8 0-1.9 0-3.5.1-1.7.1-3.1.1-4.1.1-.9 0-1.8-.1-2.7-.2l-.4-.1-.1 0c-.3 0-.7 0-1.1.1C409.8 168.6 408.6 168.7 407.6 168.7zM406.1 164c.1 0 .4.2 1.5.2.8 0 1.8-.1 3-.2l.1 0c.7-.1 1.3-.1 1.8-.1.4 0 .8.1 1.2.2.6.1 1.1.1 1.7.1 1 0 2.3 0 3.9-.1 1.7-.1 2.9-.1 3.7-.1 0 0 .2 0 .7-.1.5-.1 1.1-.1 1.8-.2.6-.2 1.2-.4 1.8-.4.4 0 .9 0 1.4-.1l.4 0 .4.1c.3.1.6.1.8.2.6-.2 1-.5 1.4-.9l0 0c.1-.1.1-.1.2-.2-.5-1.3-.7-2.7-.7-4.1 0-.9 0-1.8.1-2.7.1-.9.1-1.8.2-2.6 0-1.8-.5-3.2-1.6-4.5-.2-.2-.4-.4-.7-.5-.1-.1-.3-.1-.4-.2-.4.4-.9.8-1.4 1-.3.1-.6.3-.9.5-.6.4-1.1.7-1.6.9l-.3.1-.3 0c-1 .1-1.9.3-2.7.5-1.1.3-2 .4-2.8.4l-.3 0-.2 0c-.1 0-.3 0-.6 0-.9.1-1.7.2-2.5.2-.4 0-1 0-1.6-.1-.5 0-1-.1-1.7-.1-.5 0-1 0-1.5-.1-.2 0-.4-.1-.6-.1-.3 0-.7 0-1-.1-.7-.1-1.6-.6-2.3-2l-.1-.2c-.2-.6-.3-1.1-.3-1.6 0-.9.3-2.3 1.8-3.4.8-.6 1.7-1 2.7-1 .6 0 1.2.1 1.7.3l.2.1.2.1c.1.1.5.2 1.4.2.6 0 1.1 0 1.4-.1.5-.1 1-.1 1.5-.1.4 0 .9 0 1.5 0l.1 0 .1 0c.5 0 1.1.1 1.7.1.1 0 .3 0 .8-.1.1 0 .1 0 .2-.1.1-.2.1-.5.2-.9.1-.9.2-1.8.2-2.7 0-.7.1-1.5.2-2.2-.5-.9-.8-1.9-.8-2.9 0-.7.1-1.4.3-2l-.3-.1c-.7-.1-1.3-.2-1.9-.2 0 0 0 0 0 0-.5.2-1.1.4-1.6.4h-.3c-.4 0-.8 0-1.4-.1-1.2.1-2.1 0-2.9-.1-.6.1-1.2.2-1.8.2-.9 0-2.1-.2-3.6-.6l-2.8-.8 1.4-2.5c0 0 .1-.2.3-.8.3-.9.5-1.3.6-1.5.6-1 1.4-1.3 1.9-1.4l.2 0 2.1 0c4.3 0 5.6.1 6.2.2l.3.1.3.1c.1.1.2.1.3.1l.3 0 .2 0c.8.1 1.7.1 2.5.1 2.3 0 5 .5 7.9 1.5.2.1.4.1.5.1 0 0 .2 0 .6-.2.2-.1.6-.3 1.2-.8.1-.1.2-.1.2-.2 0-.1 0-.4-.1-.7-.1-.6-.2-1.3-.2-2v-3.1l-.1-.3.1-.7c.1-.6.1-1.2.1-1.8 0-.9.2-1.7.5-2.5.1-.4.1-.7.1-1 0-.5-.1-.9-.5-1.2l0 0c-.5-.6-1.1-.8-1.9-.8l-1 .1c-.3 0-.6 0-4-.6-2.8-.3-4.8-.6-6-.7l-.1 0c-1-.1-1.9-.2-2.9-.2H416l-.3-.1c-.4-.1-.7-.1-1-.1h-.2l-.2 0c-3.2-.4-5.8-.5-7.7-.1l-.6.1-.6-.2c-.3-.1-.6-.1-.9 0l-.2.1-.3.1c-.1 0-.2 0-.2.1l0 0-.1.1c-1.5.9-3.4 1.1-5.4.6-.6 0-1.3-.1-2-.2-.3 0-.5-.1-.7-.1-.9.2-1.8.8-2.1 2.9l-.2 1.8c-.1 1.2-.3 2.4-.6 3.6l0 .1c-.5 1.8-.8 4.4-.9 7.7 0 1.5-.1 3-.2 4.5v.1c0 .2 0 .4.1.7.1.6.2 1.2.2 1.7l0 .2-.4 4.7c-.3 3.3-.5 6.6-.5 9.8 0 3 .1 5.9.2 8.9l0 0 .1 3.1c.3 3.7 1.4 3.7 1.8 3.7.5 0 1 0 1.5 0 .5-.1 1.1-.2 1.6-.2.6 0 1.2 0 1.8 0l5.6.2C404.5 163.5 405.3 163.6 406.1 164zM423 163.9C423 163.9 423 163.9 423 163.9 423 163.9 423 163.9 423 163.9zM410.8 147.4 410.8 147.4 410.8 147.4zM409.8 146.5C409.8 146.5 409.9 146.5 409.8 146.5 409.9 146.5 409.8 146.5 409.8 146.5zM422.8 132.2 422.8 132.2 422.8 132.2zM461.7 169h-.1c-.8 0-1.8-.1-3.1-.4l-.6.3-.9-.3c-.2-.1-.4-.1-.5-.1l-.5.2-.7-.2c-.2-.1-.4-.1-.5-.1-.9 0-1.8-.1-2.6-.4l-1-.2-.2-.1c-.5-.2-.7-.3-.8-.3l-.8.1-.5-.2c0 0 0 0 0 0-1.8 0-3.3-.9-4.2-2.4-.8-1.2-1.2-2.4-1.2-3.6 0-1 .3-2 1-3l0-.1c0 0 0 0 0-.1.1-2.2.7-4.4 2-6.4.2-.3.3-.6.3-1l0 0c.1-.5.2-1.1.3-1.6l.1-.2c.7-1.8 1.8-3.1 3.4-3.9l-.3 0-.3-.1c-1.3-.3-2.4-.8-3.3-1.5-1-.6-1.8-1.5-2.4-2.6-.3-.4-.5-.8-.8-1.2-1-1.4-1.9-2.9-2.4-4.5-.5-1.4-.9-3-1.3-4.6-.2-.7-.3-1.3-.3-1.8 0-.9.1-1.6.2-2.2 0-1.1.2-2.1.6-2.8.1-.3.2-.6.2-.9l0-.5.2-.4c.5-1 1.2-2.2 2-3.7 2.1-3.6 4.4-6.2 7.1-7.6 2.1-1.2 4.3-2.2 6.6-3 2.4-.9 4.9-1.3 7.5-1.4l2.7-.1c2.1-.2 4.2-.2 6.3-.1l.1 0c2 .2 3.9.7 5.8 1.4 1.4.4 2.7 1 3.9 1.5l1.5.6c3.1 1.4 3.5 3.6 3.5 4.8 0 1-.3 2-.8 3l-.1.1-.1.1c-.1.1-.2.3-.2.3-1.7 6.7-2.1 8.7-2.2 9.2l0 .3c0 1.2-.4 2.1-1.2 2.7l-.1.1-.1.1c-.6.3-1.3.4-2.2.4-.1 0-.2 0-.3 0 .4.2.8.5 1.3.8l.1 0c.3.2.6.4.8.5 1.3.5 2.3 1.1 3 1.9l.1.1c1.5 1.9 2.2 2.8 2.6 3.2.2 0 .3.1.5.2l.6.3.4.6c.9 1.3 1.1 1.8 1.3 2.3.5 1.4.8 3.5.9 6.7l0 .1 0 .1c0 1.1-.2 2.2-.5 3.4-.1.4-.2.9-.3 1.3-.4 2.6-1.6 4.9-3.5 6.7-.2.2-.4.4-.4.4-.5 2.1-1.6 3.6-3.1 4.7-1.2.8-2.5 1.6-4 2.3l-1 .7-.2.1c-1.8.9-3.6 1.3-5.2 1.3l0 0-2.4 0c-.1 0-.2 0-.3 0-1.5.5-2.8.7-4 .7l0 0-2.5 0-.3-.1c-.2 0-.4 0-1 0-.5.1-1 .2-1.4.3L461.7 169zM448.8 167.1 448.8 167.1 448.8 167.1zM458.5 164h.2l.5.1.1 0c1.2.3 1.9.4 2.2.4.3 0 .5-.1.8-.2l.4-.1.4 0c.9.1 1.1.1 1.2.1.3 0 .6 0 .9.1l1.7 0c.4 0 1.3-.1 2.6-.5l.1 0c.5-.1 1.1-.2 1.6-.2l0 0 2.5 0c.9 0 1.9-.3 3.1-.8l1-.7.1-.1c1.4-.7 2.6-1.3 3.6-2 .6-.4 1-1.1 1.3-2.2l0-.1c.2-.8.8-1.6 1.7-2.4 1.2-1.1 1.9-2.4 2.1-4l0-.1c.1-.6.2-1.1.4-1.7l0 0c.2-.7.3-1.5.3-2.2-.2-3.6-.6-5-.7-5.5v0c0 0-.1-.1-.1-.2h-.1l-.6-.5c-.4-.3-1.2-1.1-3.6-4.3-.1-.1-.4-.4-1.1-.6-.7-.3-1.4-.6-2-1.1-1.2-.8-2.2-1.4-3.1-1.6l-.1 0c-5.9-1.8-7.6-2.9-8.3-4l-.8-1.4.8-2.2.5-.4c.9-.8 1.9-1.2 3-1.2.5 0 .9.1 1.4.2l.2.1.2.1c2.7 1.4 4.2 1.7 4.9 1.7.5 0 1-.1 1.5-.2l.2 0c.2 0 .4-.1.6-.1.2-1 .8-3.4 2.3-9.5l0-.1.1-.1c.2-.4.4-.9.7-1.3.2-.4.2-.7.2-.7 0-.2-.4-.5-.8-.7l-1.5-.7c-1-.5-2.2-.9-3.4-1.3l-.1 0c-1.5-.6-3.1-.9-4.7-1.1-.8 0-1.6-.1-2.3-.1-1.1 0-2.2 0-3.4.1l-.1 0-2.8.1c-2.1.1-4.2.5-6.1 1.2-2 .7-4 1.6-5.9 2.7-1.9 1-3.7 3-5.3 5.8-.7 1.2-1.2 2.2-1.7 3.1-.1.7-.3 1.3-.6 1.9-.1.1-.2.5-.2 1.3l0 .3-.1.3c0 0-.1.3-.1 1.3 0 0 0 .2.1.6l0 .1c.4 1.5.8 2.9 1.2 4.2.4 1.1 1 2.2 1.7 3.2.4.5.7 1.1 1.1 1.6l.1.1c.3.5.6.9.9 1l.2.1.2.2c.2.2.6.4 1.1.5l.4 0c.6 0 1.1.2 1.7.6.4.2.8.4 1.3.6l0 0c.7.3 1.3.5 2 .6 1.6.1 3.3.6 5.1 1.7l.1 0c.8.5 1.7.8 2.6 1.1 1.1.2 2.1 1 2.8 2.3l.2.3.1.3c.1.5.2.8.2 1.2 0 .7-.3 1.4-.7 1.8l-.1.1-.1.1c-.8.7-1.9 1-3 1-.3 0-.6 0-.9-.1l-.2-.1c-2.3-.8-4.6-1.8-6.8-2.9-.4-.2-.7-.2-1.1-.2-1.6 0-2.2.6-2.6 1.6-.1.3-.1.5-.1.8-.1 1.1-.4 2.1-1 3-.8 1.3-1.3 2.7-1.3 4.2l0 .2c-.1.9-.4 1.7-.9 2.4-.1.2-.2.3-.2.3 0 .1 0 .4.5 1l.1.1c.2.3.3.3.4.3.4 0 .8.1 1.2.2l.1 0c.7 0 1.5.2 2.4.6l.9.2.1 0c.4.1.8.2 1.3.2.4 0 .7 0 1.1.1.6-.1 1.1 0 1.9.2C458 164 458.3 164 458.5 164zM487.2 159.3C487.2 159.3 487.2 159.3 487.2 159.3 487.2 159.3 487.2 159.3 487.2 159.3zM480.9 126.1 480.9 126.1 480.9 126.1z"/></g><g class="st4"><path class="st3" d="M7.2 87.1 26 68.8c0 1.3 1 2.3 2.3 2.3L9.4 89.4C8.2 89.3 7.2 88.3 7.2 87.1zM32.2 105.9l18.9-18.3c0 1.3 1 2.3 2.3 2.3l-18.9 18.3C33.2 108.2 32.2 107.1 32.2 105.9z"/><path class="st3" d="M9.4 89.4 28.3 71.1 44.4 71.4 25.5 89.7zM32.3 96.6 51.1 78.3 51.1 87.6 32.2 105.9zM34.5 108.2 53.3 89.9 63.5 90.1 44.6 108.4z"/><path class="st3" d="M64.4,89.8l-18.9,18.3c-0.3,0.3-0.5,0.3-0.9,0.3l18.9-18.3C63.9,90.1,64.1,90.1,64.4,89.8z"/><path class="st5" d="M64.5,89.7C64.4,89.8,64.4,89.8,64.5,89.7l-18.9,18.3c0,0,0,0,0.1-0.1C51.9,101.9,58.2,95.8,64.5,89.7z"/><path class="st5" d="M64.7,89.5c-0.1,0.1-0.1,0.2-0.2,0.3c-6.3,6.1-12.6,12.2-18.9,18.3c0.1-0.1,0.1-0.2,0.2-0.3 C52.1,101.6,58.4,95.5,64.7,89.5z"/><path class="st5" d="M64.7 89.5c-.1.2-.4.4-.5.5-1.3 1.3-2.7 2.6-4 3.9-1.5 1.5-3 2.9-4.6 4.4-3.2 3.1-6.5 6.3-9.7 9.4.1-.1.2-.3.3-.4.7-.6 1.5-1.5 2.2-2.1.7-.7 1.6-1.6 2.3-2.3.7-.7 1.7-1.6 2.4-2.3.7-.7 1.7-1.7 2.5-2.4 3.1-3.1 6.3-6.1 9.4-9.2C64.8 89.2 64.8 89.3 64.7 89.5zM64.9 89C64.9 89 64.9 89 64.9 89c-6.3 6.1-12.6 12.2-18.9 18.3 0 0 0 0 0 0C52.4 101.2 58.6 95.1 64.9 89z"/><path class="st3" d="M25.5,89.7l18.9-18.3c3.8,0.1,6.8,3.1,6.8,7L32.3,96.6C32.3,92.8,29.4,89.7,25.5,89.7z"/><path class="st5" d="M64.9 89C64.9 89 64.9 89 64.9 89 64.9 89 64.9 89.1 64.9 89 64.9 89.1 64.9 89.1 64.9 89c-.1.1-.1.1-.1.1 0 0 0 0 0 0 0 0-.1.1-.1.1-6.2 6-12.4 12-18.6 18.1.2-.3.4-.7.6-1.3.1-.2.2-.4.3-.6 6.3-6.1 12.6-12.2 18.9-18.3-.1.2-.2.4-.3.6C65.3 88.3 65.1 88.7 64.9 89zM65.8 87.1c-.1.2-.3.3-.5.4-1.2 1.1-2.3 2.3-3.5 3.4-1.3 1.3-2.6 2.5-3.9 3.8-3.7 3.6-7.3 7.1-11 10.7.1-.1.1-.3.2-.4.2-.5.5-1.1.8-1.7.5-.5 1.2-1.2 1.7-1.7.5-.5 1.3-1.2 1.8-1.8.6-.6 1.3-1.3 1.9-1.8.6-.6 1.4-1.3 1.9-1.9.6-.6 1.4-1.3 1.9-1.9.6-.6 1.3-1.3 1.9-1.9.6-.5 1.3-1.3 1.8-1.8.5-.5 1.2-1.2 1.7-1.7.1-.1.3-.3.5-.4.1-.1.3-.3.5-.5.2-.1.4-.3.5-.5.2-.2.4-.4.5-.5.2-.2.4-.4.5-.5.2-.2.4-.4.5-.5.2-.1.4-.3.5-.5.1-.1.3-.3.5-.5-.3.6-.6 1.1-.8 1.7C65.9 86.9 65.9 87 65.8 87.1z"/><path class="st5" d="M66.8,85.1c-0.1,0.1-0.2,0.2-0.2,0.2c-0.1,0.1-0.3,0.3-0.5,0.5c-0.4,0.4-0.9,0.8-1.3,1.3 c-0.7,0.6-1.3,1.3-2,1.9c-5,4.8-9.9,9.6-14.9,14.4c0.9-1.7,1.8-3.6,2.3-4.6c6.3-6.1,12.6-12.2,18.9-18.3 C68.7,81.5,67.7,83.3,66.8,85.1z"/><path class="st5" d="M69.1,80.5c-0.1,0.1-0.2,0.2-0.3,0.3c-0.6,0.6-1.3,1.2-1.9,1.8c-3.2,3.1-6.4,6.2-9.6,9.3 c-2.3,2.3-4.7,4.5-7,6.8c0.2-0.3,0.3-0.6,0.3-0.6l18.9-18.3C69.4,79.9,69.3,80.2,69.1,80.5z"/><path class="st3" d="M66,91.5l-18.9,18.3c0.9-0.9,1.4-2.3,2.1-3.7c1.2-2.6,3.3-6.6,3.4-6.8L71.5,81 c-0.1,0.2-2.2,4.2-3.4,6.8C67.4,89.1,66.9,90.6,66,91.5z"/><path class="st3" d="M54.7,98.3L73.5,80c0.1,0.2,2,4.4,3,7c0.4,1,0.8,2.1,1.3,2.7c0.4,0.5,0.7,0.6,1.1,0.6l-18.9,18.3 c-0.4,0-0.7-0.1-1.1-0.6c-0.5-0.7-0.9-1.8-1.3-2.7C56.7,102.7,54.8,98.5,54.7,98.3z"/><path class="st5" d="M52.7 94 71.6 75.7 69.4 79.9 50.6 98.2z"/><path class="st3" d="M52.7 94 71.6 75.7 73.5 80 54.7 98.3zM60.1 108.6 79 90.4 89.1 90.5 70.3 108.8zM90.2 90.2l-18.9 18.3c-.3.3-.6.4-1 .4l18.9-18.3C89.6 90.5 89.9 90.5 90.2 90.2zM7.8 27.7 26.6 9.4 26 68.8 7.2 87.1z"/><path class="st5" d="M50.9,63.4c3.7,0.1,7.2-1.4,10.1-4.3L42.2,77.4c-2.9,2.8-6.4,4.3-10.1,4.3c-4.8-0.1-9.3-2.8-12.5-7.7 c-3.1-4.6-4.7-10.7-4.7-17.1c0.1-6.4,1.8-12.4,5-17c0.8-1.1,1.7-2.2,2.6-3l18.9-18.3c-0.9,0.9-1.8,1.9-2.6,3 c-3.2,4.5-4.9,10.6-5,17c-0.1,6.4,1.6,12.5,4.7,17.1C41.6,60.6,46.1,63.3,50.9,63.4z"/><path class="st3" d="M59.5,57.4L40.6,75.7c-2.5,2.4-5.4,3.7-8.6,3.7l18.9-18.3C54.1,61.2,57,59.8,59.5,57.4z"/><path class="st5" d="M91.4,88c-0.5,1.2-0.9,1.8-1.2,2.2l-18.9,18.3c0.4-0.3,0.7-1,1.2-2.2c0.6-0.6,1.5-1.4,2.1-2 c0.7-0.6,1.6-1.5,2.2-2.2c0.7-0.7,1.6-1.6,2.3-2.2c0.7-0.7,1.6-1.6,2.4-2.3c0.7-0.7,1.7-1.6,2.4-2.3 c0.7-0.7,1.6-1.6,2.3-2.2c0.7-0.6,1.6-1.5,2.2-2.2c0.6-0.6,1.5-1.4,2.1-2c0.1-0.1,0.3-0.3,0.4-0.4c0,0,0.1-0.1,0.1-0.1 c0,0,0.1-0.1,0.1-0.1c0,0,0.1-0.1,0.1-0.1C91.4,88.1,91.4,88.1,91.4,88z"/><path class="st5" d="M91.4,88c0,0-0.1,0.1-0.1,0.1c-0.1,0.1-0.2,0.2-0.3,0.3c-0.1,0.1-0.3,0.3-0.4,0.4 c-6,5.8-12,11.6-18,17.4c0,0,0,0,0-0.1c0.1-0.1,0.1-0.3,0.2-0.4c4.4-4.3,8.9-8.6,13.3-12.9c1.8-1.8,3.7-3.6,5.5-5.3 C91.6,87.7,91.5,87.8,91.4,88C91.4,88,91.4,88,91.4,88z"/><path class="st5" d="M91.7,87.5c-0.2,0.2-0.5,0.4-0.6,0.6c-0.1,0.1-0.2,0.2-0.3,0.3c-0.1,0.1-0.2,0.2-0.3,0.3 c-0.5,0.5-0.9,0.9-1.4,1.4c-0.9,0.9-1.8,1.8-2.8,2.7c-4.4,4.3-8.9,8.6-13.3,12.9c0.1-0.1,0.1-0.2,0.2-0.3c1-2,2.3-5,2.9-6.2 c6.3-6.1,12.6-12.2,18.9-18.3c-0.5,1.2-1.9,4.2-2.9,6.2C91.8,87.3,91.7,87.4,91.7,87.5z"/><path class="st5" d="M94.7,81c-0.1,0.1-0.3,0.3-0.4,0.4c-0.4,0.4-0.8,0.7-1.1,1.1c-0.1,0.1-0.2,0.2-0.2,0.2 c-0.6,0.6-1.2,1.1-1.7,1.7c-5.1,5-10.2,9.9-15.3,14.9c0.1-0.3,0.2-0.5,0.2-0.5l18.9-18.3C94.9,80.5,94.8,80.7,94.7,81z"/><path class="st3" d="m91.8 91.8-18.9 18.3c.9-.9 1.5-2.3 2.1-3.6 1.2-2.6 3-6.6 3.1-6.8L97 81.4c-.1.2-1.9 4.2-3.1 6.8C93.2 89.6 92.7 90.9 91.8 91.8zM8.4 26.1 27.3 7.8c-.4.4-.7 1-.7 1.6L7.8 27.7C7.8 27 8 26.5 8.4 26.1z"/><path class="st3" d="M80.2,98.7L99,80.4c0.1,0.2,2.1,4.3,3.3,6.9c0.6,1.2,1,2.2,1.6,2.9c0.4,0.6,0.7,0.6,0.9,0.6l-18.9,18.3 c-0.2,0-0.5,0-0.9-0.6c-0.5-0.6-1-1.6-1.6-2.9C82.3,103,80.3,98.9,80.2,98.7z"/><path class="st5" d="M27.3,7.8c0.4-0.4,1-0.6,1.6-0.6L10.1,25.4c-0.6,0-1.2,0.2-1.6,0.6C14.1,20.6,21.6,13.3,27.3,7.8z"/><path class="st3" d="M24,38.5l18.9-18.3C38.8,24.2,36,30.9,36,38.6c-0.1,12.3,6.6,22.4,15,22.5L32.1,79.4 c-8.4-0.1-15.1-10.2-15-22.5C17.2,49.2,19.9,42.5,24,38.5z"/><path class="st5" d="M78 94.3 96.9 76 94.9 80.5 76 98.7z"/><path class="st3" d="M78 94.3 96.9 76 99 80.4 80.2 98.7zM6.9 24.4 25.7 6.2c.8-.8 2-1.3 3.2-1.3L10.1 23.2C8.8 23.1 7.7 23.6 6.9 24.4z"/><path class="st5" d="M86.3,64C80,70.1,73.7,76.2,67.4,82.3c-0.6-0.4-1.3-0.8-1.8-0.8c-0.4,0-1,0.2-1.6,0.6 c0.4-0.4,0.9-0.8,1.2-1.2c0.4-0.4,0.9-0.9,1.3-1.3c0.4-0.4,1-0.9,1.4-1.3c0.4-0.4,1-0.9,1.4-1.3c0.4-0.4,1-0.9,1.4-1.3 c0.4-0.4,1-0.9,1.4-1.3c0.4-0.4,0.9-0.9,1.3-1.3c0.4-0.4,0.9-0.8,1.2-1.2c0.3-0.3,0.7-0.7,1-0.9c0.3-0.3,0.7-0.7,1-1 c0.3-0.3,0.7-0.7,1.1-1c0.3-0.3,0.8-0.7,1.1-1c0.3-0.3,0.8-0.7,1.1-1c0.3-0.3,0.7-0.7,1.1-1c0.3-0.3,0.7-0.7,1-1 c0.3-0.3,0.7-0.7,1-0.9c0.6-0.3,1.1-0.6,1.6-0.6C85,63.3,85.6,63.6,86.3,64z"/><path class="st3" d="M85.9 109.1 104.8 90.8 114.8 91 96 109.3z"/><path class="st5" d="M82.9,63.8C76.6,69.9,70.4,76,64.1,82.1c-0.4,0.2-0.9,0.5-1.2,0.7c-1.1,0.7-2.2,1.4-3.4,1.4 c-0.9,0-1.8-0.5-2.4-1.2c-1.3-1.7-1.1-4.3,0.3-7.2c0.7-1.3,1.8-3,3.2-4.3l18.9-18.3c-1.4,1.3-2.5,3-3.2,4.3 c-1.5,2.9-1.6,5.4-0.3,7.2c0.6,0.8,1.4,1.2,2.4,1.2c1.2,0,2.3-0.7,3.4-1.4C82.1,64.3,82.5,64,82.9,63.8z"/><path class="st3" d="M116.4,90.3l-18.9,18.3c-0.4,0.4-1,0.6-1.6,0.6L114.8,91C115.4,91,116,90.8,116.4,90.3z"/><path class="st5" d="M90.7,66.2c0.8,0,1.6-0.3,2.1-0.8L73.9,83.6c-0.6,0.5-1.3,0.8-2.1,0.8c-1.2,0-2.3-0.7-3.4-1.5 c-0.3-0.2-0.6-0.4-1-0.6C73.7,76.2,80,70.1,86.3,64c0.3,0.2,0.7,0.4,1,0.6C88.4,65.4,89.4,66.1,90.7,66.2z"/><path class="st3" d="M62.1,73.1L81,54.9c-2.5,2.5-4.6,6.6-3.3,8.5c0.1,0.2,0.3,0.3,0.6,0.3c1.3,0,3.8-2.7,6.2-2.7 c2.4,0,4.9,2.9,6.2,2.9c0.2,0,0.4-0.1,0.5-0.2L72.3,82c-0.1,0.1-0.3,0.2-0.5,0.2c-1.3,0-3.7-2.9-6.2-2.9 c-2.4,0-4.9,2.7-6.2,2.7c-0.2,0-0.4-0.1-0.6-0.3C57.5,79.8,59.6,75.6,62.1,73.1z"/><path class="st5" d="M116.9,89.6c-0.1,0.3-0.3,0.5-0.5,0.7l-18.9,18.3c0.2-0.2,0.4-0.4,0.5-0.7 C104.4,101.8,110.6,95.7,116.9,89.6z"/><path class="st5" d="M117.1,88.7c0,0.3-0.1,0.6-0.2,0.9c-6.3,6.1-12.6,12.2-18.9,18.3c0.1-0.3,0.2-0.6,0.2-0.9 C103.9,101.5,111.5,94.2,117.1,88.7z"/><path class="st3" d="m60.6 71.5 18.9-18.3c1.5-1.5 3.3-2.6 5.2-2.6L65.8 68.9C63.9 68.9 62.1 70 60.6 71.5zM22.4 36.8l18.9-18.3c2.9-2.9 6.5-4.4 10.1-4.3L32.5 32.6C28.8 32.5 25.3 34 22.4 36.8z"/><path class="st3" d="M65.8,68.9c3.5,0.1,6.9,4.3,8.3,7.2c1.4,2.9,1.5,5.5,0.2,7.2c-0.6,0.7-1.5,1.2-2.4,1.2 c-1.2,0-2.3-0.7-3.4-1.5c-0.9-0.6-2-1.4-2.8-1.4c-0.7,0-1.9,0.7-2.8,1.3c-1.1,0.7-2.2,1.4-3.4,1.4c-0.9,0-1.8-0.5-2.4-1.2 c-1.3-1.7-1.1-4.3,0.3-7.2C58.8,73,62.2,68.9,65.8,68.9z M72.4,81.9c2.1-2.7-3.3-10.6-6.7-10.7c-3.4-0.1-8.9,7.7-6.9,10.4 c0.1,0.2,0.3,0.3,0.6,0.3c1.3,0,3.8-2.7,6.2-2.7c2.4,0,4.9,2.9,6.2,2.9C72,82.2,72.2,82.1,72.4,81.9"/><path class="st3" d="M92.8,65.3L73.9,83.6c0.1-0.1,0.2-0.2,0.3-0.3c1.3-1.7,1.2-4.2-0.2-7.2c-1.4-2.8-4.7-7.1-8.3-7.2 l18.9-18.3c3.5,0.1,6.9,4.3,8.3,7.2c1.4,2.9,1.5,5.5,0.2,7.2C93,65.1,92.9,65.2,92.8,65.3z"/><path class="st5" d="M98.3 97.8 117.2 79.5 117.1 88.7 98.3 107z"/><path class="st3" d="m118 92-18.9 18.3c.8-.8 1.4-1.9 1.4-3.2 0-.3.1-6.9.1-9.3l18.9-18.3c0 2.3-.1 8.9-.1 9.3C119.4 90 118.8 91.2 118 92zM61.1 59.1 42.2 77.4c.9-.9 1.8-1.9 2.5-3 3.2-4.5 4.9-10.6 5-17 .1-6.4-1.6-12.5-4.7-17.1-3.3-4.9-7.7-7.7-12.5-7.7l18.9-18.3c4.8.1 9.3 2.8 12.5 7.7 3.1 4.6 4.7 10.7 4.7 17.1-.1 6.4-1.8 12.4-5 17C62.8 57.2 62 58.2 61.1 59.1z"/><path class="st3" d="M32.5,32.6c4.8,0.1,9.3,2.8,12.5,7.7c3.1,4.6,4.7,10.7,4.7,17.1c-0.1,6.4-1.8,12.4-5,17 c-3.4,4.8-7.9,7.4-12.7,7.3c-4.8-0.1-9.3-2.8-12.5-7.7c-3.1-4.6-4.7-10.7-4.7-17.1c0.1-6.4,1.8-12.4,5-17 C23.2,35.1,27.7,32.5,32.5,32.6z M32.1,79.4c8.4,0.1,15.3-9.7,15.4-22c0.1-12.3-6.6-22.4-15-22.5c-8.4-0.1-15.3,9.7-15.4,22 C17,69.2,23.7,79.3,32.1,79.4"/><path class="st5" d="M100.3,92.8l18.9-18.3c-1.2,1.2-1.9,2.9-1.9,5L98.3,97.8C98.4,95.7,99.1,93.9,100.3,92.8z"/><path class="st3" d="m101.9 94.4 18.9-18.3c-.8.8-1.2 2-1.3 3.4l-18.9 18.3C100.6 96.4 101 95.2 101.9 94.4zM100.3 92.8l18.9-18.3c1.2-1.1 2.8-1.8 4.8-1.7L105.1 91C103.1 91 101.4 91.6 100.3 92.8z"/><path class="st5" d="M117.9,64.6c3.7,0.1,7.2-1.4,10.1-4.3l-18.9,18.3c-2.9,2.8-6.4,4.3-10.1,4.3c-4.8-0.1-9.3-2.8-12.5-7.7 c-3.1-4.6-4.7-10.7-4.7-17.1c0.1-6.4,1.8-12.4,5-17c0.8-1.1,1.7-2.2,2.6-3l18.9-18.3c-0.9,0.9-1.8,1.9-2.6,3 c-3.2,4.5-4.9,10.6-5,17c-0.1,6.4,1.6,12.5,4.7,17.1C108.6,61.7,113,64.5,117.9,64.6z"/><path class="st3" d="m126.5 58.6-18.9 18.3c-2.5 2.4-5.4 3.7-8.6 3.7l18.9-18.3C121.1 62.3 124 61 126.5 58.6zM105.1 91 123.9 72.8 140.7 73.1 121.8 91.3z"/><path class="st3" d="M142.3,72.4l-18.9,18.3c-0.4,0.4-1,0.6-1.6,0.6l18.9-18.3C141.3,73.1,141.8,72.8,142.3,72.4z"/><path class="st5" d="M142.3,72.4C142.3,72.4,142.3,72.4,142.3,72.4l-18.9,18.3c0,0,0,0,0,0c0.7-0.6,1.5-1.5,2.2-2.1 c0.7-0.7,1.6-1.6,2.3-2.3c0.7-0.7,1.7-1.6,2.4-2.3c0.7-0.7,1.7-1.7,2.5-2.4c0.7-0.7,1.7-1.7,2.5-2.4 c0.7-0.7,1.7-1.6,2.4-2.4c0.7-0.7,1.6-1.6,2.3-2.3C140.7,73.9,141.6,73.1,142.3,72.4z"/><path class="st5" d="M143,70.8c0,0.6-0.3,1.2-0.7,1.6c-6.3,6.1-12.6,12.2-18.9,18.3c0.4-0.4,0.7-1,0.7-1.6 C129.8,83.6,137.3,76.3,143,70.8z"/><path class="st3" d="M143.9 74.1 125 92.3c.8-.8 1.4-1.9 1.4-3.2l18.9-18.3C145.2 72.1 144.7 73.2 143.9 74.1zM90.9 39.7l18.9-18.3c-4.1 3.9-6.8 10.7-6.8 18.3-.1 12.3 6.6 22.4 15 22.5L99 80.6C90.7 80.4 84 70.3 84.1 58 84.2 50.3 86.9 43.6 90.9 39.7z"/><path class="st3" d="M89.4,38l18.9-18.3c2.9-2.9,6.5-4.4,10.1-4.3L99.5,33.7C95.8,33.7,92.3,35.2,89.4,38z"/><path class="st3" d="M99.5,33.7c4.8,0.1,9.3,2.8,12.5,7.7c3.1,4.6,4.7,10.7,4.7,17.1s-1.8,12.4-5,17 c-3.4,4.8-7.9,7.4-12.7,7.3c-4.8-0.1-9.3-2.8-12.5-7.7c-3.1-4.6-4.7-10.7-4.7-17.1c0.1-6.4,1.8-12.4,5-17 C90.2,36.2,94.7,33.6,99.5,33.7z M99,80.6c8.4,0.1,15.3-9.7,15.4-22s-6.6-22.4-15-22.5c-8.4-0.1-15.3,9.7-15.4,22 C84,70.3,90.7,80.4,99,80.6"/><path class="st3" d="M128,60.3l-18.9,18.3c0.9-0.9,1.8-1.9,2.5-3c3.2-4.5,4.9-10.6,5-17s-1.6-12.5-4.7-17.1 c-3.3-4.9-7.7-7.7-12.5-7.7l18.9-18.3c4.8,0.1,9.3,2.8,12.5,7.7c3.1,4.6,4.7,10.7,4.7,17.1c-0.1,6.4-1.8,12.4-5,17 C129.8,58.4,128.9,59.4,128,60.3z"/><path class="st5" d="M10.1 25.4 28.9 7.2 141.3 9.1 122.4 27.4zM124.7 29.7 143.5 11.4 143 70.8 124.1 89.1z"/><path class="st5" d="M122.4,27.4l18.9-18.3c1.3,0,2.3,1.1,2.3,2.3l-18.9,18.3C124.7,28.5,123.7,27.4,122.4,27.4z"/><path class="st3" d="M122.5,25.1c2.5,0,4.5,2.1,4.5,4.6l-0.6,59.4c0,2.5-2.1,4.5-4.6,4.5c-0.6,0-12.5-0.2-16.7-0.3 c-3-0.1-4.4,1.9-4.4,4.5c0,2.3-0.1,8.9-0.1,9.3c0,2.5-2.1,4.5-4.6,4.5c-0.4,0-7.5-0.1-10-0.2c-2.3,0-3.3-2.2-4.5-4.8 c-1.2-2.6-3.2-6.7-3.3-6.9c-0.1,0.2-1.9,4.2-3.1,6.8c-1.1,2.3-1.9,4.7-4.8,4.6c-2.2,0-7.6-0.1-10.2-0.2 c-2.6,0-3.5-2.4-4.5-4.8c-1-2.6-2.9-6.7-3-6.9c-0.1,0.2-2.2,4.2-3.4,6.8c-1.1,2.3-1.7,4.7-4.6,4.6c-2.3,0-9.8-0.2-10.2-0.2 c-2.5,0-4.5-2.1-4.5-4.6c0-0.3,0.1-6.9,0.1-9.3c0-2.4-1.8-4.6-4.5-4.6c-4-0.1-15.5-0.3-16.1-0.3c-2.5,0-4.5-2.1-4.5-4.6 l0.6-59.4c0-2.5,2.1-4.5,4.6-4.5L122.5,25.1z M124.1,89.1l0.6-59.4c0-1.3-1-2.3-2.3-2.3l-112.4-2c-1.3,0-2.3,1-2.3,2.2 L7.2,87.1c0,1.3,1,2.3,2.3,2.3l16.1,0.3c3.8,0.1,6.8,3.1,6.8,7l-0.1,9.3c0,1.3,1,2.3,2.3,2.3l10.2,0.2 c0.8,0,1.1-0.2,2.1-2.3c0.1-0.3,0.3-0.7,0.5-1c1.2-2.6,3.3-6.7,3.4-6.8l2.2-4.2l1.9,4.3c0.1,0.2,2,4.4,3,7 c0.4,1,0.8,2.1,1.3,2.7c0.4,0.5,0.7,0.6,1.1,0.6l10.2,0.2c0.9,0,1.3-0.3,2.3-2.6c0.1-0.3,0.2-0.5,0.4-0.8 c1.2-2.5,3.1-6.7,3.1-6.7l2-4.5l2.2,4.4c0.1,0.2,2.1,4.3,3.3,6.9c0.6,1.2,1,2.2,1.6,2.9c0.4,0.6,0.7,0.6,0.9,0.6l10,0.2 c1.3,0,2.3-1,2.3-2.2l0.1-9.3c0-4.2,2.7-6.8,6.7-6.7l16.7,0.3C123.1,91.4,124.1,90.3,124.1,89.1"/><path class="st5" d="M122.4,27.4c1.3,0,2.3,1.1,2.3,2.3l-0.6,59.4c0,1.3-1,2.3-2.3,2.2L105.1,91c-4.1-0.1-6.7,2.6-6.7,6.7 l-0.1,9.3c0,1.3-1,2.3-2.3,2.2l-10-0.2c-0.2,0-0.5,0-0.9-0.6c-0.5-0.6-1-1.6-1.6-2.9c-1.2-2.6-3.2-6.8-3.3-6.9L78,94.3 l-2,4.5c0,0-1.9,4.2-3.1,6.7c-0.1,0.3-0.3,0.5-0.4,0.8c-1,2.2-1.4,2.6-2.3,2.6l-10.2-0.2c-0.4,0-0.7-0.1-1.1-0.6 c-0.5-0.7-0.9-1.8-1.3-2.7c-1-2.6-2.9-6.8-3-7L52.7,94l-2.2,4.2c-0.1,0.2-2.2,4.3-3.4,6.8c-0.2,0.4-0.3,0.7-0.5,1 c-1,2.2-1.2,2.3-2.1,2.3l-10.2-0.2c-1.3,0-2.3-1.1-2.3-2.3l0.1-9.3c0-3.8-2.9-6.9-6.8-7L9.4,89.4c-1.3,0-2.3-1.1-2.3-2.3 l0.6-59.4c0-1.3,1-2.3,2.3-2.2L122.4,27.4z M111.7,75.5c3.2-4.5,4.9-10.6,5-17c0.1-6.4-1.6-12.5-4.7-17.1 c-3.3-4.9-7.7-7.7-12.5-7.7c-4.8-0.1-9.3,2.5-12.7,7.3c-3.2,4.5-4.9,10.6-5,17c-0.1,6.4,1.6,12.5,4.7,17.1 c3.3,4.9,7.7,7.7,12.5,7.7C103.9,82.9,108.4,80.3,111.7,75.5 M44.8,74.4c3.2-4.5,4.9-10.6,5-17c0.1-6.4-1.6-12.5-4.7-17.1 c-3.3-4.9-7.7-7.7-12.5-7.7c-4.8-0.1-9.3,2.5-12.7,7.3c-3.2,4.5-4.9,10.6-5,17c-0.1,6.4,1.6,12.5,4.7,17.1 c3.3,4.9,7.7,7.7,12.5,7.7C36.9,81.8,41.4,79.2,44.8,74.4 M74.2,83.3c1.3-1.7,1.2-4.2-0.2-7.2c-1.4-2.8-4.7-7.1-8.3-7.2 c-3.5-0.1-7,4.1-8.4,6.9c-1.5,2.9-1.6,5.4-0.3,7.2c0.6,0.8,1.4,1.2,2.4,1.2c1.2,0,2.3-0.7,3.4-1.4c0.9-0.6,2.1-1.3,2.8-1.3 c0.7,0,1.9,0.8,2.8,1.4c1.1,0.8,2.2,1.5,3.4,1.5C72.7,84.5,73.6,84,74.2,83.3"/><path class="st3" d="M10.1 23.2 28.9 4.9 141.3 6.8 122.5 25.1zM127 29.8 145.8 11.5 145.2 70.9 126.4 89.1zM122.5 25.1l18.9-18.3c2.5 0 4.5 2.1 4.5 4.6L127 29.8C127 27.2 125 25.2 122.5 25.1z"/></g><g class="st4"><path class="st3" d="M40.2 162.7 42.9 160.1 43.9 160.5 41.2 163.1z"/><path class="st3" d="M41.2 163.1 43.9 160.5 43.5 161.6 40.8 164.2zM52.7 167.6l-2.7 2.6c-.6.6-1.2 1-2.2 1.3-.5.2-1 .3-1.5.2-2.1 0-4.2-1.5-4.8-2.6-1-1.9-1.2-3.3-.6-4.9l2.7-2.6c-.6 1.6-.4 3 .6 4.9.6 1.1 2.7 2.6 4.8 2.6.5 0 1-.1 1.5-.2C51.4 168.5 52.1 168.1 52.7 167.6zM38.4 153.4l2.7-2.6c-1.6 1.6-2 4.4-1.5 5.6.7 2 1.7 3.1 3.3 3.7l-2.7 2.6c-1.6-.6-2.5-1.7-3.3-3.7C36.4 157.7 36.8 155 38.4 153.4zM56.4 165.6l2.7-2.6c-.4.4-.9.9-1.3 1.4-.6.8-1.1 1.5-1.5 2.2-.7 1-1.3 1.9-2.1 2.6l-2.7 2.6c.8-.8 1.4-1.7 2.1-2.6.4-.6.9-1.4 1.5-2.2C55.6 166.5 56 166 56.4 165.6z"/><path class="st5" d="M54.4,165.3c-0.7,1-1.2,1.7-1.8,2.3l-2.7,2.6c0.6-0.6,1.1-1.3,1.8-2.3c0.5-0.7,1-1.4,1.6-2.3 c0.5-0.6,1-1.2,1.5-1.7l2.7-2.6c-0.5,0.5-1,1.1-1.5,1.7C55.4,163.8,54.9,164.6,54.4,165.3z"/><path class="st3" d="M54.9,163.9l2.7-2.6c2.3-2.3,4.8-3.4,5-3.5l-2.7,2.6C59.7,160.5,57.2,161.7,54.9,163.9z"/><path class="st5" d="M51,149.9c3.9,0.1,7.3-1.4,7.4-1.4l-2.7,2.6c-0.2,0.1-3.5,1.5-7.4,1.4c-0.3,0-0.6,0-0.9,0 c-1.1-0.1-2-0.2-2.8-0.3c-0.9-0.1-1.7-0.2-2.3-0.2c-1,0-1.9,0.2-3,0.7c-0.4,0.2-0.7,0.4-1,0.7l2.7-2.6 c0.3-0.3,0.6-0.5,1-0.7c1.1-0.6,2-0.8,3-0.7c0.7,0,1.4,0.1,2.3,0.2c0.8,0.1,1.7,0.2,2.8,0.3 C50.5,149.9,50.8,149.9,51,149.9z"/><path class="st3" d="m36.8 151.7 2.7-2.6c.4-.4.9-.8 1.5-1.1 1.5-.8 2.8-1 4.1-1 .8 0 1.7.1 2.6.2.8.1 1.6.2 2.6.3.2 0 .5 0 .7 0 3.4.1 6.4-1.2 6.5-1.3l-2.7 2.6c0 0-3.1 1.3-6.5 1.3-.2 0-.5 0-.7 0-1-.1-1.9-.2-2.6-.3-.9-.1-1.8-.2-2.6-.2-1.3 0-2.6.2-4.1 1C37.7 151 37.3 151.3 36.8 151.7zM59.8 160.5 62.5 157.9 96.1 143 93.4 145.6z"/><path class="st5" d="M55.8 151.1 58.5 148.5 92 133.6 89.3 136.2z"/><path class="st3" d="M54.8 149 57.5 146.4 91.1 131.6 88.4 134.2z"/><path class="st5" d="M97,130.1l-2.7,2.6c-2.4,2.3-4.9,3.4-5,3.5l2.7-2.6C92.2,133.6,94.7,132.4,97,130.1z"/><path class="st3" d="m95.5 128.5-2.7 2.6c-2.1 2-4.3 3-4.4 3.1l2.7-2.6C91.1 131.5 93.4 130.5 95.5 128.5zM93.4 145.6l2.7-2.6c.2-.1 3.5-1.5 7.4-1.4.3 0 .6 0 .9 0 1.1.1 2 .2 2.8.3.9.1 1.7.2 2.3.2 1 0 1.9-.2 3-.7l-2.7 2.6c-1.1.6-2 .8-3 .7-.7 0-1.4-.1-2.3-.2-.8-.1-1.7-.2-2.8-.3-.3 0-.6 0-.9 0C96.9 144.1 93.6 145.6 93.4 145.6z"/><path class="st3" d="m113.5 140.7-2.7 2.6c-.3.3-.6.5-1 .7l2.7-2.6C112.9 141.2 113.2 141 113.5 140.7zM99.2 126.6l2.7-2.6c-.6.6-1.1 1.3-1.8 2.3-.5.7-1 1.4-1.6 2.3-.5.6-1 1.1-1.5 1.6l-2.7 2.6c.5-.5 1-1 1.5-1.6.7-.8 1.2-1.6 1.6-2.3C98.1 127.9 98.6 127.2 99.2 126.6z"/><path class="st5" d="M108 133.6 110.7 131 111.7 131.4 109.1 134zM115 135.1c.4 1.2.1 4-1.5 5.6l-2.7 2.6c1.6-1.6 2-4.4 1.5-5.6-.4-1-.8-1.8-1.3-2.4.1-.1.2-.2.3-.3.1-.1.2-.2.3-.3.1-.1.2-.2.3-.3.1-.1.2-.2.4-.3.1-.1.2-.2.4-.3.1-.1.2-.2.3-.3.1-.1.2-.2.3-.3.1-.1.2-.2.3-.3C114.3 133.3 114.7 134.1 115 135.1z"/><path class="st5" d="M111.7 131.4c.8.3 1.4.7 2 1.3-.5.5-1 1-1.5 1.5-.3.3-.6.6-.9.8 0 0-.1.1-.2.2 0 0-.1.1-.2.1-.5-.6-1.2-1-2-1.3C109.9 133.2 110.9 132.2 111.7 131.4zM108.4 132.5 111.1 129.9 110.7 131 108 133.6z"/><path class="st3" d="M115.1,142.4l-2.7,2.6c2.3-2.2,2.8-5.9,2.1-8l2.7-2.6C117.9,136.4,117.4,140.1,115.1,142.4z"/><path class="st5" d="M99.2,126.6l2.7-2.6c0.6-0.6,1.2-1,2.2-1.3c0.5-0.2,1-0.3,1.5-0.3L103,125c-0.5,0-1,0.1-1.5,0.3 C100.5,125.6,99.8,126,99.2,126.6z"/><path class="st3" d="M110.8,132.3l2.7-2.6c2.2,1.2,3.1,3.1,3.7,4.7l-2.7,2.6C113.9,135.4,113,133.5,110.8,132.3z"/><path class="st5" d="M105.7,122.4c1.6,0,3.2,0.9,4.1,1.7c-0.9,0.9-1.8,1.7-2.7,2.6c-0.9-0.9-2.5-1.7-4.1-1.7 C103.8,124.2,104.9,123.1,105.7,122.4z"/><path class="st5" d="M110.5,125c1,1.9,1.2,3.3,0.6,4.9l-2.7,2.6c0.6-1.6,0.4-3-0.6-4.9c-0.1-0.3-0.4-0.6-0.7-0.9 c0.9-0.9,1.8-1.7,2.7-2.6C110.1,124.4,110.4,124.7,110.5,125z"/><path class="st3" d="M114.5,137c0.9,2.5,0,7.2-3.6,9.1c-1.5,0.8-2.8,1-4.1,1c-0.8,0-1.7-0.1-2.6-0.2 c-0.8-0.1-1.7-0.2-2.7-0.3c-0.2,0-0.5,0-0.7,0c-3.4-0.1-6.5,1.2-6.5,1.3l-33.6,14.9c0,0-3.3,1.5-5.6,4.4 c-0.6,0.8-1.1,1.5-1.5,2.2c-1.3,2-2.4,3.5-5,4.5c-0.8,0.3-1.6,0.4-2.3,0.4c-3-0.1-5.8-2-6.8-3.8c-0.8-1.5-1.6-3.4-1-5.8 c-2.2-1.2-3.1-3.1-3.6-4.6c-0.9-2.5,0-7.2,3.5-9.1c1.5-0.8,2.8-1,4.1-1c0.8,0,1.7,0.1,2.6,0.2c0.8,0.1,1.6,0.2,2.6,0.3 c0.2,0,0.5,0,0.7,0c3.4,0.1,6.4-1.2,6.5-1.3l33.6-14.8c0,0,3.4-1.5,5.6-4.5c0.6-0.8,1.1-1.5,1.6-2.2 c1.4-2,2.4-3.5,5.1-4.5c0.8-0.3,1.6-0.4,2.4-0.4c3,0.1,5.8,2,6.8,3.8c0.8,1.5,1.6,3.4,1,5.8 C113,133.5,113.9,135.4,114.5,137z M109.9,144c2.4-1.3,3-4.9,2.5-6.3c-0.7-2-1.7-3.1-3.3-3.7l-1.1-0.4l0.4-1.1 c0.6-1.6,0.4-3-0.6-4.9c-0.6-1.1-2.7-2.6-4.8-2.6c-0.5,0-1,0.1-1.5,0.3c-2,0.7-2.7,1.8-4,3.6c-0.5,0.7-1,1.4-1.6,2.3 c-2.6,3.4-6.3,5.1-6.5,5.1l-33.6,14.9c-0.2,0.1-3.5,1.5-7.4,1.4c-0.3,0-0.6,0-0.9,0c-1.1-0.1-2-0.2-2.8-0.3 c-0.9-0.1-1.7-0.2-2.3-0.2c-1,0-1.9,0.2-3,0.7c-2.4,1.3-3,4.8-2.5,6.3c0.7,2,1.7,3.1,3.3,3.7l1.1,0.4l-0.4,1.1 c-0.6,1.6-0.4,3,0.6,4.9c0.6,1.1,2.7,2.6,4.8,2.6c0.5,0,1-0.1,1.5-0.2c2-0.7,2.7-1.8,4-3.6c0.5-0.7,1-1.4,1.6-2.3 c2.6-3.4,6.3-5.1,6.5-5.1l33.6-14.9c0.2-0.1,3.5-1.5,7.4-1.4c0.3,0,0.6,0,0.9,0c1.1,0.1,2,0.2,2.8,0.3 c0.9,0.1,1.7,0.2,2.3,0.2C107.9,144.8,108.7,144.6,109.9,144"/><path class="st5" d="M103,125c2.1,0,4.2,1.5,4.8,2.6c1,1.9,1.2,3.3,0.6,4.9l-0.4,1.1l1.1,0.4c1.6,0.6,2.6,1.7,3.3,3.7 c0.5,1.4,0,5-2.5,6.3c-1.1,0.6-2,0.8-3,0.7c-0.7,0-1.4-0.1-2.3-0.2c-0.8-0.1-1.7-0.2-2.8-0.3c-0.3,0-0.6,0-0.9,0 c-3.9-0.1-7.3,1.4-7.4,1.4l-33.6,14.9c-0.2,0.1-3.9,1.8-6.5,5.1c-0.6,0.8-1.2,1.6-1.6,2.3c-1.3,1.9-2,2.9-4,3.6 c-0.5,0.2-1,0.3-1.5,0.2c-2.1,0-4.2-1.5-4.8-2.6c-1-1.9-1.2-3.3-0.6-4.9l0.4-1.1l-1.1-0.4c-1.6-0.6-2.5-1.7-3.3-3.7 c-0.5-1.4,0-5,2.5-6.3c1.1-0.6,2-0.8,3-0.7c0.7,0,1.4,0.1,2.3,0.2c0.8,0.1,1.7,0.2,2.8,0.3c0.3,0,0.6,0,0.9,0 c3.9,0.1,7.3-1.4,7.4-1.4l33.6-14.9c0.2-0.1,3.9-1.8,6.5-5.1c0.7-0.8,1.2-1.6,1.6-2.3c1.3-1.9,2-2.9,4-3.6 C101.9,125,102.5,125,103,125z"/><path class="st3" d="M97.7,124.9l2.7-2.6c0.8-0.7,1.7-1.4,3-1.8c0.8-0.3,1.6-0.4,2.4-0.4c3,0.1,5.8,2,6.8,3.8 c0.8,1.5,1.6,3.4,1,5.8l-2.7,2.6c0.6-2.4-0.2-4.3-1-5.8c-1-1.8-3.8-3.8-6.8-3.8c-0.8,0-1.6,0.1-2.4,0.4 C99.3,123.6,98.4,124.2,97.7,124.9z"/></g><g class="st4"><path class="st3" d="m21.8 132.2 2.7-2.6c.5-.5 1-.9 1.7-1.2l-2.7 2.6C22.9 131.3 22.3 131.8 21.8 132.2zM23.4 133.8l2.7-2.6c-.6.6-1.1 1.4-1.5 2.5-.6 1.4-.1 5 2.4 6.4 1.1.6 2 .8 3.1.9.7 0 1.4-.1 2.3-.1.8-.1 1.7-.2 2.8-.2.3 0 .5 0 .8 0 3.9.1 7.3 1.7 7.5 1.7l-2.7 2.6c-.2-.1-3.5-1.7-7.5-1.7-.3 0-.5 0-.8 0-1.1 0-2 .1-2.8.2-.9.1-1.6.2-2.3.1-1 0-1.9-.2-3.1-.9-2.4-1.4-2.9-5-2.4-6.4C22.3 135.2 22.8 134.4 23.4 133.8z"/><path class="st5" d="M26.1 131.2c.5-.5 1.1-.8 1.8-1.1l-2.7 2.6c-.7.3-1.3.6-1.8 1.1C24.2 133.1 25.3 132 26.1 131.2zM25.3 132.7 28 130.1 29 129.8 26.4 132.4z"/><path class="st3" d="M26 131.3 28.7 128.7 29 129.8 26.4 132.4zM29.1 124.3c-.8 1.6-.9 2.9-.4 4.3l-2.7 2.6c-.5-1.5-.4-2.7.4-4.3C27.3 126.1 28.2 125.2 29.1 124.3z"/><path class="st3" d="M29.4,123.8c-0.1,0.2-0.2,0.4-0.3,0.6c-0.9,0.9-1.8,1.7-2.7,2.6c0.1-0.2,0.2-0.4,0.3-0.6 c0.1-0.2,0.3-0.5,0.6-0.7l2.7-2.6C29.7,123.3,29.5,123.5,29.4,123.8z"/><path class="st5" d="m27.2 125.7 2.7-2.6c.9-.9 2.6-1.8 4.3-1.8l-2.7 2.6C29.9 123.9 28.2 124.8 27.2 125.7zM42.4 129.1c-.9.9-1.8 1.7-2.7 2.6-.4-.4-.8-.9-1.1-1.4-.6-.9-1.1-1.6-1.6-2.3 0-.1-.1-.2-.1-.2.9-.9 1.8-1.7 2.7-2.6 0 .1.1.1.1.2.4.7.9 1.5 1.6 2.3C41.6 128.2 42 128.7 42.4 129.1z"/><path class="st5" d="M42.4 129.1c2.4 2.6 5.1 4 5.2 4.1l-2.7 2.6c-.1-.1-2.8-1.5-5.2-4.1.1-.1.2-.2.3-.3.1-.1.2-.2.3-.3.1-.1.2-.2.3-.3.1-.1.2-.2.3-.3.1-.1.2-.2.3-.3.1-.1.2-.2.3-.3.1-.1.2-.2.3-.3.1-.1.2-.2.3-.3C42.1 129.4 42.3 129.3 42.4 129.1zM39.5 125.2c-.9.9-1.8 1.7-2.7 2.6-1.2-1.8-1.9-2.8-3.8-3.6-.5-.2-1-.3-1.5-.3l2.7-2.6c.5 0 1 .1 1.5.3C37.7 122.4 38.4 123.4 39.5 125.2z"/><path class="st3" d="m25.6 124 2.7-2.6c1.4-1.3 3.6-2.4 5.9-2.4.8 0 1.6.2 2.4.5 2.6 1.1 3.7 2.7 5 4.7.4.7.9 1.4 1.5 2.2 2.1 2.9 5.3 4.7 5.5 4.8l-2.7 2.6c-.3-.1-3.4-1.9-5.5-4.8-.6-.8-1.1-1.6-1.5-2.2-1.3-2-2.3-3.6-5-4.7-.8-.3-1.6-.5-2.4-.5C29.3 121.6 27 122.7 25.6 124zM40.7 144.9 43.4 142.3 76.6 158.4 73.9 161.1z"/><path class="st3" d="M94.2,168.4l-2.7,2.6c-0.9,0.9-2.6,1.8-4.3,1.8c-0.5,0-1-0.1-1.5-0.3c-1.9-0.8-2.6-1.9-3.9-3.8 c-0.4-0.7-0.9-1.4-1.6-2.3c-2.5-3.5-6.2-5.3-6.3-5.4l2.7-2.6c0.2,0.1,3.8,1.9,6.3,5.4c0.6,0.9,1.1,1.6,1.6,2.3 c1.2,1.9,1.9,3,3.9,3.8c0.5,0.2,1,0.3,1.5,0.3C91.6,170.2,93.3,169.3,94.2,168.4z"/><path class="st5" d="M44.9 135.9 47.6 133.2 80.9 149.4 78.2 152zM94.2 168.4l-2.7 2.6c.2-.2.4-.5.6-.7 1.1-1.9 1.3-3.3.7-4.9l2.7-2.6c.6 1.6.4 3-.7 4.9C94.7 168 94.5 168.2 94.2 168.4z"/><path class="st5" d="M92.4 164.4 95.1 161.8 95.5 162.9 92.8 165.5z"/><path class="st3" d="M46 133.8 48.6 131.2 81.8 147.3 79.1 149.9zM92.4 164.4 95.1 161.8 96.2 161.4 93.5 164zM95.8 170.1l-2.7 2.6c.4-.4.7-.8.9-1.2.8-1.4 1.7-3.4 1.2-5.8l2.7-2.6c.5 2.4-.3 4.3-1.2 5.8C96.5 169.3 96.2 169.7 95.8 170.1z"/><path class="st5" d="M87,150.9c-0.9,0.9-1.8,1.7-2.7,2.6c-3.3-0.3-6-1.4-6.2-1.5l2.7-2.6C81,149.4,83.7,150.6,87,150.9z"/><path class="st3" d="M98,160.3l-2.7,2.6c-0.5,0.5-1.1,0.8-1.8,1.1l2.7-2.6C96.9,161.2,97.5,160.8,98,160.3z"/><path class="st5" d="M97,151.3c-0.9,0.9-1.8,1.7-2.7,2.6c-1-0.5-1.8-0.7-2.8-0.7c-0.7,0-1.4,0.1-2.3,0.1 c-0.8,0.1-1.7,0.2-2.8,0.2c-0.3,0-0.6,0-0.9,0c-0.4,0-0.8,0-1.2-0.1c0.9-0.9,1.8-1.7,2.7-2.6c0.4,0,0.8,0.1,1.2,0.1 c0.3,0,0.6,0,0.9,0c1.1,0,2-0.1,2.8-0.2c0.9-0.1,1.6-0.2,2.3-0.1C95.2,150.6,96,150.8,97,151.3z"/><path class="st5" d="M31.6,123.9c0.5,0,1,0.1,1.5,0.3c2,0.8,2.6,1.9,3.9,3.8c0.4,0.7,0.9,1.5,1.6,2.3 c2.5,3.5,6.2,5.4,6.3,5.5L78.2,152c0.2,0.1,3.5,1.5,7.3,1.6c0.3,0,0.6,0,0.9,0c1.1,0,2-0.1,2.8-0.2 c0.9-0.1,1.6-0.2,2.3-0.1c1,0,1.9,0.2,3,0.8c2.4,1.4,2.9,5,2.3,6.4c-0.8,2-1.8,3.1-3.4,3.6l-1.1,0.4l0.4,1.1 c0.6,1.6,0.4,3-0.7,4.9c-0.6,1.1-2.7,2.5-4.9,2.4c-0.5,0-1-0.1-1.5-0.3c-1.9-0.8-2.6-1.9-3.9-3.8 c-0.4-0.7-0.9-1.4-1.6-2.3c-2.5-3.5-6.2-5.3-6.3-5.4l-33.2-16.1c-0.2-0.1-3.5-1.7-7.5-1.7c-0.3,0-0.5,0-0.8,0 c-1.1,0-2,0.1-2.8,0.2c-0.9,0.1-1.6,0.2-2.3,0.1c-1,0-1.9-0.2-3.1-0.9c-2.4-1.4-2.9-5-2.4-6.4c0.8-2,1.8-3,3.4-3.6 l1.1-0.4l-0.4-1.1c-0.6-1.6-0.4-3,0.7-4.9C27.3,125.3,29.4,123.9,31.6,123.9z"/><path class="st5" d="M99.6,157.8c-0.4,1.1-0.9,1.9-1.5,2.5l-2.7,2.6c0.6-0.6,1.1-1.4,1.5-2.5c0.6-1.4,0.1-5-2.3-6.4 c-0.1,0-0.2-0.1-0.2-0.1c0.5-0.5,1.1-1,1.6-1.6c0,0,0.1-0.1,0.1-0.1c0,0,0.1-0.1,0.1-0.1c0,0,0.1-0.1,0.1-0.1 c0,0,0.1-0.1,0.1-0.1c0,0,0.1-0.1,0.1-0.1c0,0,0.1-0.1,0.1-0.1c0,0,0.1-0.1,0.1-0.1c0,0,0,0,0.1-0.1c0,0,0.1-0.1,0.1-0.1 c0.1,0,0.2,0.1,0.2,0.1C99.6,152.8,100.1,156.4,99.6,157.8z"/><path class="st3" d="m79.1 149.9 2.7-2.6c.2.1 3.1 1.3 6.4 1.3.3 0 .5 0 .8 0 1 0 1.9-.1 2.6-.2.9-.1 1.8-.2 2.6-.2 1.3 0 2.6.3 4.1 1.1l-2.7 2.6c-1.5-.9-2.8-1.1-4.1-1.1-.8 0-1.7.1-2.6.2-.8.1-1.7.2-2.6.2-.3 0-.5 0-.8 0C82.3 151.2 79.4 150 79.1 149.9zM99.6 161.9l-2.7 2.6c1-1 1.6-2.2 2.1-3.3 1-2.4.1-7.2-3.3-9.2l2.7-2.6c3.5 2 4.3 6.8 3.3 9.2C101.3 159.7 100.7 160.9 99.6 161.9z"/><path class="st3" d="M95.7,152c3.5,2,4.3,6.8,3.3,9.2c-0.6,1.6-1.6,3.4-3.8,4.5c0.5,2.4-0.3,4.3-1.2,5.8 c-1,1.8-3.9,3.6-6.9,3.6c-0.8,0-1.6-0.2-2.4-0.5c-2.6-1.1-3.6-2.6-4.9-4.6c-0.4-0.7-0.9-1.4-1.5-2.2 c-2.2-3-5.5-4.6-5.5-4.7L39.7,147c0,0-3.1-1.4-6.5-1.5c-0.2,0-0.4,0-0.7,0c-1,0-1.9,0.1-2.7,0.2c-0.9,0.1-1.7,0.2-2.6,0.1 c-1.3,0-2.6-0.3-4.2-1.2c-3.5-2-4.3-6.8-3.4-9.2c0.6-1.5,1.6-3.4,3.7-4.5c-0.5-2.4,0.3-4.3,1.2-5.8c1-1.8,3.9-3.6,6.9-3.6 c0.8,0,1.6,0.2,2.4,0.5c2.6,1.1,3.7,2.7,5,4.7c0.4,0.7,0.9,1.4,1.5,2.2c2.1,2.9,5.3,4.7,5.5,4.8l33.2,16.1 c0.2,0.1,3.1,1.3,6.4,1.3c0.3,0,0.5,0,0.8,0c1,0,1.9-0.1,2.6-0.2c0.9-0.1,1.8-0.2,2.6-0.2C92.9,150.9,94.1,151.2,95.7,152 z M96.9,160.4c0.6-1.4,0.1-5-2.3-6.4c-1.1-0.6-2-0.8-3-0.8c-0.7,0-1.4,0.1-2.3,0.1c-0.8,0.1-1.7,0.2-2.8,0.2 c-0.3,0-0.6,0-0.9,0c-3.9-0.1-7.1-1.5-7.3-1.5l-33.3-16.1c-0.2-0.1-3.8-2.1-6.4-5.5c-0.6-0.9-1.1-1.6-1.6-2.3 c-1.3-1.9-1.9-3-3.9-3.8c-0.5-0.2-1-0.3-1.5-0.3c-2.1,0-4.3,1.4-4.9,2.4c-1.1,1.9-1.3,3.3-0.7,4.9l0.4,1.1l-1.1,0.4 c-1.6,0.6-2.6,1.6-3.4,3.6c-0.6,1.4-0.1,5,2.4,6.4c1.1,0.6,2,0.8,3.1,0.9c0.7,0,1.4-0.1,2.3-0.1c0.8-0.1,1.7-0.2,2.8-0.2 c0.3,0,0.5,0,0.8,0c3.9,0.1,7.3,1.7,7.5,1.7l33.2,16.1c0.2,0.1,3.8,1.9,6.3,5.4c0.6,0.9,1.1,1.6,1.6,2.3 c1.2,1.9,1.9,3,3.9,3.8c0.5,0.2,1,0.3,1.5,0.3c2.1,0,4.3-1.4,4.9-2.4c1.1-1.9,1.3-3.3,0.7-4.9l-0.4-1.1l1.1-0.4 C95.1,163.5,96.1,162.4,96.9,160.4"/></g><g opacity=".6"><g class="st4"><path class="st5" d="M43.4,74.6l-2.7,2.6c-2.3,2.2-4.9,3.4-7.6,3.4l2.7-2.6C38.5,78,41.1,76.8,43.4,74.6z"/><path class="st5" d="m25.9 37.2 2.7-2.6c-.9.8-1.7 1.8-2.4 3-3 4.4-4.7 10.4-4.7 16.8-.1 6.4 1.5 12.4 4.4 17 2.7 4.2 6.2 6.6 10 6.7l-2.7 2.6c-3.7-.1-7.2-2.4-10-6.7-2.9-4.5-4.5-10.6-4.4-17 .1-6.4 1.7-12.4 4.7-16.8C24.2 39 25 38 25.9 37.2zM24.3 35.5l2.7-2.6c2.7-2.6 5.9-4.1 9.3-4l-2.7 2.6C30.2 31.5 27 32.9 24.3 35.5z"/><path class="st5" d="M45,76.2l-2.7,2.6c4.6-4.5,7.8-12.4,7.8-21.4c0.1-14.2-7.3-25.8-16.6-26l2.7-2.6 c9.3,0.2,16.7,11.8,16.6,26C52.8,63.9,49.6,71.7,45,76.2z"/><path class="st5" d="M33.6,31.5c9.3,0.2,16.7,11.8,16.6,26C50,71.7,42.4,83,33.1,82.9c-9.3-0.2-16.7-11.8-16.6-26 C16.6,42.7,24.2,31.4,33.6,31.5z M33.1,80.6c3.7,0.1,7.3-2.2,10.1-6.3c3-4.4,4.7-10.4,4.7-16.8c0.1-6.4-1.5-12.4-4.4-17 c-2.7-4.2-6.2-6.6-9.9-6.7c-3.7-0.1-7.3,2.2-10.1,6.3c-3,4.4-4.7,10.4-4.7,16.8c-0.1,6.4,1.5,12.4,4.4,17 C25.8,78.1,29.4,80.5,33.1,80.6"/></g><g class="st4"><path class="st5" d="M110.4,75.8l-2.7,2.6c-2.3,2.2-4.9,3.4-7.6,3.4l2.7-2.6C105.4,79.2,108.1,78,110.4,75.8z"/><path class="st5" d="m92.9 38.3 2.7-2.6c-.9.8-1.7 1.8-2.4 3-3 4.4-4.7 10.4-4.7 16.8-.1 6.4 1.5 12.4 4.4 17 2.7 4.2 6.2 6.6 10 6.7l-2.7 2.6c-3.7-.1-7.2-2.4-10-6.7-2.9-4.5-4.5-10.6-4.4-17 .1-6.4 1.7-12.4 4.7-16.8C91.2 40.2 92 39.2 92.9 38.3zM91.3 36.7l2.7-2.6c2.7-2.6 5.9-4.1 9.3-4l-2.7 2.6C97.1 32.6 93.9 34.1 91.3 36.7z"/><path class="st5" d="M112,77.4l-2.7,2.6c4.6-4.5,7.8-12.4,7.9-21.4c0.1-14.2-7.3-25.8-16.6-26l2.7-2.6 c9.3,0.2,16.7,11.8,16.6,26C119.7,65,116.6,72.9,112,77.4z"/><path class="st5" d="M100.5,32.7c9.3,0.2,16.7,11.8,16.6,26C117,72.8,109.3,84.2,100,84c-9.3-0.2-16.7-11.8-16.6-26 C83.6,43.9,91.2,32.5,100.5,32.7z M100,81.7c3.7,0.1,7.3-2.2,10.1-6.3c3-4.4,4.7-10.4,4.7-16.8c0.1-6.4-1.5-12.4-4.4-17 c-2.7-4.2-6.2-6.6-9.9-6.7c-3.7-0.1-7.3,2.2-10.1,6.3c-3,4.4-4.7,10.4-4.7,16.8c-0.1,6.4,1.5,12.4,4.4,17 C92.8,79.3,96.3,81.7,100,81.7"/></g><g class="st4"><path class="st5" d="M59.3,83.7l2.7-2.6c0.3-0.2,0.7-0.4,1-0.5c1.9-1,4.2-2.3,6.6-2.3c0.4,0,0.8,0.1,1.2,0.1 c2.8,0.6,4.7,3.1,6.2,5.2c0.2,0.2,0.4,0.5,0.6,0.8L74.9,87c-0.2-0.3-0.4-0.6-0.6-0.8c-1.5-2-3.4-4.6-6.2-5.2 c-0.4-0.1-0.8-0.1-1.2-0.1c-2.4,0-4.7,1.2-6.6,2.3C60,83.3,59.7,83.5,59.3,83.7z"/><path class="st5" d="m64.3 72.5 2.7-2.6c-.6.5-1.1 1.2-1.6 1.9-2.1 2.9-3.4 6.7-3.3 9.3l-2.7 2.6c0-2.6 1.3-6.3 3.3-9.3C63.2 73.7 63.8 73 64.3 72.5zM62.7 70.8l2.7-2.6c1.4-1.4 3-2.3 4.5-2.3.1 0 .3 0 .4 0l-2.7 2.6c-.1 0-.3 0-.4 0C65.7 68.6 64.2 69.4 62.7 70.8zM78.5 87.2l-2.7 2.6c0 0 .1-.1.1-.1 3.8-4.2 2.7-21-8.2-21.2l2.7-2.6C81.2 66.1 82.3 82.9 78.5 87.2 78.6 87.2 78.5 87.2 78.5 87.2z"/><path class="st5" d="M67.7,68.5c10.9,0.2,12,17,8.2,21.2c-0.2,0.3-0.5,0.4-0.7,0.4c-1.8,0-4.1-6.2-7.6-6.9 c-0.2-0.1-0.5-0.1-0.7-0.1c-3.1-0.1-6.8,3.4-8.6,3.3c-0.4,0-0.7-0.2-0.9-0.7c-1.8-5.5,4.3-17.1,9.9-17.2 C67.4,68.5,67.5,68.5,67.7,68.5z M74.9,87c0.9-2.5,1.1-7.4-0.6-11.3c-1.4-3.2-3.6-4.8-6.6-4.9c-0.1,0-0.2,0-0.3,0 c-1.3,0-3.1,1.4-4.7,3.6c-2.1,2.9-3.4,6.7-3.3,9.3c0.3-0.2,0.7-0.4,1-0.5c1.9-1,4.2-2.3,6.6-2.3c0.4,0,0.8,0.1,1.2,0.1 c2.8,0.6,4.7,3.1,6.2,5.2C74.4,86.4,74.7,86.7,74.9,87"/></g></g><g><g class="st4"><path class="st3" d="M99.8,34.1c4.8,0.1,9.3,2.8,12.5,7.7c3.1,4.6,4.7,10.7,4.7,17.1c-0.1,6.4-1.8,12.4-5,16.9 c-3.4,4.8-7.9,7.4-12.7,7.3c-4.8-0.1-9.3-2.8-12.5-7.7c-3.1-4.6-4.7-10.7-4.7-17.1s1.8-12.4,5-16.9 C90.4,36.6,95,34.1,99.8,34.1z M99.3,80.8c8.4,0.1,15.3-9.7,15.4-21.9c0.1-12.3-6.6-22.3-15-22.5 c-8.4-0.1-15.3,9.7-15.4,21.9S90.9,80.7,99.3,80.8"/><path class="st3" d="M122.7,25.6c2.5,0,4.5,2.1,4.5,4.6l-0.6,59.2c0,2.5-2.1,4.5-4.6,4.5c-0.6,0-12.5-0.2-16.7-0.3 c-3-0.1-4.4,1.9-4.4,4.5c0,2.3-0.1,8.9-0.1,9.2c0,2.5-2.1,4.5-4.6,4.5c-0.4,0-7.5-0.1-10-0.2c-2.3,0-3.3-2.1-4.5-4.8 c-1.2-2.6-3.2-6.7-3.3-6.9c-0.1,0.2-1.9,4.2-3.1,6.8c-1.1,2.3-1.9,4.7-4.8,4.6c-2.2,0-7.6-0.1-10.2-0.2 c-2.6,0-3.6-2.4-4.5-4.8c-1-2.6-2.9-6.7-3-6.9c-0.1,0.2-2.2,4.2-3.4,6.8c-1.1,2.3-1.7,4.7-4.6,4.6c-2.3,0-9.8-0.2-10.2-0.2 c-2.5,0-4.5-2.1-4.5-4.6c0-0.3,0.1-6.9,0.1-9.2c0-2.4-1.8-4.6-4.5-4.6c-4-0.1-15.5-0.3-16.1-0.3c-2.5,0-4.5-2.1-4.5-4.6 l0.6-59.2c0-2.5,2.1-4.5,4.6-4.5L122.7,25.6z M124.4,89.3l0.6-59.2c0-1.2-1-2.3-2.3-2.3l-112.4-2c-1.3,0-2.3,1-2.3,2.2 L7.5,87.3c0,1.2,1,2.3,2.3,2.3l16.1,0.3c3.8,0.1,6.8,3.1,6.8,6.9l-0.1,9.2c0,1.2,1,2.3,2.3,2.3l10.2,0.2 c0.8,0,1.1-0.2,2.1-2.3c0.1-0.3,0.3-0.7,0.5-1c1.2-2.5,3.3-6.6,3.4-6.8l2.2-4.2l1.9,4.3c0.1,0.2,2,4.3,3,7 c0.4,1,0.8,2.1,1.3,2.7c0.4,0.5,0.7,0.6,1.1,0.6l10.2,0.2c1,0,1.3-0.3,2.3-2.6c0.1-0.3,0.2-0.5,0.4-0.8 c1.2-2.5,3.1-6.6,3.1-6.7l2-4.5l2.2,4.4c0.1,0.2,2.1,4.3,3.3,6.9c0.6,1.2,1,2.2,1.6,2.9c0.4,0.5,0.7,0.6,0.9,0.6l10,0.2 c1.3,0,2.3-1,2.3-2.2l0.1-9.2c0-4.1,2.7-6.8,6.7-6.7l16.7,0.3C123.3,91.6,124.4,90.6,124.4,89.3"/><path class="st3" d="M66 69.2c3.5.1 6.9 4.3 8.3 7.2 1.4 2.9 1.5 5.5.2 7.1-.6.7-1.5 1.2-2.4 1.2-1.2 0-2.3-.7-3.4-1.5-.9-.6-2-1.4-2.8-1.4-.7 0-1.9.7-2.8 1.3-1.1.7-2.2 1.4-3.4 1.4-.9 0-1.8-.5-2.4-1.2-1.3-1.7-1.2-4.3.3-7.1C59.1 73.3 62.5 69.2 66 69.2zM72.7 82.1c2.1-2.7-3.3-10.6-6.7-10.6-3.4-.1-8.9 7.7-6.9 10.4.1.2.3.3.6.3 1.3 0 3.8-2.7 6.2-2.7 2.4 0 4.9 2.9 6.2 2.9C72.3 82.4 72.5 82.3 72.7 82.1M32.8 33c4.8.1 9.3 2.8 12.5 7.7 3.1 4.6 4.7 10.7 4.7 17.1s-1.8 12.4-5 16.9c-3.4 4.8-7.9 7.4-12.7 7.3-4.8-.1-9.3-2.8-12.5-7.7-3.1-4.6-4.7-10.7-4.7-17.1s1.8-12.4 5-16.9C23.5 35.5 28 32.9 32.8 33zM32.4 79.7c8.4.1 15.3-9.7 15.4-21.9.1-12.3-6.6-22.3-15-22.5-8.4-.1-15.3 9.7-15.4 21.9S24 79.5 32.4 79.7"/></g></g></g></svg>