<?xml version="1.0" encoding="utf-8"?>
<!-- Generator: Adobe Illustrator 24.2.3, SVG Export Plug-In . SVG Version: 6.00 Build 0)  -->
<svg version="1.1" id="Layer_1" xmlns="http://www.w3.org/2000/svg" xmlns:xlink="http://www.w3.org/1999/xlink" x="0px" y="0px"
	 viewBox="0 0 308 368" style="enable-background:new 0 0 308 368;" xml:space="preserve">
<style type="text/css">
	.st0{enable-background:new    ;}
	.st1{fill:#8F48FF;}
	.st2{fill:#FFFFFF;}
	.st3{display:none;}
	.st4{display:inline;enable-background:new    ;}
	.st5{opacity:0.6;}
</style>
<g>
	<g>
		<g>
			<g class="st0">
				<g>
					<g>
						<g>
							<path class="st1" d="M8.6,178.2l40.1-38.9c0,2.7,2.1,4.9,4.8,4.9l-40.1,38.9C10.7,183,8.6,180.8,8.6,178.2z"/>
						</g>
					</g>
				</g>
				<g>
					<g>
						<g>
							<path class="st1" d="M61.9,218.2l40.1-38.9c0,2.7,2.1,4.9,4.8,4.9l-40.1,38.9C64,223.1,61.9,220.9,61.9,218.2z"/>
						</g>
					</g>
				</g>
				<g>
					<g>
						<g>
							<polygon class="st1" points="13.4,183.1 53.6,144.2 87.8,144.8 47.7,183.7 							"/>
						</g>
					</g>
				</g>
				<g>
					<g>
						<g>
							<polygon class="st1" points="62.1,198.5 102.2,159.6 102,179.3 61.9,218.2 							"/>
						</g>
					</g>
				</g>
				<g>
					<g>
						<g>
							<polygon class="st1" points="66.7,223.1 106.8,184.2 128.5,184.6 88.4,223.5 							"/>
						</g>
					</g>
				</g>
				<g>
					<g>
						<g>
							<path class="st1" d="M130.4,184l-40.1,38.9c-0.6,0.5-1.1,0.6-1.9,0.6l40.1-38.9C129.3,184.6,129.9,184.6,130.4,184z"/>
						</g>
					</g>
				</g>
				<g>
					<g>
						<g>
							<path class="st2" d="M131.5,182.5c-0.4,0.7-0.7,1.2-1.1,1.5l-40.1,38.9c0.3-0.3,0.7-0.8,1.1-1.5
								C104.8,208.4,118.1,195.4,131.5,182.5z"/>
						</g>
					</g>
				</g>
				<g>
					<g>
						<g>
							<path class="st1" d="M47.7,183.7l40.1-38.9c8.2,0.1,14.5,6.6,14.4,14.8l-40.1,38.9C62.2,190.3,55.8,183.8,47.7,183.7z"/>
						</g>
					</g>
				</g>
				<g>
					<g>
						<g>
							<path class="st2" d="M131.5,182.5c-0.1,0.1-0.2,0.2-0.3,0.3c-0.1,0.1-0.2,0.2-0.3,0.3c-0.2,0.2-0.4,0.4-0.5,0.5
								c-0.3,0.3-0.7,0.6-1,1c-12.7,12.3-25.4,24.6-38.1,36.9c0.4-0.7,0.8-1.6,1.4-2.8c0.2-0.4,0.4-0.9,0.6-1.3
								c13.4-13,26.8-25.9,40.1-38.9c-0.2,0.4-0.4,0.9-0.6,1.3C132.3,180.8,131.9,181.8,131.5,182.5z"/>
						</g>
					</g>
				</g>
				<g>
					<g>
						<g>
							<path class="st2" d="M133.5,178.3c-0.2,0.3-0.7,0.7-1,1c-2.6,2.5-5.2,5-7.8,7.5c-2.9,2.8-5.9,5.7-8.8,8.5
								c-7.5,7.3-15,14.6-22.5,21.9c0.1-0.3,0.3-0.6,0.4-0.9c1.2-2.6,2.9-5.8,4.3-8.6c1.2-1.2,2.9-2.8,4.1-3.9
								c1.3-1.3,3-2.9,4.3-4.2c1.3-1.3,3.1-3,4.5-4.3c1.4-1.3,3.2-3.1,4.6-4.4c1.4-1.3,3.2-3.1,4.6-4.4c1.3-1.3,3.1-3,4.5-4.3
								c1.3-1.3,3-2.9,4.3-4.2c1.2-1.2,2.9-2.8,4.1-3.9c0.2-0.2,0.4-0.4,0.6-0.6c0.2-0.2,0.5-0.4,0.7-0.6c0.2-0.2,0.5-0.5,0.7-0.7
								c0.2-0.2,0.5-0.5,0.7-0.7c0.2-0.2,0.5-0.5,0.7-0.7c0.2-0.2,0.5-0.5,0.7-0.7c0.2-0.2,0.5-0.4,0.7-0.6c0.2-0.2,0.4-0.4,0.6-0.6
								c-1.4,2.8-3.1,6.1-4.3,8.6C133.7,177.8,133.6,178.1,133.5,178.3z"/>
						</g>
					</g>
				</g>
				<g>
					<g>
						<g>
							<path class="st2" d="M138.2,168.8c-0.1,0.1-0.2,0.2-0.3,0.3c-0.8,0.8-1.6,1.5-2.3,2.3c-0.9,0.9-1.8,1.7-2.6,2.6
								c-11.6,11.3-23.2,22.5-34.8,33.8c0.1-0.3,0.3-0.5,0.4-0.8c13.4-13,26.8-25.9,40.1-38.9C138.5,168.3,138.3,168.6,138.2,168.8z
								"/>
						</g>
					</g>
				</g>
				<g>
					<g>
						<g>
							<path class="st2" d="M138.6,168c-0.1,0.1-0.2,0.2-0.3,0.3c-0.3,0.3-0.6,0.6-0.9,0.9c-0.4,0.4-0.8,0.8-1.2,1.1
								c-12.6,12.2-25.1,24.4-37.7,36.6c1.4-2.8,2.5-4.9,2.6-5.1l40.1-38.9C141.1,163.1,140,165.3,138.6,168z"/>
						</g>
					</g>
				</g>
				<g>
					<g>
						<g>
							<path class="st1" d="M133.8,187.5l-40.1,38.9c2-1.9,3-4.9,4.4-7.9c2.6-5.5,7-14,7.3-14.4l40.1-38.9c-0.2,0.4-4.6,9-7.3,14.4
								C136.8,182.6,135.8,185.6,133.8,187.5z"/>
						</g>
					</g>
				</g>
				<g>
					<g>
						<g>
							<path class="st1" d="M109.8,202.1l40.1-38.9c0.2,0.4,4.2,9.3,6.4,14.9c0.8,2.1,1.8,4.4,2.8,5.8c0.8,1.1,1.4,1.3,2.3,1.3
								l-40.1,38.9c-0.9,0-1.5-0.2-2.3-1.3c-1.1-1.4-2-3.7-2.8-5.8C114,211.4,109.9,202.5,109.8,202.1z"/>
						</g>
					</g>
				</g>
				<g>
					<g>
						<g>
							<polygon class="st2" points="105.6,192.9 145.8,154 141.2,162.9 101,201.9 							"/>
						</g>
					</g>
				</g>
				<g>
					<g>
						<g>
							<polygon class="st1" points="105.6,192.9 145.8,154 149.9,163.2 109.8,202.1 							"/>
						</g>
					</g>
				</g>
				<g>
					<g>
						<g>
							<polygon class="st1" points="121.3,224.1 161.5,185.2 183.1,185.6 143,224.5 							"/>
						</g>
					</g>
				</g>
				<g>
					<g>
						<g>
							<path class="st1" d="M185.3,184.8l-40.1,38.9c-0.6,0.6-1.3,0.8-2.2,0.8l40.1-38.9C184,185.6,184.7,185.4,185.3,184.8z"/>
						</g>
					</g>
				</g>
				<g>
					<g>
						<g>
							<polygon class="st1" points="9.9,51.7 50,12.8 48.8,139.2 8.6,178.2 							"/>
						</g>
					</g>
				</g>
				<g>
					<g>
						<g>
							<path class="st2" d="M101.7,127.8c7.8,0.1,15.3-3,21.5-9.1l-40.1,38.9c-6.3,6-13.7,9.2-21.5,9.1c-10.3-0.2-19.8-6-26.7-16.5
								c-2.5-3.8-4.6-8-6.2-12.6c12.7-12.3,25.4-24.6,38.1-36.9c0.1-0.1,0.2-0.2,0.3-0.3c0.1-0.1,0.2-0.2,0.3-0.3
								c0.1-0.1,0.2-0.2,0.3-0.3c0.1-0.1,0.2-0.2,0.3-0.3c0.1-0.1,0.2-0.2,0.3-0.3c0,0,0.1-0.1,0.1-0.1c0,0,0.1-0.1,0.1-0.1
								c0.1-0.1,0.2-0.2,0.3-0.3c0,0,0.1-0.1,0.1-0.1c1.6,4.6,3.7,8.8,6.2,12.6C82,121.8,91.4,127.6,101.7,127.8z"/>
						</g>
					</g>
				</g>
				<g>
					<g>
						<g>
							<path class="st1" d="M120,115.1L79.9,154c-5.2,5.1-11.5,8-18.2,7.8l40.1-38.9C108.5,123.1,114.8,120.2,120,115.1z"/>
						</g>
					</g>
				</g>
				<g>
					<g>
						<g>
							<path class="st2" d="M188,180.1c-1.2,2.6-1.9,4-2.7,4.7l-40.1,38.9c0.8-0.7,1.5-2.1,2.7-4.7c0.2-0.4,0.4-0.8,0.5-1.1
								c13.4-13,26.8-25.9,40.1-38.9C188.4,179.3,188.2,179.7,188,180.1z"/>
						</g>
					</g>
				</g>
				<g>
					<g>
						<g>
							<path class="st2" d="M188.6,179c-0.3,0.4-0.8,0.8-1.2,1.2c-0.2,0.2-0.4,0.4-0.6,0.6c-1.1,1.1-2.2,2.1-3.3,3.2
								c-1.7,1.7-3.4,3.3-5.1,5c-10,9.7-19.9,19.3-29.9,29c0.1-0.2,0.2-0.4,0.3-0.5c0.9-1.8,1.9-4,2.9-6.1
								c13.4-13,26.8-25.9,40.1-38.9c-1,2.1-2,4.3-2.9,6.1C188.7,178.6,188.7,178.8,188.6,179z"/>
						</g>
					</g>
				</g>
				<g>
					<g>
						<g>
							<path class="st2" d="M68.8,98.7c-13.4,13-26.8,25.9-40.1,38.9c-2.5-7.3-3.9-15.5-3.8-23.9c0.1-11.3,2.7-22,7.5-30.9
								C45.8,69.9,59.1,57,72.5,44c-4.7,8.8-7.3,19.6-7.5,30.9C65,83.3,66.3,91.4,68.8,98.7z"/>
						</g>
					</g>
				</g>
				<g>
					<g>
						<g>
							<path class="st2" d="M191.7,172.3c-0.4,0.6-1.2,1.1-1.7,1.6c-0.3,0.3-0.6,0.6-0.9,0.8c-1.5,1.5-3,2.9-4.5,4.4
								c-2.3,2.3-4.6,4.5-7,6.8c-8.7,8.4-17.4,16.9-26.1,25.3c1.9-4.2,3.6-8.1,3.7-8.1l40.1-38.9
								C195.3,164.2,193.6,168.1,191.7,172.3z"/>
						</g>
					</g>
				</g>
				<g>
					<g>
						<g>
							<path class="st1" d="M188.7,188.3l-40.1,38.9c2-1.9,3.1-4.8,4.5-7.8c2.6-5.5,6.4-14,6.6-14.4l40.1-38.9
								c-0.2,0.4-4,9-6.6,14.4C191.8,183.5,190.7,186.4,188.7,188.3z"/>
						</g>
					</g>
				</g>
				<g>
					<g>
						<g>
							<path class="st2" d="M153.1,126c-13.4,13-26.8,25.9-40.1,38.9c-0.3-2.8,0.3-6,1.9-9.5c7.5-7.3,15-14.6,22.5-21.9
								c0.6-0.6,1.4-1.4,2.1-2c0.7-0.6,1.5-1.5,2.2-2.1c0.7-0.7,1.6-1.5,2.3-2.2c0.7-0.7,1.6-1.6,2.3-2.2s1.6-1.6,2.3-2.2
								c0.7-0.7,1.6-1.5,2.3-2.2c0.7-0.6,1.5-1.5,2.2-2.1c0.6-0.6,1.4-1.4,2.1-2C153.4,120,152.8,123.3,153.1,126z"/>
						</g>
					</g>
				</g>
				<g>
					<g>
						<g>
							<path class="st1" d="M11.3,48.3L51.5,9.4c-0.9,0.9-1.4,2.1-1.5,3.4L9.9,51.7C9.9,50.4,10.4,49.2,11.3,48.3z"/>
						</g>
					</g>
				</g>
				<g>
					<g>
						<g>
							<path class="st1" d="M164,203l40.1-38.9c0.2,0.4,4.5,9.2,7,14.8c1.2,2.7,2.2,4.8,3.3,6.1c0.9,1.2,1.5,1.2,1.9,1.2l-40.1,38.9
								c-0.4,0-1,0-1.9-1.2c-1.1-1.4-2.1-3.5-3.3-6.1C168.5,212.2,164.2,203.3,164,203z"/>
						</g>
					</g>
				</g>
				<g>
					<g>
						<g>
							<path class="st2" d="M170.4,128.4c-13.4,13-26.8,25.9-40.1,38.9c-1.1,0.6-2.2,1.3-3.1,1.9c-2.4,1.6-4.7,3-7.3,3
								c-2,0-3.9-1-5.1-2.6c-1-1.3-1.5-2.8-1.8-4.5c13.4-13,14.2-38.9,40.1-38.9c0.2,1.7,0.8,3.2,1.8,4.5c1.2,1.6,3,2.6,5.1,2.6
								c2.6,0,4.9-1.4,7.3-3C168.2,129.6,169.3,128.9,170.4,128.4z"/>
						</g>
					</g>
				</g>
				<g>
					<g>
						<g>
							<path class="st2" d="M51.5,9.4c0.9-0.9,2.1-1.4,3.4-1.4L14.8,47c-1.3,0-2.5,0.5-3.4,1.4C23.4,36.7,39.4,21.1,51.5,9.4z"/>
						</g>
					</g>
				</g>
				<g>
					<g>
						<g>
							<path class="st1" d="M44.4,74.8l40.1-38.9c-8.6,8.4-14.4,22.7-14.6,39c-0.3,26.2,14,47.7,31.9,48l-40.1,38.9
								c-17.9-0.3-32.1-21.8-31.9-48C29.9,97.5,35.7,83.2,44.4,74.8z"/>
						</g>
					</g>
				</g>
				<g>
					<g>
						<g>
							<polygon class="st2" points="159.4,193.5 199.6,154.6 195.4,164.1 155.2,203.1 							"/>
						</g>
					</g>
				</g>
				<g>
					<g>
						<g>
							<polygon class="st1" points="159.4,193.5 199.6,154.6 204.2,164 164,203 							"/>
						</g>
					</g>
				</g>
				<g>
					<g>
						<g>
							<path class="st2" d="M72.5,44c0,0-40.1,38.9-40.1,38.9c1-1.8,2.1-3.6,3.2-5.2c1.7-2.4,3.5-4.6,5.5-6.5l40.1-38.9
								c-2,1.9-3.8,4-5.5,6.5C74.6,40.4,73.5,42.2,72.5,44z"/>
						</g>
					</g>
				</g>
				<g>
					<g>
						<g>
							<path class="st1" d="M7.9,44.8L48.1,5.9c1.8-1.7,4.2-2.8,6.9-2.7L14.8,42.1C12.1,42.1,9.7,43.1,7.9,44.8z"/>
						</g>
					</g>
				</g>
				<g>
					<g>
						<g>
							<path class="st2" d="M177.1,129.1c-13.4,13-26.8,25.9-40.1,38.9c-1.4-0.9-2.8-1.6-3.9-1.7c-0.8,0-1.8,0.4-2.8,0.9
								c12.3-12,24.7-23.9,37-35.9c0.1-0.1,0.2-0.2,0.4-0.3c0.1-0.1,0.3-0.3,0.4-0.4c0.1-0.1,0.3-0.3,0.4-0.4
								c0.1-0.1,0.3-0.3,0.4-0.4c0.1-0.1,0.3-0.3,0.4-0.4c0.1-0.1,0.3-0.3,0.4-0.4c0.1-0.1,0.3-0.3,0.4-0.4c0.1-0.1,0.3-0.3,0.4-0.4
								c1-0.5,2-0.9,2.8-0.9C174.2,127.5,175.7,128.3,177.1,129.1z"/>
						</g>
					</g>
				</g>
				<g>
					<g>
						<g>
							<path class="st2" d="M181.5,132c-13.4,13-26.8,25.9-40.1,38.9c-0.8-0.5-1.6-1-2.4-1.6c-0.6-0.4-1.3-0.9-2-1.3
								c4.3-4.2,8.6-8.4,13-12.6c4.3-4.2,8.7-8.4,13-12.6c0.5-0.5,1.2-1.1,1.7-1.6c0.5-0.5,1.2-1.2,1.8-1.7c0.5-0.5,1.3-1.2,1.8-1.8
								c0.6-0.5,1.3-1.3,1.8-1.8c0.6-0.5,1.3-1.3,1.8-1.8c0.5-0.5,1.3-1.2,1.8-1.8c0.5-0.5,1.2-1.2,1.8-1.7c0.5-0.5,1.2-1.1,1.7-1.6
								c0.7,0.4,1.4,0.9,2,1.3C179.9,131,180.7,131.6,181.5,132z"/>
						</g>
					</g>
				</g>
				<g>
					<g>
						<g>
							<path class="st2" d="M155,116.6c-0.2,0.3-0.7,0.7-1,1c-2.6,2.5-5.2,5-7.8,7.5c-2.9,2.8-5.9,5.7-8.8,8.5
								c-7.5,7.3-15,14.6-22.5,21.9c0.2-0.4,0.4-0.8,0.6-1.3c1-2,2.6-4.4,4.4-6.6c13.4-13,26.8-25.9,40.1-38.9
								c-1.9,2.2-3.4,4.6-4.4,6.6C155.4,115.7,155.2,116.1,155,116.6z"/>
						</g>
					</g>
				</g>
				<g>
					<g>
						<g>
							<path class="st2" d="M181.5,132c1,0.6,1.9,1.1,2.9,1.3c-13.4,13-26.8,25.9-40.1,38.9c-1-0.3-2-0.8-2.9-1.3
								C154.7,158,168.1,145,181.5,132z"/>
						</g>
					</g>
				</g>
				<g>
					<g>
						<g>
							<polygon class="st1" points="176.3,225.1 216.4,186.2 237.8,186.5 197.6,225.4 							"/>
						</g>
					</g>
				</g>
				<g>
					<g>
						<g>
							<path class="st2" d="M160,108.7c-0.2,0.2-0.5,0.5-0.7,0.7c-0.4,0.4-1,1-1.4,1.4c-1.3,1.2-2.5,2.5-3.8,3.7
								c-2,1.9-3.9,3.8-5.9,5.7c-9.4,9.1-18.9,18.3-28.3,27.4c0.8-0.9,1.6-1.8,2.4-2.6l40.1-38.9C161.6,106.9,160.8,107.8,160,108.7
								z"/>
						</g>
					</g>
				</g>
				<g>
					<g>
						<g>
							<path class="st1" d="M241.2,185.2l-40.1,38.9c-0.9,0.9-2.1,1.4-3.4,1.4l40.1-38.9C239.1,186.5,240.3,186,241.2,185.2z"/>
						</g>
					</g>
				</g>
				<g>
					<g>
						<g>
							<path class="st1" d="M125.6,148.5l40.1-38.9c-5.4,5.3-9.9,14.1-7,18.1c0.3,0.4,0.7,0.6,1.2,0.6c2.8,0,8-5.8,13.3-5.7
								c5.2,0.1,10.4,6.2,13.1,6.2c0.4,0,0.8-0.1,1.1-0.4l-40.1,38.9c-0.3,0.3-0.7,0.4-1.1,0.4c-2.8,0-7.9-6.1-13.1-6.2
								c-5.2-0.1-10.5,5.8-13.3,5.7c-0.5,0-0.9-0.2-1.2-0.6C115.7,162.7,120.2,153.8,125.6,148.5z"/>
						</g>
					</g>
				</g>
				<g>
					<g>
						<g>
							<path class="st2" d="M186.3,133.7c1.7,0,3.3-0.6,4.5-1.8l-40.1,38.9c-1.2,1.2-2.8,1.8-4.5,1.8c-0.7,0-1.3-0.1-1.9-0.3
								c6.7-6.5,13.4-12.9,20-19.4c6.7-6.5,13.4-13,20.1-19.5C185,133.6,185.7,133.7,186.3,133.7z"/>
						</g>
					</g>
				</g>
				<g>
					<g>
						<g>
							<path class="st2" d="M241.2,185.2l-40.1,38.9c0.9-0.9,1.4-2.1,1.5-3.4l40.1-38.9C242.6,183.1,242.1,184.3,241.2,185.2z"/>
						</g>
					</g>
				</g>
				<g>
					<g>
						<g>
							<path class="st1" d="M122.3,145l40.1-38.9c3.2-3.1,7.1-5.5,11-5.4l-40.1,38.9C129.4,139.5,125.5,141.9,122.3,145z"/>
						</g>
					</g>
				</g>
				<g>
					<g>
						<g>
							<path class="st1" d="M41,71.3l40.1-38.9c6.3-6.1,13.7-9.3,21.6-9.1L62.6,62.1C54.8,62,47.3,65.2,41,71.3z"/>
						</g>
					</g>
				</g>
				<g>
					<g>
						<g>
							<path class="st1" d="M190.8,131.9l-40.1,38.9c0.2-0.2,0.4-0.4,0.6-0.7c2.8-3.6,2.6-9-0.4-15.3c-2.9-6.1-10-15.1-17.6-15.2
								l40.1-38.9c7.5,0.1,14.6,9.2,17.6,15.2c3,6.3,3.2,11.7,0.4,15.3C191.3,131.5,191,131.7,190.8,131.9z"/>
						</g>
					</g>
				</g>
				<g>
					<g>
						<g>
							<polygon class="st2" points="202.7,200.9 242.9,162 242.7,181.8 202.5,220.7 							"/>
						</g>
					</g>
				</g>
				<g>
					<g>
						<g>
							<path class="st1" d="M244.6,188.7l-40.1,38.9c1.8-1.7,2.9-4.1,2.9-6.8c0-0.7,0.1-14.8,0.2-19.7l40.1-38.9
								c0,4.9-0.2,19-0.2,19.7C247.5,184.5,246.4,186.9,244.6,188.7z"/>
						</g>
					</g>
				</g>
				<g>
					<g>
						<g>
							<path class="st1" d="M123.3,118.7l-40.1,38.9c1.9-1.9,3.7-4,5.4-6.4c6.7-9.6,10.5-22.5,10.7-36.1c0.1-13.6-3.4-26.6-10-36.5
								c-6.9-10.5-16.4-16.3-26.7-16.5l40.1-38.9c10.3,0.2,19.8,6,26.7,16.5c6.6,9.9,10.1,22.8,10,36.5
								c-0.1,13.6-3.9,26.5-10.7,36.1C127.1,114.7,125.3,116.8,123.3,118.7z"/>
						</g>
					</g>
				</g>
				<g>
					<g>
						<g>
							<path class="st2" d="M206.8,190.3l40.1-38.9c-2.6,2.5-4,6.1-4.1,10.6l-40.1,38.9C202.8,196.5,204.2,192.8,206.8,190.3z"/>
						</g>
					</g>
				</g>
				<g>
					<g>
						<g>
							<path class="st1" d="M210.2,193.8l40.1-38.9c-1.8,1.7-2.6,4.3-2.7,7.2L207.6,201C207.6,198.1,208.4,195.5,210.2,193.8z"/>
						</g>
					</g>
				</g>
				<g>
					<g>
						<g>
							<path class="st1" d="M206.8,190.3l40.1-38.9c2.5-2.4,6-3.7,10.3-3.7l-40.1,38.9C212.8,186.6,209.3,187.9,206.8,190.3z"/>
						</g>
					</g>
				</g>
				<g>
					<g>
						<g>
							<path class="st2" d="M244.3,130.3c7.8,0.1,15.3-3,21.5-9.1l-40.1,38.9c-6.3,6-13.7,9.2-21.5,9.1c-10.3-0.2-19.8-6-26.7-16.5
								c-2.9-4.4-5.2-9.4-6.9-14.8c13.4-13,26.8-25.9,40.1-38.9c1.7,5.4,4,10.4,6.9,14.8C224.5,124.3,234,130.1,244.3,130.3z"/>
						</g>
					</g>
				</g>
				<g>
					<g>
						<g>
							<path class="st1" d="M262.6,117.6l-40.1,38.9c-5.2,5.1-11.5,8-18.2,7.8l40.1-38.9C251.1,125.6,257.3,122.7,262.6,117.6z"/>
						</g>
					</g>
				</g>
				<g>
					<g>
						<g>
							<polygon class="st1" points="217.1,186.6 257.2,147.7 292.8,148.4 252.6,187.3 							"/>
						</g>
					</g>
				</g>
				<g>
					<g>
						<g>
							<path class="st1" d="M296.2,147l-40.1,38.9c-0.9,0.9-2.1,1.4-3.4,1.4l40.1-38.9C294.1,148.4,295.3,147.9,296.2,147z"/>
						</g>
					</g>
				</g>
				<g>
					<g>
						<g>
							<path class="st2" d="M210.7,99c-13.4,13-26.8,25.9-40.1,38.9c-2.1-6.7-3.1-14.1-3.1-21.7c0.1-10,2.1-19.5,5.9-27.7
								c13.4-13,26.8-25.9,40.1-38.9c-3.7,8.2-5.8,17.7-5.9,27.7C207.6,84.9,208.6,92.3,210.7,99z"/>
						</g>
					</g>
				</g>
				<g>
					<g>
						<g>
							<path class="st1" d="M186.9,77.3l40.1-38.9c-8.6,8.4-14.4,22.7-14.6,39c-0.3,26.2,14,47.7,31.9,48l-40.1,38.9
								c-17.9-0.3-32.1-21.8-31.9-48C172.5,100,178.3,85.7,186.9,77.3z"/>
						</g>
					</g>
				</g>
				<g>
					<g>
						<g>
							<path class="st2" d="M213.5,49.7c-0.2,0.3-0.6,0.5-0.8,0.8c-0.3,0.2-0.6,0.6-0.8,0.8c-0.6,0.6-1.2,1.1-1.7,1.7
								c-1.1,1.1-2.2,2.1-3.3,3.2c-11.2,10.8-22.3,21.6-33.5,32.4c1.4-3,3-5.8,4.8-8.4c1.7-2.4,3.5-4.6,5.5-6.5l40.1-38.9
								c-2,1.9-3.8,4-5.5,6.5C216.5,43.8,214.9,46.7,213.5,49.7z"/>
						</g>
					</g>
				</g>
				<g>
					<g>
						<g>
							<path class="st1" d="M183.6,73.7l40.1-38.9c6.3-6.1,13.7-9.3,21.6-9.1l-40.1,38.9C197.3,64.5,189.9,67.7,183.6,73.7z"/>
						</g>
					</g>
				</g>
				<g>
					<g>
						<g>
							<path class="st1" d="M265.9,121.2l-40.1,38.9c1.9-1.9,3.7-4,5.4-6.4c6.7-9.6,10.5-22.5,10.7-36.1c0.1-13.6-3.4-26.6-10-36.5
								c-6.9-10.5-16.4-16.3-26.7-16.5l40.1-38.9c10.3,0.2,19.8,6,26.7,16.5c6.6,9.9,10.1,22.8,10,36.5
								c-0.1,13.6-3.9,26.5-10.7,36.1C269.6,117.1,267.8,119.3,265.9,121.2z"/>
						</g>
					</g>
				</g>
				<g>
					<g>
						<g>
							<path class="st2" d="M254,51.1c2.7,0,4.8,2.3,4.8,4.9l-1.2,126.4c0,2.7-2.2,4.8-4.9,4.8l-35.6-0.6
								c-8.6-0.2-14.3,5.5-14.4,14.3l-0.2,19.7c0,2.7-2.2,4.8-4.9,4.8l-21.3-0.4c-0.4,0-1,0-1.9-1.2c-1.1-1.4-2.1-3.5-3.3-6.1
								c-2.5-5.5-6.8-14.4-7-14.8l-4.6-9.4l-4.2,9.5c0,0.1-4,9-6.5,14.3c-0.3,0.6-0.5,1.1-0.8,1.7c-2.2,4.7-2.9,5.5-4.9,5.5
								l-21.7-0.4c-0.9,0-1.5-0.2-2.3-1.3c-1.1-1.4-2-3.7-2.8-5.8c-2.2-5.6-6.2-14.5-6.4-14.9l-4.1-9.2l-4.6,8.9
								c-0.2,0.4-4.7,9.1-7.3,14.5c-0.4,0.7-0.7,1.5-1,2.2c-2.1,4.6-2.6,5-4.4,5l-21.7-0.4c-2.7,0-4.8-2.3-4.8-4.9l0.2-19.7
								c0.1-8.2-6.2-14.7-14.4-14.8l-34.3-0.6c-2.7,0-4.8-2.3-4.8-4.9L9.9,51.7c0-2.7,2.2-4.8,4.9-4.8L254,51.1z M231.2,153.6
								c6.7-9.6,10.5-22.5,10.7-36.1c0.1-13.6-3.4-26.6-10-36.5c-6.9-10.5-16.4-16.3-26.7-16.5c-10.3-0.2-19.9,5.3-27,15.5
								c-6.7,9.6-10.5,22.5-10.7,36.1c-0.1,13.6,3.4,26.6,10,36.5c6.9,10.5,16.4,16.3,26.7,16.5C214.4,169.4,224,163.9,231.2,153.6
								 M88.6,151.2c6.7-9.6,10.5-22.5,10.7-36.1c0.1-13.6-3.4-26.6-10-36.5c-6.9-10.5-16.4-16.3-26.7-16.5
								c-10.3-0.2-19.9,5.3-27,15.5c-6.7,9.6-10.5,22.5-10.7,36.1c-0.1,13.6,3.4,26.6,10,36.5c6.9,10.5,16.4,16.3,26.7,16.5
								C71.9,166.9,81.5,161.4,88.6,151.2 M151.3,170.1c2.8-3.6,2.6-9-0.4-15.3c-2.9-6.1-10-15.1-17.6-15.2
								c-7.5-0.1-14.8,8.7-17.9,14.6c-3.2,6.2-3.4,11.6-0.7,15.3c1.2,1.6,3,2.6,5.1,2.6c2.6,0,4.9-1.4,7.3-3
								c1.8-1.2,4.4-2.8,5.9-2.8c1.6,0,4,1.7,5.9,3c2.4,1.6,4.6,3.2,7.3,3.2C148.2,172.6,150.1,171.7,151.3,170.1"/>
						</g>
					</g>
				</g>
				<g>
					<g>
						<g>
							<path class="st2" d="M296.2,147l-40.1,38.9c0.9-0.9,1.4-2.1,1.5-3.4l40.1-38.9C297.7,144.9,297.1,146.1,296.2,147z"/>
						</g>
					</g>
				</g>
				<g>
					<g>
						<g>
							<polygon class="st2" points="14.8,47 54.9,8.1 294.1,12.2 254,51.1 							"/>
						</g>
					</g>
				</g>
				<g>
					<g>
						<g>
							<polygon class="st2" points="258.8,56.1 298.9,17.2 297.7,143.6 257.5,182.5 							"/>
						</g>
					</g>
				</g>
				<g>
					<g>
						<g>
							<path class="st2" d="M296.6,13c-13.4,13-26.8,25.9-40.1,38.9c-0.7-0.5-1.6-0.7-2.5-0.8l40.1-38.9
								C295,12.3,295.9,12.5,296.6,13z"/>
						</g>
					</g>
				</g>
				<g>
					<g>
						<g>
							<path class="st2" d="M296.6,13c1.4,0.9,2.3,2.4,2.3,4.2l-40.1,38.9c0-1.7-0.9-3.3-2.3-4.2C269.9,38.9,283.3,26,296.6,13z"/>
						</g>
					</g>
				</g>
				<g>
					<g>
						<g>
							<path class="st1" d="M254,46.3c5.3,0.1,9.7,4.5,9.6,9.9l-1.2,126.4c-0.1,5.3-4.5,9.6-9.8,9.5c-1.3,0-26.7-0.5-35.6-0.6
								c-6.5-0.1-9.4,4-9.5,9.5c0,4.9-0.2,19-0.2,19.7c-0.1,5.3-4.5,9.6-9.8,9.5c-0.8,0-16-0.3-21.3-0.4c-4.9-0.1-7-4.6-9.6-10.2
								c-2.5-5.5-6.7-14.2-7-14.7c-0.2,0.4-4,9-6.6,14.4c-2.4,4.9-4,10-10.1,9.8c-4.7-0.1-16.2-0.3-21.7-0.4
								c-5.5-0.1-7.6-5.1-9.6-10.2c-2.2-5.5-6.1-14.2-6.3-14.7c-0.2,0.4-4.6,9-7.3,14.4c-2.4,4.9-3.7,10-9.8,9.9
								c-4.8-0.1-20.8-0.4-21.7-0.4c-5.3-0.1-9.7-4.5-9.6-9.9c0-0.7,0.1-14.8,0.2-19.7c0.1-5.2-3.8-9.8-9.6-9.9
								c-8.6-0.1-33-0.6-34.3-0.6c-5.3-0.1-9.7-4.5-9.6-9.9L5,51.7c0.1-5.3,4.5-9.6,9.8-9.5L254,46.3z M257.5,182.5l1.2-126.4
								c0-2.7-2.1-4.9-4.8-4.9L14.8,47c-2.7,0-4.9,2.1-4.9,4.8L8.6,178.2c0,2.7,2.1,4.9,4.8,4.9l34.3,0.6
								c8.2,0.1,14.5,6.6,14.4,14.8l-0.2,19.7c0,2.7,2.1,4.9,4.8,4.9l21.7,0.4c1.8,0,2.3-0.4,4.4-5c0.3-0.7,0.6-1.4,1-2.2
								c2.6-5.4,7.1-14.2,7.3-14.5l4.6-8.9l4.1,9.2c0.2,0.4,4.2,9.3,6.4,14.9c0.8,2.1,1.8,4.4,2.8,5.8c0.8,1.1,1.4,1.3,2.3,1.3
								l21.7,0.4c2,0,2.7-0.7,4.9-5.5c0.3-0.5,0.5-1.1,0.8-1.7c2.6-5.3,6.5-14.2,6.5-14.3l4.2-9.5l4.6,9.4c0.2,0.4,4.5,9.2,7,14.8
								c1.2,2.7,2.2,4.8,3.3,6.1c0.9,1.2,1.5,1.2,1.9,1.2l21.3,0.4c2.7,0,4.9-2.1,4.9-4.8l0.2-19.7c0.1-8.8,5.7-14.5,14.4-14.3
								l35.6,0.6C255.3,187.3,257.5,185.2,257.5,182.5"/>
						</g>
					</g>
				</g>
				<g>
					<g>
						<g>
							<path class="st1" d="M133.3,139.6c7.5,0.1,14.6,9.2,17.6,15.2c3,6.3,3.2,11.7,0.4,15.3c-1.2,1.6-3.1,2.5-5.1,2.5
								c-2.6,0-4.9-1.6-7.3-3.2c-1.8-1.2-4.3-2.9-5.9-3c-1.6,0-4.1,1.6-5.9,2.8c-2.4,1.5-4.7,3-7.3,3c-2,0-3.9-1-5.1-2.6
								c-2.7-3.7-2.4-9.1,0.7-15.3C118.5,148.2,125.8,139.4,133.3,139.6z M147.5,167.1c4.4-5.7-7-22.6-14.2-22.7
								c-7.2-0.1-18.9,16.4-14.6,22.2c0.3,0.4,0.7,0.6,1.2,0.6c2.8,0,8-5.8,13.3-5.7c5.2,0.1,10.4,6.2,13.1,6.2
								C146.7,167.7,147.1,167.6,147.5,167.1"/>
						</g>
					</g>
				</g>
				<g>
					<g>
						<g>
							<path class="st1" d="M62.6,62.1c10.3,0.2,19.8,6,26.7,16.5c6.6,9.9,10.1,22.8,10,36.5c-0.1,13.6-3.9,26.5-10.7,36.1
								c-7.1,10.2-16.7,15.7-27,15.5c-10.3-0.2-19.8-6-26.7-16.5c-6.6-9.9-10.1-22.8-10-36.5c0.1-13.6,3.9-26.5,10.7-36.1
								C42.7,67.5,52.3,61.9,62.6,62.1z M61.6,161.9c17.9,0.3,32.5-20.7,32.8-46.9c0.3-26.2-14-47.7-31.9-48
								C44.7,66.7,30,87.6,29.8,113.8C29.5,140.1,43.8,161.5,61.6,161.9"/>
						</g>
					</g>
				</g>
				<g>
					<g>
						<g>
							<path class="st1" d="M299.6,150.5l-40.1,38.9c1.8-1.7,2.9-4.1,2.9-6.8l40.1-38.9C302.5,146.4,301.4,148.8,299.6,150.5z"/>
						</g>
					</g>
				</g>
				<g>
					<g>
						<g>
							<path class="st1" d="M205.2,64.6c10.3,0.2,19.8,6,26.7,16.5c6.6,9.9,10.1,22.8,10,36.5c-0.1,13.6-3.9,26.5-10.7,36.1
								c-7.1,10.2-16.7,15.7-27,15.5c-10.3-0.2-19.8-6-26.7-16.5c-6.6-9.9-10.1-22.8-10-36.5c0.1-13.6,3.9-26.5,10.7-36.1
								C185.3,70,194.9,64.4,205.2,64.6z M204.2,164.3c17.9,0.3,32.5-20.7,32.8-46.9c0.3-26.2-14-47.7-31.9-48
								c-17.9-0.3-32.5,20.7-32.8,46.9C172.1,142.5,186.4,164,204.2,164.3"/>
						</g>
					</g>
				</g>
				<g>
					<g>
						<g>
							<polygon class="st1" points="14.8,42.1 54.9,3.2 294.2,7.4 254,46.3 							"/>
						</g>
					</g>
				</g>
				<g>
					<g>
						<g>
							<polygon class="st1" points="263.6,56.2 303.8,17.3 302.5,143.7 262.4,182.6 							"/>
						</g>
					</g>
				</g>
				<g>
					<g>
						<g>
							<path class="st1" d="M254,46.3l40.1-38.9c5.3,0.1,9.7,4.5,9.6,9.9l-40.1,38.9C263.7,50.8,259.4,46.4,254,46.3z"/>
						</g>
					</g>
				</g>
			</g>
		</g>
		<g>
			<g>
				<g>
					<g class="st0">
						<g>
							<g>
								<g>
									<polygon class="st1" points="81.1,340.1 86.9,334.5 86,336.8 80.3,342.3 									"/>
								</g>
							</g>
						</g>
						<g>
							<g>
								<g>
									<polygon class="st1" points="78.9,339.2 84.6,333.6 86.9,334.5 81.1,340.1 									"/>
								</g>
							</g>
						</g>
						<g>
							<g>
								<g>
									<path class="st1" d="M105.4,349.6l-5.7,5.6c-1.2,1.2-2.6,2.1-4.6,2.8c-1.1,0.4-2.1,0.5-3.2,0.5c-4.6-0.1-9-3.3-10.3-5.6
										c-2.2-4.1-2.6-7.1-1.3-10.5l5.7-5.6c-1.3,3.4-0.9,6.4,1.3,10.5c1.3,2.3,5.7,5.5,10.3,5.6c1.1,0,2.2-0.1,3.2-0.5
										C102.8,351.6,104.2,350.7,105.4,349.6z"/>
								</g>
							</g>
						</g>
						<g>
							<g>
								<g>
									<path class="st2" d="M106.5,348.4c-0.3,0.4-0.7,0.8-1,1.1l-5.7,5.6c0.4-0.3,0.7-0.7,1-1.1
										C102.7,352.1,104.6,350.3,106.5,348.4z"/>
								</g>
							</g>
						</g>
						<g>
							<g>
								<g>
									<path class="st2" d="M106.7,348.2c-0.1,0.1-0.1,0.2-0.2,0.2c-1.9,1.9-3.8,3.7-5.7,5.6c0.1-0.1,0.1-0.2,0.2-0.2
										C102.9,351.9,104.8,350,106.7,348.2z"/>
								</g>
							</g>
						</g>
						<g>
							<g>
								<g>
									<path class="st1" d="M75.1,319.4l5.7-5.6c-3.5,3.4-4.2,9.3-3.2,11.9c1.6,4.3,3.6,6.6,7,7.9l-5.7,5.6
										c-3.4-1.3-5.4-3.6-7-7.9C70.9,328.6,71.7,322.7,75.1,319.4z"/>
								</g>
							</g>
						</g>
						<g>
							<g>
								<g>
									<path class="st2" d="M106.7,348.2C106.7,348.2,106.6,348.2,106.7,348.2c-0.1,0.1-0.2,0.2-0.2,0.2c0,0-0.1,0.1-0.1,0.1
										c-0.1,0.1-0.2,0.2-0.3,0.3c-0.2,0.2-0.4,0.4-0.6,0.6c-1.5,1.4-3,2.9-4.5,4.3c0.8-1,1.6-2.2,2.6-3.6
										c0.3-0.4,0.5-0.7,0.8-1.1c1.9-1.9,3.8-3.7,5.7-5.6c-0.3,0.4-0.5,0.8-0.8,1.1C108.3,346,107.5,347.2,106.7,348.2z"/>
								</g>
							</g>
						</g>
						<g>
							<g>
								<g>
									<path class="st2" d="M110,343.5C110,343.5,110,343.6,110,343.5c-0.1,0.1-0.2,0.1-0.2,0.2c-0.1,0.1-0.1,0.1-0.2,0.2
										c-1.8,1.7-3.6,3.5-5.3,5.2c0.7-1,1.5-2.2,2.5-3.4c0.1-0.1,0.3-0.3,0.4-0.4c0.1-0.1,0.3-0.3,0.4-0.4
										c0.1-0.1,0.3-0.3,0.4-0.4c0.1-0.1,0.3-0.3,0.4-0.4c0.1-0.1,0.3-0.3,0.4-0.4c0.1-0.1,0.3-0.3,0.4-0.4
										c0.1-0.1,0.3-0.3,0.4-0.4c0.1-0.1,0.3-0.3,0.4-0.4c0.4-0.4,0.8-0.8,1.2-1.1c0.4-0.4,0.8-0.8,1.2-1.1
										C111.5,341.3,110.7,342.5,110,343.5z"/>
								</g>
							</g>
						</g>
						<g>
							<g>
								<g>
									<path class="st1" d="M113.5,345.4l5.7-5.6c-0.9,0.9-1.9,1.9-2.7,3c-1.3,1.7-2.4,3.2-3.3,4.6c-1.5,2.1-2.8,4-4.4,5.6
										l-5.7,5.6c1.7-1.6,3-3.5,4.4-5.6c0.9-1.4,2-2.9,3.3-4.6C111.7,347.3,112.6,346.3,113.5,345.4z"/>
								</g>
							</g>
						</g>
						<g>
							<g>
								<g>
									<path class="st2" d="M112.5,340.1c-0.1,0.1-0.2,0.2-0.3,0.3c-0.3,0.3-0.6,0.6-0.9,0.9c-0.4,0.4-0.8,0.8-1.2,1.1
										c-1.1,1.1-2.3,2.2-3.4,3.3c0.1-0.1,0.1-0.2,0.2-0.3c1-1.3,2.1-2.5,3.2-3.6l5.7-5.6c-1.1,1.1-2.2,2.3-3.2,3.6
										C112.6,339.9,112.5,340,112.5,340.1z"/>
								</g>
							</g>
						</g>
						<g>
							<g>
								<g>
									<path class="st1" d="M110.1,341.8l5.7-5.6c5-4.8,10.3-7.2,10.6-7.4l-5.7,5.6C120.4,334.6,115.1,337,110.1,341.8z"/>
								</g>
							</g>
						</g>
						<g>
							<g>
								<g>
									<path class="st2" d="M102,312c8.3,0.1,15.4-2.9,15.8-3.1l-5.7,5.6c-0.3,0.1-7.5,3.2-15.8,3.1c-0.6,0-1.2,0-1.8-0.1
										c-2.3-0.2-4.2-0.4-5.9-0.6c-1.9-0.3-3.5-0.5-5-0.5c-2.2,0-4.1,0.3-6.4,1.6c-0.8,0.4-1.4,0.9-2,1.5l5.7-5.6
										c0.6-0.6,1.3-1.1,2-1.5c2.4-1.2,4.3-1.6,6.4-1.6c1.5,0,3,0.2,5,0.5c1.7,0.2,3.6,0.5,5.9,0.6C100.8,312,101.4,312,102,312z"
										/>
								</g>
							</g>
						</g>
						<g>
							<g>
								<g>
									<path class="st1" d="M71.7,315.9l5.7-5.6c0.9-0.9,2-1.7,3.1-2.3c3.2-1.7,6-2.2,8.8-2.1c1.8,0,3.6,0.3,5.5,0.5
										c1.6,0.2,3.5,0.5,5.6,0.6c0.5,0,1,0.1,1.5,0.1c7.2,0.1,13.7-2.6,13.8-2.7l-5.7,5.6c-0.1,0-6.5,2.8-13.8,2.7
										c-0.5,0-1,0-1.5-0.1c-2.1-0.2-4-0.4-5.6-0.6c-1.9-0.3-3.7-0.5-5.5-0.5c-2.8,0-5.5,0.4-8.8,2.1
										C73.7,314.2,72.6,315,71.7,315.9z"/>
								</g>
							</g>
						</g>
						<g>
							<g>
								<g>
									<polygon class="st1" points="120.7,334.5 126.4,328.9 197.9,297.3 192.2,302.9 									"/>
								</g>
							</g>
						</g>
						<g>
							<g>
								<g>
									<polygon class="st2" points="112.1,314.5 117.8,309 189.3,277.3 183.5,282.9 									"/>
								</g>
							</g>
						</g>
						<g>
							<g>
								<g>
									<polygon class="st1" points="110.1,310.1 115.8,304.5 187.3,272.9 181.5,278.4 									"/>
								</g>
							</g>
						</g>
						<g>
							<g>
								<g>
									<path class="st2" d="M199.9,269.9l-5.7,5.6c-5,4.9-10.4,7.3-10.7,7.4l5.7-5.6C189.5,277.2,194.9,274.7,199.9,269.9z"/>
								</g>
							</g>
						</g>
						<g>
							<g>
								<g>
									<path class="st1" d="M196.6,266.4l-5.7,5.6c-4.4,4.3-9.2,6.5-9.3,6.5l5.7-5.6C187.3,272.9,192.1,270.6,196.6,266.4z"/>
								</g>
							</g>
						</g>
						<g>
							<g>
								<g>
									<path class="st1" d="M192.2,302.9l5.7-5.6c0.3-0.1,7.5-3.2,15.9-3.1c0.6,0,1.2,0,1.8,0.1c2.3,0.2,4.2,0.4,5.9,0.7
										c1.9,0.3,3.5,0.5,5,0.5c2.2,0,4.1-0.3,6.5-1.6l-5.7,5.6c-2.4,1.2-4.3,1.6-6.5,1.6c-1.5,0-3.1-0.2-5-0.5
										c-1.7-0.2-3.6-0.5-5.9-0.7c-0.6,0-1.2-0.1-1.8-0.1C199.7,299.6,192.5,302.7,192.2,302.9z"/>
								</g>
							</g>
						</g>
						<g>
							<g>
								<g>
									<path class="st1" d="M235,292.4l-5.7,5.6c-0.6,0.6-1.3,1.1-2,1.5l5.7-5.6C233.7,293.5,234.4,293,235,292.4z"/>
								</g>
							</g>
						</g>
						<g>
							<g>
								<g>
									<path class="st1" d="M204.6,262.3l5.7-5.6c-1.3,1.3-2.4,2.8-3.8,4.9c-1,1.4-2.1,3-3.5,4.8c-1,1.3-2.1,2.4-3.1,3.5l-5.7,5.6
										c1.1-1.1,2.2-2.2,3.1-3.5c1.4-1.8,2.5-3.4,3.5-4.8C202.2,265.1,203.3,263.5,204.6,262.3z"/>
								</g>
							</g>
						</g>
						<g>
							<g>
								<g>
									<path class="st2" d="M238.6,281.8c0.4,3-0.6,7.7-3.6,10.6l-5.7,5.6c3-2.9,3.9-7.6,3.6-10.6
										C234.7,285.5,236.7,283.7,238.6,281.8z"/>
								</g>
							</g>
						</g>
						<g>
							<g>
								<g>
									<polygon class="st2" points="223.2,277.2 229,271.6 231.2,272.5 225.5,278.1 									"/>
								</g>
							</g>
						</g>
						<g>
							<g>
								<g>
									<path class="st2" d="M238.3,280.5c0.1,0.4,0.2,0.8,0.3,1.3c-1.9,1.9-3.8,3.7-5.7,5.6c-0.1-0.5-0.2-1-0.3-1.3
										c-0.2-0.5-0.3-0.9-0.5-1.3c1.9-1.9,3.8-3.7,5.7-5.6C237.9,279.6,238.1,280,238.3,280.5z"/>
								</g>
							</g>
						</g>
						<g>
							<g>
								<g>
									<path class="st2" d="M237.7,279.1c-1.9,1.9-3.8,3.7-5.7,5.6c0-0.1-0.1-0.1-0.1-0.2c0.5-0.4,0.9-0.9,1.4-1.3
										c0.2-0.2,0.5-0.5,0.7-0.7c0.2-0.2,0.5-0.5,0.8-0.7c1-0.9,1.9-1.9,2.9-2.8C237.7,279,237.7,279.1,237.7,279.1z"/>
								</g>
							</g>
						</g>
						<g>
							<g>
								<g>
									<path class="st2" d="M237.5,278.6c0.1,0.1,0.1,0.2,0.2,0.3c-1.9,1.9-3.8,3.7-5.7,5.6c-0.1-0.1-0.1-0.2-0.2-0.3
										C233.7,282.3,235.6,280.4,237.5,278.6z"/>
								</g>
							</g>
						</g>
						<g>
							<g>
								<g>
									<path class="st2" d="M237.5,278.6c-1.9,1.9-3.8,3.7-5.7,5.6c-0.3-0.7-0.7-1.3-1-1.9c1.9-1.9,3.8-3.7,5.7-5.6
										C236.8,277.3,237.2,277.9,237.5,278.6z"/>
								</g>
							</g>
						</g>
						<g>
							<g>
								<g>
									<polygon class="st2" points="224.1,274.9 229.8,269.4 229,271.6 223.2,277.2 									"/>
								</g>
							</g>
						</g>
						<g>
							<g>
								<g>
									<path class="st2" d="M236.5,276.7c-1.9,1.9-3.8,3.7-5.7,5.6c-1.3-2-3-3.3-5.2-4.2l5.7-5.6
										C233.5,273.4,235.2,274.7,236.5,276.7z"/>
								</g>
							</g>
						</g>
						<g>
							<g>
								<g>
									<path class="st1" d="M238.4,295.9l-5.7,5.6c4.9-4.7,6-12.6,4.4-17l5.7-5.6C244.4,283.3,243.3,291.2,238.4,295.9z"/>
								</g>
							</g>
						</g>
						<g>
							<g>
								<g>
									<path class="st2" d="M204.6,262.3l5.7-5.6c1.2-1.2,2.6-2.1,4.7-2.8c1.1-0.4,2.2-0.6,3.3-0.5l-5.7,5.6
										c-1.1,0-2.2,0.1-3.3,0.5C207.3,260.2,205.8,261.1,204.6,262.3z"/>
								</g>
							</g>
						</g>
						<g>
							<g>
								<g>
									<path class="st2" d="M218.3,253.3c1.1,0,2.3,0.2,3.3,0.6c-1.9,1.9-3.8,3.7-5.7,5.6c-1.1-0.3-2.2-0.6-3.3-0.6
										C214.3,257.2,216.6,255,218.3,253.3z"/>
								</g>
							</g>
						</g>
						<g>
							<g>
								<g>
									<path class="st1" d="M229.3,274.5l5.7-5.6c4.6,2.5,6.6,6.5,7.8,9.9l-5.7,5.6C235.9,281.1,233.9,277,229.3,274.5z"/>
								</g>
							</g>
						</g>
						<g>
							<g>
								<g>
									<path class="st2" d="M228.6,258.9c2.2,4,2.6,7.1,1.2,10.5l-5.7,5.6c1.3-3.4,0.9-6.4-1.2-10.5c0,0,0,0,0,0
										C224.8,262.6,226.7,260.7,228.6,258.9C228.6,258.9,228.6,258.9,228.6,258.9z"/>
								</g>
							</g>
						</g>
						<g>
							<g>
								<g>
									<path class="st2" d="M228.4,258.6c0.1,0.1,0.1,0.2,0.2,0.3c-1.9,1.9-3.8,3.7-5.7,5.6c-0.1-0.1-0.1-0.2-0.2-0.3
										C224.6,262.3,226.5,260.5,228.4,258.6z"/>
								</g>
							</g>
						</g>
						<g>
							<g>
								<g>
									<path class="st2" d="M228.4,258.6c-1.9,1.9-3.8,3.7-5.7,5.6c-1.1-1.7-3.7-3.7-6.8-4.7c1.1-1,2.2-2.1,3.2-3.1
										c0.2-0.2,0.5-0.5,0.7-0.7c0.4-0.3,0.7-0.7,1.1-1c0.2-0.2,0.5-0.4,0.7-0.6C224.7,254.9,227.3,256.9,228.4,258.6z"/>
								</g>
							</g>
						</g>
						<g>
							<g>
								<g>
									<path class="st1" d="M201.2,258.8l5.7-5.6c1.6-1.6,3.6-2.9,6.4-3.9c1.7-0.6,3.4-0.9,5-0.8c6.4,0.1,12.4,4.2,14.5,8.1
										c1.7,3.1,3.4,7.3,2.2,12.3l-5.7,5.6c1.2-5.1-0.5-9.2-2.2-12.3c-2.1-3.9-8.1-8-14.5-8.1c-1.7,0-3.4,0.2-5,0.8
										C204.8,255.9,202.9,257.2,201.2,258.8z"/>
								</g>
							</g>
						</g>
						<g>
							<g>
								<g>
									<path class="st1" d="M237.1,284.4c1.9,5.3-0.1,15.4-7.6,19.3c-3.3,1.7-6,2.2-8.8,2.1c-1.8,0-3.6-0.3-5.5-0.5
										c-1.6-0.2-3.5-0.5-5.6-0.6c-0.5,0-1-0.1-1.6-0.1c-7.3-0.1-13.7,2.6-13.8,2.7l-71.4,31.6c-0.1,0-7.1,3.3-11.9,9.5
										c-1.3,1.7-2.4,3.2-3.3,4.6c-2.9,4.2-5.1,7.4-10.7,9.5c-1.6,0.6-3.3,0.9-5,0.8c-6.3-0.1-12.4-4.3-14.5-8.2
										c-1.7-3.1-3.4-7.3-2.2-12.4c-4.6-2.5-6.5-6.5-7.8-9.9c-1.9-5.3,0.1-15.4,7.6-19.3c3.2-1.7,6-2.2,8.8-2.1
										c1.8,0,3.6,0.3,5.5,0.5c1.6,0.2,3.5,0.5,5.6,0.6c0.5,0,1,0.1,1.5,0.1c7.2,0.1,13.7-2.6,13.8-2.7l71.4-31.6
										c0.1,0,7.2-3.3,12-9.5c1.3-1.7,2.4-3.2,3.3-4.6c2.9-4.2,5.1-7.4,10.8-9.5c1.7-0.6,3.4-0.9,5-0.8c6.4,0.1,12.4,4.2,14.5,8.1
										c1.7,3.1,3.4,7.3,2.2,12.3C233.9,277,235.9,281.1,237.1,284.4z M227.2,299.4c5.2-2.7,6.4-10.3,5.3-13.4
										c-1.6-4.3-3.6-6.6-7-8l-2.3-0.9l0.9-2.3c1.3-3.4,0.9-6.4-1.2-10.5c-1.3-2.3-5.7-5.5-10.3-5.6c-1.1,0-2.2,0.1-3.3,0.5
										c-4.2,1.5-5.7,3.7-8.5,7.7c-1,1.4-2.1,3-3.5,4.8c-5.6,7.2-13.5,10.8-13.8,10.9l-71.5,31.6c-0.3,0.1-7.5,3.2-15.8,3.1
										c-0.6,0-1.2,0-1.8-0.1c-2.3-0.2-4.2-0.4-5.9-0.6c-1.9-0.3-3.5-0.5-5-0.5c-2.2,0-4.1,0.3-6.4,1.6
										c-5.2,2.7-6.4,10.3-5.3,13.3c1.6,4.3,3.6,6.6,7,7.9l2.3,0.9l-0.9,2.3c-1.3,3.4-0.9,6.4,1.3,10.5c1.3,2.3,5.7,5.5,10.3,5.6
										c1.1,0,2.2-0.1,3.2-0.5c4.2-1.5,5.7-3.7,8.4-7.7c1-1.4,2.1-3,3.4-4.8c5.5-7.2,13.4-10.8,13.7-10.9l71.5-31.6
										c0.3-0.1,7.5-3.2,15.9-3.1c0.6,0,1.2,0,1.8,0.1c2.3,0.2,4.2,0.4,5.9,0.7c1.9,0.3,3.5,0.5,5,0.5
										C222.9,301,224.9,300.7,227.2,299.4"/>
								</g>
							</g>
						</g>
						<g>
							<g>
								<g>
									<path class="st2" d="M212.6,258.9c4.6,0.1,9,3.2,10.3,5.6c2.2,4,2.6,7.1,1.2,10.5l-0.9,2.3l2.3,0.9c3.4,1.3,5.4,3.6,7,8
										c1.1,3.1-0.1,10.7-5.3,13.4c-2.4,1.2-4.3,1.6-6.5,1.6c-1.5,0-3.1-0.2-5-0.5c-1.7-0.2-3.6-0.5-5.9-0.7
										c-0.6,0-1.2-0.1-1.8-0.1c-8.4-0.1-15.5,2.9-15.9,3.1l-71.5,31.6c-0.3,0.1-8.2,3.7-13.7,10.9c-1.4,1.8-2.5,3.4-3.4,4.8
										c-2.7,4-4.2,6.2-8.4,7.7c-1.1,0.4-2.1,0.5-3.2,0.5c-4.6-0.1-9-3.3-10.3-5.6c-2.2-4.1-2.6-7.1-1.3-10.5l0.9-2.3l-2.3-0.9
										c-3.4-1.3-5.4-3.6-7-7.9c-1.1-3.1,0.1-10.6,5.3-13.3c2.4-1.2,4.3-1.6,6.4-1.6c1.5,0,3,0.2,5,0.5c1.7,0.2,3.6,0.5,5.9,0.6
										c0.6,0,1.2,0.1,1.8,0.1c8.3,0.1,15.4-2.9,15.8-3.1l71.5-31.6c0.3-0.2,8.2-3.8,13.8-10.9c1.4-1.8,2.5-3.4,3.5-4.8
										c2.8-4,4.3-6.2,8.5-7.7C210.4,259,211.5,258.9,212.6,258.9z"/>
								</g>
							</g>
						</g>
					</g>
				</g>
			</g>
			<g>
				<g>
					<g class="st0">
						<g>
							<g>
								<g>
									<path class="st1" d="M43.2,277.7l5.7-5.6c-1.3,1.3-2.3,3-3.3,5.3c-1.2,3-0.1,10.7,5,13.6c2.4,1.3,4.3,1.8,6.5,1.8
										c1.4,0,3-0.1,4.9-0.3c1.7-0.2,3.7-0.3,5.9-0.4c0.6,0,1.1,0,1.7,0c8.4,0.1,15.6,3.5,15.9,3.7l-5.7,5.6
										c-0.3-0.2-7.5-3.5-15.9-3.7c-0.6,0-1.1,0-1.7,0c-2.3,0.1-4.2,0.3-5.9,0.4c-1.9,0.2-3.5,0.3-4.9,0.3c-2.2,0-4.1-0.5-6.5-1.8
										c-5.1-2.9-6.2-10.5-5-13.6C40.9,280.7,41.9,279,43.2,277.7z"/>
								</g>
							</g>
						</g>
						<g>
							<g>
								<g>
									<path class="st2" d="M52.6,270c-1.9,1.9-3.8,3.7-5.7,5.6c-1.4,0.5-2.6,1.2-3.6,2.2l5.7-5.6C50,271.2,51.2,270.5,52.6,270z"
										/>
								</g>
							</g>
						</g>
						<g>
							<g>
								<g>
									<path class="st1" d="M39.8,274.3l5.7-5.6c1-1,2.2-1.8,3.6-2.6l-5.7,5.6C42,272.4,40.8,273.3,39.8,274.3z"/>
								</g>
							</g>
						</g>
						<g>
							<g>
								<g>
									<path class="st2" d="M52.6,270c0.1,0,0.2-0.1,0.3-0.1l-5.7,5.6c-0.1,0-0.2,0.1-0.3,0.1c0.2-0.2,0.4-0.4,0.5-0.5
										c0.2-0.2,0.4-0.4,0.6-0.5c0.2-0.2,0.4-0.4,0.6-0.6c0.2-0.2,0.4-0.4,0.6-0.6c0.2-0.2,0.4-0.4,0.6-0.6
										c0.2-0.2,0.4-0.4,0.6-0.6c0.2-0.2,0.4-0.4,0.6-0.5c0.2-0.2,0.4-0.4,0.5-0.5c0,0,0.1-0.1,0.1-0.1c0,0,0.1-0.1,0.2-0.1
										c0,0,0.1-0.1,0.2-0.2c0,0,0.1-0.1,0.2-0.2c0,0,0.1-0.1,0.2-0.2c0,0,0.1-0.1,0.2-0.2c0,0,0.1-0.1,0.2-0.1
										C52.5,270.1,52.6,270,52.6,270z"/>
								</g>
							</g>
						</g>
						<g>
							<g>
								<g>
									<polygon class="st2" points="47.1,275.4 52.9,269.9 55.2,269.1 49.4,274.6 									"/>
								</g>
							</g>
						</g>
						<g>
							<g>
								<g>
									<polygon class="st1" points="48.6,272.3 54.4,266.8 55.2,269.1 49.4,274.6 									"/>
								</g>
							</g>
						</g>
						<g>
							<g>
								<g>
									<path class="st1" d="M55.2,257.5c-1.7,3.4-1.9,6.1-0.8,9.2l-5.7,5.6c-1.1-3.1-0.9-5.8,0.8-9.2c0.2-0.2,0.5-0.5,0.7-0.6
										c0.2-0.2,0.5-0.5,0.7-0.7c0.2-0.2,0.5-0.5,0.7-0.7c0.2-0.2,0.5-0.5,0.8-0.7c0.2-0.2,0.5-0.5,0.8-0.7
										c0.2-0.2,0.5-0.5,0.7-0.7c0.2-0.2,0.5-0.5,0.7-0.7C54.7,258,55,257.7,55.2,257.5z"/>
								</g>
							</g>
						</g>
						<g>
							<g>
								<g>
									<path class="st1" d="M55.9,256.3c-0.2,0.4-0.5,0.8-0.7,1.2c-1.1,1-2.2,2.1-3.2,3.1c-0.6,0.6-1.2,1.2-1.8,1.8
										c-0.1,0.1-0.2,0.2-0.3,0.3c-0.1,0.1-0.2,0.3-0.3,0.3c0.2-0.4,0.4-0.8,0.7-1.2c0.3-0.5,0.7-1,1.2-1.5l5.7-5.6
										C56.5,255.4,56.1,255.8,55.9,256.3z"/>
								</g>
							</g>
						</g>
						<g>
							<g>
								<g>
									<path class="st2" d="M57,254.9c0.7-0.7,1.7-1.4,2.8-2c-1.9,1.9-3.8,3.7-5.7,5.6c-1.1,0.6-2.1,1.3-2.8,2
										C53,258.8,55.3,256.5,57,254.9z"/>
								</g>
							</g>
						</g>
						<g>
							<g>
								<g>
									<path class="st2" d="M59.8,252.8c1.9-1,4.1-1.8,6.4-1.7l-5.7,5.6c-2.3,0-4.6,0.7-6.4,1.7c0.2-0.2,0.5-0.5,0.7-0.6
										c0.2-0.2,0.5-0.5,0.7-0.7c0.2-0.2,0.5-0.5,0.7-0.7c0.2-0.2,0.5-0.5,0.8-0.7c0.2-0.2,0.5-0.5,0.8-0.7
										c0.2-0.2,0.5-0.5,0.7-0.7c0.2-0.2,0.5-0.5,0.7-0.7C59.4,253.3,59.6,253,59.8,252.8z"/>
								</g>
							</g>
						</g>
						<g>
							<g>
								<g>
									<path class="st2" d="M60.5,256.7l5.7-5.6c1.1,0,2.2,0.2,3.3,0.7c4.2,1.7,5.6,4,8.3,8.1c0.9,1.4,2,3.1,3.4,4.9
										c5.4,7.4,13.2,11.6,13.5,11.7l-5.7,5.6c-0.3-0.2-8.1-4.4-13.5-11.7c-1.3-1.8-2.4-3.5-3.4-4.9c-2.7-4.1-4.1-6.4-8.3-8.1
										C62.7,256.9,61.6,256.7,60.5,256.7z"/>
								</g>
							</g>
						</g>
						<g>
							<g>
								<g>
									<path class="st1" d="M47.9,256.9l5.7-5.6c2.9-2.8,7.7-5.2,12.6-5.1c1.7,0,3.4,0.3,5,1c5.6,2.3,7.8,5.7,10.6,9.9
										c0.9,1.4,1.9,3,3.2,4.7c4.5,6.2,11.3,10,11.8,10.3l-5.7,5.6c-0.5-0.3-7.3-4.1-11.8-10.3c-1.3-1.7-2.3-3.3-3.2-4.7
										c-2.8-4.3-5-7.6-10.6-9.9c-1.7-0.7-3.4-1-5-1C55.6,251.7,50.9,254.1,47.9,256.9z"/>
								</g>
							</g>
						</g>
						<g>
							<g>
								<g>
									<polygon class="st1" points="79.9,301.4 85.7,295.9 156.4,330.1 150.7,335.7 									"/>
								</g>
							</g>
						</g>
						<g>
							<g>
								<g>
									<path class="st1" d="M194,351.4l-5.7,5.6c-2,1.9-5.6,3.8-9.2,3.7c-1.1,0-2.2-0.2-3.3-0.6c-4.1-1.7-5.6-3.9-8.3-8
										c-0.9-1.4-2-3.1-3.3-4.9c-5.4-7.4-13.2-11.2-13.5-11.4l5.7-5.6c0.3,0.2,8.1,4,13.5,11.4c1.3,1.8,2.4,3.5,3.3,4.9
										c2.7,4.1,4.1,6.3,8.3,8c1.1,0.4,2.2,0.6,3.3,0.6C188.4,355.2,192,353.3,194,351.4z"/>
								</g>
							</g>
						</g>
						<g>
							<g>
								<g>
									<polygon class="st2" points="89,282.1 94.7,276.5 165.5,310.8 159.8,316.4 									"/>
								</g>
							</g>
						</g>
						<g>
							<g>
								<g>
									<path class="st2" d="M195.1,350c-0.3,0.5-0.7,1-1.2,1.4l-5.7,5.6c0.5-0.5,0.9-1,1.2-1.4c2.3-4,2.7-7,1.5-10.4l5.7-5.6
										C197.8,343,197.4,346,195.1,350z"/>
								</g>
							</g>
						</g>
						<g>
							<g>
								<g>
									<polygon class="st2" points="190.1,342.8 195.8,337.3 196.6,339.5 190.9,345.1 									"/>
								</g>
							</g>
						</g>
						<g>
							<g>
								<g>
									<polygon class="st1" points="91.2,277.8 96.9,272.2 167.5,306.4 161.8,312 									"/>
								</g>
							</g>
						</g>
						<g>
							<g>
								<g>
									<polygon class="st1" points="190.1,342.8 195.8,337.3 198.1,336.5 192.4,342 									"/>
								</g>
							</g>
						</g>
						<g>
							<g>
								<g>
									<path class="st1" d="M197.3,354.9l-5.7,5.6c0.8-0.8,1.5-1.7,2-2.5c1.8-3.1,3.5-7.1,2.5-12.2l5.7-5.6
										c1.1,5.1-0.7,9.2-2.5,12.2C198.8,353.3,198.2,354.1,197.3,354.9z"/>
								</g>
							</g>
						</g>
						<g>
							<g>
								<g>
									<path class="st2" d="M176.5,313.8c-1.9,1.9-3.8,3.7-5.7,5.6c-6.1-0.8-10.7-2.8-11-3l5.7-5.6
										C165.8,311,170.4,313,176.5,313.8z"/>
								</g>
							</g>
						</g>
						<g>
							<g>
								<g>
									<path class="st1" d="M202,334.1l-5.7,5.6c-1.1,1-2.4,1.8-3.9,2.3l5.7-5.6C199.6,335.9,200.9,335.2,202,334.1z"/>
								</g>
							</g>
						</g>
						<g>
							<g>
								<g>
									<path class="st2" d="M205.3,328.8c-0.9,2.4-2,4.1-3.3,5.4l-5.7,5.6c1.3-1.3,2.4-3,3.3-5.4c0.9-2.3,0.5-7.4-2-10.9
										c1.9-1.9,3.8-3.7,5.7-5.6C205.8,321.4,206.2,326.4,205.3,328.8z"/>
								</g>
							</g>
						</g>
						<g>
							<g>
								<g>
									<path class="st2" d="M203.3,317.8c-1.9,1.9-3.8,3.7-5.7,5.6c-0.8-1.1-1.7-2-2.9-2.7c-2.3-1.3-4.2-1.8-6.4-1.8
										c-1.5,0-3,0.1-5,0.3c-1.7,0.2-3.6,0.3-5.9,0.4c-0.7,0-1.3,0-1.9,0c-1.6,0-3.1-0.2-4.6-0.4c0.6-0.6,1.1-1.1,1.7-1.7
										c0.1-0.1,0.3-0.3,0.4-0.4c0.1-0.1,0.3-0.3,0.4-0.4c0.1-0.1,0.3-0.2,0.4-0.4c0.1-0.1,0.2-0.2,0.3-0.3
										c0.1-0.1,0.2-0.2,0.3-0.3c0.1-0.1,0.2-0.2,0.3-0.3c0.1-0.1,0.2-0.2,0.3-0.3c0.1-0.1,0.2-0.2,0.4-0.3
										c0.1-0.1,0.1-0.1,0.2-0.2c0.1-0.1,0.2-0.2,0.3-0.3c0.1,0,0.1-0.1,0.2-0.2c0.1-0.1,0.2-0.2,0.3-0.3c0,0,0.1-0.2,0.2-0.2
										c1.5,0.2,3,0.3,4.6,0.4c0.6,0,1.3,0,1.9,0c2.3-0.1,4.2-0.3,5.9-0.4c1.9-0.2,3.5-0.3,5-0.3c2.2,0,4.1,0.5,6.4,1.8
										C201.5,315.8,202.5,316.8,203.3,317.8z"/>
								</g>
							</g>
						</g>
						<g>
							<g>
								<g>
									<path class="st2" d="M60.5,256.7c1.1,0,2.2,0.2,3.3,0.7c4.2,1.7,5.6,4,8.3,8.1c0.9,1.4,2,3.1,3.4,4.9
										c5.4,7.4,13.2,11.6,13.5,11.7l70.8,34.3c0.4,0.2,7.4,3.2,15.6,3.3c0.6,0,1.3,0,1.9,0c2.3-0.1,4.2-0.3,5.9-0.4
										c1.9-0.2,3.5-0.3,5-0.3c2.2,0,4.1,0.5,6.4,1.8c5.1,2.9,6.1,10.5,4.9,13.6c-1.7,4.3-3.7,6.5-7.2,7.7l-2.3,0.8l0.8,2.3
										c1.2,3.4,0.8,6.4-1.5,10.4c-1.3,2.3-5.8,5.3-10.4,5.2c-1.1,0-2.2-0.2-3.3-0.6c-4.1-1.7-5.6-3.9-8.3-8
										c-0.9-1.4-2-3.1-3.3-4.9c-5.4-7.4-13.2-11.2-13.5-11.4l-70.7-34.3c-0.3-0.2-7.5-3.5-15.9-3.7c-0.6,0-1.1,0-1.7,0
										c-2.3,0.1-4.2,0.3-5.9,0.4c-1.9,0.2-3.5,0.3-4.9,0.3c-2.2,0-4.1-0.5-6.5-1.8c-5.1-2.9-6.2-10.5-5-13.6
										c1.7-4.3,3.7-6.5,7.2-7.7l2.3-0.8l-0.8-2.3c-1.2-3.4-0.8-6.5,1.5-10.5C51.4,259.6,56,256.6,60.5,256.7z"/>
								</g>
							</g>
						</g>
						<g>
							<g>
								<g>
									<path class="st1" d="M161.8,312l5.7-5.6c0.5,0.2,6.7,2.7,13.6,2.9c0.5,0,1.1,0,1.6,0c2.1-0.1,4-0.3,5.6-0.4
										c1.9-0.2,3.7-0.4,5.5-0.3c2.8,0,5.5,0.6,8.8,2.4l-5.7,5.6c-3.2-1.8-6-2.4-8.8-2.4c-1.8,0-3.5,0.1-5.5,0.3
										c-1.6,0.2-3.5,0.3-5.6,0.4c-0.6,0-1.1,0-1.6,0C168.5,314.7,162.3,312.2,161.8,312z"/>
								</g>
							</g>
						</g>
						<g>
							<g>
								<g>
									<path class="st1" d="M205.4,337.6l-5.7,5.6c2.2-2.2,3.5-4.8,4.4-7c2-5.2,0.3-15.4-7.1-19.6l5.7-5.6
										c7.4,4.2,9.1,14.4,7.1,19.6C208.9,332.8,207.7,335.4,205.4,337.6z"/>
								</g>
							</g>
						</g>
						<g>
							<g>
								<g>
									<path class="st1" d="M197,316.5c7.4,4.2,9.1,14.4,7.1,19.6c-1.3,3.3-3.3,7.3-8,9.6c1.1,5.1-0.7,9.2-2.5,12.2
										c-2.2,3.8-8.3,7.7-14.6,7.6c-1.7,0-3.4-0.3-5-1c-5.6-2.3-7.8-5.6-10.5-9.9c-0.9-1.4-1.9-3-3.2-4.7
										c-4.7-6.4-11.6-9.9-11.7-9.9l-70.7-34.3c-0.1,0-6.5-3.1-13.9-3.2c-0.5,0-1,0-1.4,0c-2.1,0.1-4,0.3-5.7,0.4
										c-1.9,0.2-3.7,0.3-5.4,0.3c-2.8,0-5.6-0.6-8.8-2.4c-7.4-4.2-9.2-14.4-7.2-19.6c1.3-3.3,3.3-7.2,8-9.6
										c-1.1-5.1,0.7-9.2,2.5-12.3c2.2-3.8,8.3-7.7,14.7-7.6c1.7,0,3.4,0.3,5,1c5.6,2.3,7.8,5.7,10.6,9.9c0.9,1.4,1.9,3,3.2,4.7
										c4.5,6.2,11.3,10,11.8,10.3l70.6,34.2c0.5,0.2,6.7,2.7,13.6,2.9c0.5,0,1.1,0,1.6,0c2.1-0.1,4-0.3,5.6-0.4
										c1.9-0.2,3.7-0.4,5.5-0.3C191,314.1,193.8,314.7,197,316.5z M199.5,334.3c1.2-3,0.2-10.7-4.9-13.6
										c-2.3-1.3-4.2-1.8-6.4-1.8c-1.5,0-3,0.1-5,0.3c-1.7,0.2-3.6,0.3-5.9,0.4c-0.7,0-1.3,0-1.9,0c-8.2-0.1-15.2-3.1-15.5-3.3
										L89,282.1c-0.4-0.2-8.1-4.4-13.5-11.8c-1.3-1.8-2.4-3.5-3.4-4.9c-2.7-4.1-4.1-6.4-8.3-8.1c-1.1-0.4-2.2-0.6-3.3-0.7
										c-4.6-0.1-9.1,2.9-10.4,5.2c-2.3,4-2.7,7-1.5,10.5l0.8,2.3l-2.3,0.8c-3.4,1.2-5.5,3.4-7.2,7.7c-1.2,3-0.1,10.7,5,13.6
										c2.4,1.3,4.3,1.8,6.5,1.8c1.4,0,3-0.1,4.9-0.3c1.7-0.2,3.7-0.3,5.9-0.4c0.6,0,1.1,0,1.7,0c8.4,0.1,15.6,3.5,15.9,3.7
										l70.7,34.3c0.3,0.2,8.1,4,13.5,11.4c1.3,1.8,2.4,3.5,3.3,4.9c2.7,4.1,4.1,6.3,8.3,8c1.1,0.4,2.2,0.6,3.3,0.6
										c4.6,0.1,9.1-2.9,10.4-5.2c2.3-4,2.7-7,1.5-10.4l-0.8-2.3l2.3-0.8C195.8,340.8,197.9,338.6,199.5,334.3"/>
								</g>
							</g>
						</g>
					</g>
				</g>
			</g>
		</g>
		<g class="st3">
			<g class="st4">
				<g>
					<path class="st1" d="M129.1,348l11.1-11.5c-1,1-2.2,3-1.2,4.6c0.6,1,1.7,1.6,2.9,1.6c0.6,0,1.1-0.2,1.6-0.5l-11.1,11.5
						c-0.5,0.3-1.1,0.5-1.6,0.5c-1.2,0-2.3-0.6-2.9-1.6C126.9,351,128.2,349,129.1,348z"/>
				</g>
				<g>
					<path class="st2" d="M140.2,336.5c0,0,0.1-0.1,0.1-0.1l-11.1,11.5c0,0-0.1,0.1-0.1,0.1C132.5,344.6,136.9,340,140.2,336.5z"/>
				</g>
				<g>
					<path class="st1" d="M126.8,345.8l11.1-11.5c0.1-0.1,0.2-0.2,0.2-0.2L127,345.6C126.9,345.6,126.9,345.7,126.8,345.8z"/>
				</g>
				<g>
					<path class="st1" d="M82,298.8L93,287.3c-0.6,0.6-0.9,1.5-0.9,2.4c0,1.2,0.7,2.3,1.7,2.8L82.8,304c-1-0.6-1.7-1.6-1.7-2.8
						C81,300.3,81.4,299.5,82,298.8z"/>
				</g>
				<g>
					<path class="st2" d="M82,298.8L93,287.3c0.2-0.2,0.4-0.4,0.6-0.5l-11.1,11.5C82.4,298.5,82.2,298.6,82,298.8z"/>
				</g>
				<g>
					<path class="st1" d="M79.6,296.6l11.1-11.5c0.4-0.4,0.8-0.7,1.3-1l-11.1,11.5C80.4,295.9,80,296.2,79.6,296.6z"/>
				</g>
				<g>
					<polygon class="st1" points="82.8,304 93.8,292.5 138.1,317.1 127.1,328.6 					"/>
				</g>
				<g>
					<path class="st1" d="M142.1,316.5L131,328c-0.6,0.6-1.4,1-2.3,1c-0.6,0-1.1-0.1-1.6-0.4l11.1-11.5c0.5,0.3,1.1,0.4,1.6,0.4
						C140.6,317.5,141.5,317.1,142.1,316.5z"/>
				</g>
				<g>
					<polygon class="st2" points="110.5,306 121.6,294.5 121.7,294.6 110.6,306.1 					"/>
				</g>
				<g>
					<path class="st2" d="M121.4,294.3c0.1,0.1,0.1,0.1,0.2,0.2L110.5,306c-0.1-0.1-0.1-0.1-0.2-0.2
						C114,302,117.7,298.1,121.4,294.3z"/>
				</g>
				<g>
					<path class="st2" d="M121.4,294.3c-3.7,3.8-7.4,7.7-11.1,11.5c-0.5-0.5-1.2-1.2-1.7-2c3.7-3.8,7.4-7.7,11.1-11.5
						C120.2,293.1,120.8,293.7,121.4,294.3z"/>
				</g>
				<g>
					<polygon class="st2" points="110.6,306.1 121.7,294.6 141,311.2 129.9,322.7 					"/>
				</g>
				<g>
					<path class="st2" d="M142.1,316.5L131,328c0.2-0.2,0.4-0.4,0.5-0.7c0.9-1.7-0.6-3.7-1.6-4.7l11.1-11.5c1,0.9,2.5,3,1.6,4.7
						C142.4,316.1,142.3,316.3,142.1,316.5z"/>
				</g>
				<g>
					<polygon class="st1" points="112.8,303.7 123.8,292.2 143.1,308.7 132,320.3 					"/>
				</g>
				<g>
					<path class="st1" d="M144.4,318.8l-11.1,11.5c0.4-0.4,0.7-0.9,1-1.4c1.8-3.3-0.1-6.7-2.3-8.7l11.1-11.5
						c2.2,1.9,4.1,5.4,2.3,8.7C145.1,317.9,144.8,318.4,144.4,318.8z"/>
				</g>
				<g>
					<path class="st2" d="M118.6,289.2c0,1.2,0.5,2.2,1.1,3.1c-3.7,3.8-7.4,7.7-11.1,11.5c-0.6-0.9-1-1.9-1.1-3.1
						c-0.1-2.4,1.4-3.9,2.8-5.5c3.7-3.8,7.4-7.7,11.1-11.5C120,285.3,118.6,286.8,118.6,289.2z"/>
				</g>
				<g>
					<path class="st1" d="M112.7,297.6l11.1-11.5c-1.2,1.3-1.9,2.1-1.9,3.1c0,1.1,1.1,2.1,2,3l-11.1,11.5c-0.9-0.9-1.9-1.9-2-3
						C110.8,299.6,111.4,298.9,112.7,297.6z"/>
				</g>
				<g>
					<polygon class="st1" points="110.3,295.3 121.4,283.8 139.8,266.6 128.8,278.1 					"/>
				</g>
				<g>
					<path class="st2" d="M121.5,283.7C121.5,283.7,121.5,283.7,121.5,283.7c-3.7,3.9-7.4,7.7-11.1,11.5c0,0,0,0,0,0
						C113.7,291.8,118.1,287.2,121.5,283.7z"/>
				</g>
				<g>
					<polygon class="st2" points="129.3,347.9 140.4,336.4 158.8,319.2 147.7,330.7 					"/>
				</g>
				<g>
					<polygon class="st1" points="127,345.6 138.1,334 156.6,316.9 145.5,328.4 					"/>
				</g>
				<g>
					<polygon class="st1" points="147.9,330.5 159,319 158.8,319.2 147.7,330.7 					"/>
				</g>
				<g>
					<path class="st1" d="M147.5,319.9l11.1-11.5c1.5,1.4,3,2.9,3.1,5.3c0.1,2.4-1.5,4.1-2.7,5.3l-11.1,11.5c1.2-1.3,2.7-3,2.7-5.3
						C150.5,322.8,149,321.3,147.5,319.9z"/>
				</g>
				<g>
					<polygon class="st1" points="128.2,303.3 139.2,291.8 158.6,308.4 147.5,319.9 					"/>
				</g>
				<g>
					<path class="st1" d="M127.1,297.9l11.1-11.5c-0.2,0.2-0.4,0.4-0.5,0.7c-0.9,1.6,0.3,3.5,1.6,4.7l-11.1,11.5
						c-1.3-1.2-2.5-3.1-1.6-4.7C126.7,298.4,126.9,298.1,127.1,297.9z"/>
				</g>
				<g>
					<path class="st2" d="M139.6,285.5c0.3-0.1,0.6-0.1,0.8-0.1l-11.1,11.5c-0.3,0-0.6,0-0.8,0.1c-0.6,0.2-1.1,0.5-1.4,0.9
						l11.1-11.5C138.5,286,139,285.7,139.6,285.5z"/>
				</g>
				<g>
					<path class="st2" d="M129.4,296.9l11.1-11.5c0.6,0,1.1,0.1,1.6,0.4L131,297.3C130.5,297.1,129.9,296.9,129.4,296.9z"/>
				</g>
				<g>
					<path class="st1" d="M124.7,295.7l11.1-11.5c0.8-0.8,1.8-1.4,2.9-1.7c0.6-0.2,1.1-0.2,1.7-0.3c1.1,0,2.3,0.3,3.3,0.8
						l-11.1,11.5c-1-0.6-2.1-0.8-3.3-0.8c-0.6,0-1.1,0.1-1.7,0.3C126.5,294.3,125.5,294.9,124.7,295.7z"/>
				</g>
				<g>
					<polygon class="st1" points="132.4,353.7 143.5,342.2 186.7,316.1 175.7,327.6 					"/>
				</g>
				<g>
					<path class="st1" d="M187.4,315.6l-11.1,11.5c-0.2,0.2-0.4,0.4-0.7,0.5l11.1-11.5C187,316,187.2,315.8,187.4,315.6z"/>
				</g>
				<g>
					<path class="st2" d="M141.2,261.8c0.9,1.5-0.1,3.4-1.3,4.6L128.9,278c1.2-1.2,2.2-3.1,1.3-4.6c0,0,0,0,0,0
						C133.8,269.5,137.5,265.7,141.2,261.8C141.2,261.8,141.2,261.8,141.2,261.8z"/>
				</g>
				<g>
					<path class="st1" d="M140,266.4L128.9,278c0,0-0.1,0.1-0.1,0.1l11.1-11.5C139.9,266.5,139.9,266.5,140,266.4z"/>
				</g>
				<g>
					<polygon class="st2" points="131,297.3 142.1,285.8 186.6,310.4 175.5,321.9 					"/>
				</g>
				<g>
					<path class="st2" d="M188.3,313.2c0,0.9-0.3,1.7-0.9,2.4l-11.1,11.5c0.6-0.6,0.9-1.5,0.9-2.4
						C180.9,320.9,184.6,317.1,188.3,313.2c-3.7,3.8-7.4,7.7-11.1,11.5c0-1.2-0.7-2.3-1.7-2.8l11.1-11.5
						C187.6,311,188.3,312.1,188.3,313.2z"/>
				</g>
				<g>
					<path class="st2" d="M129.4,296.9c0.6,0,1.1,0.1,1.6,0.4l44.5,24.6c1,0.6,1.7,1.6,1.7,2.8c0,1.2-0.6,2.3-1.6,2.9l-43.2,26.1
						c-0.5,0.3-1.1,0.5-1.6,0.5c-1.2,0-2.3-0.6-2.9-1.6c-1-1.7,0.4-3.8,1.4-4.7l18.5-17.2l0.2-0.2c1.2-1.3,2.7-3,2.7-5.3
						c-0.1-2.4-1.6-3.9-3.1-5.3l-19.4-16.6c-1.3-1.2-2.5-3.1-1.6-4.7c0.4-0.8,1.1-1.3,2-1.6C128.8,297,129.1,296.9,129.4,296.9z"/>
				</g>
				<g>
					<polygon class="st2" points="82.6,298.3 93.7,286.8 136.7,260.7 125.7,272.2 					"/>
				</g>
				<g>
					<polygon class="st1" points="80.9,295.6 92,284 135,257.9 124,269.4 					"/>
				</g>
				<g>
					<path class="st2" d="M125.7,272.2l11.1-11.5c0.5-0.3,1-0.5,1.6-0.5l-11.1,11.5C126.7,271.8,126.1,271.9,125.7,272.2z"/>
				</g>
				<g>
					<polygon class="st1" points="132.6,294.5 143.6,283 188.1,307.6 177.1,319.1 					"/>
				</g>
				<g>
					<path class="st2" d="M138.3,260.2c0.3,0,0.6,0,0.8,0.1c-3.7,3.8-7.4,7.7-11.1,11.5c-0.3-0.1-0.6-0.1-0.8-0.1
						C130.6,268.3,135,263.7,138.3,260.2z"/>
				</g>
				<g>
					<path class="st2" d="M139.2,260.3c-3.7,3.8-7.4,7.7-11.1,11.5c0,0,0,0,0,0c0,0,0,0,0,0c1.8-1.9,3.7-3.8,5.5-5.8
						c0.4-0.5,1-1.1,1.4-1.5c0.4-0.4,1-1,1.4-1.5c0.4-0.4,1-1,1.4-1.4C138.3,261.3,138.8,260.7,139.2,260.3
						C139.2,260.3,139.2,260.3,139.2,260.3C139.2,260.3,139.2,260.3,139.2,260.3z"/>
				</g>
				<g>
					<path class="st1" d="M189.7,317.8l-11.1,11.5c1.2-1.2,1.9-2.9,1.8-4.7c-0.1-2.3-1.4-4.5-3.4-5.6l11.1-11.5
						c2,1.1,3.3,3.3,3.4,5.6C191.6,314.9,190.9,316.6,189.7,317.8z"/>
				</g>
				<g>
					<path class="st1" d="M177.1,319.1c2,1.1,3.3,3.3,3.4,5.6c0.1,2.3-1.1,4.5-3.1,5.7l-43.2,26.1c-1,0.6-2.1,0.9-3.2,0.9
						c-2.3,0-4.5-1.2-5.7-3.2c-2-3.2-0.2-6.7,1.9-8.7l18.4-17.2c0.9-1,1.9-2.1,1.9-3.1c0-1-0.7-1.8-2-3L126,305.7
						c-2.2-2-4.1-5.4-2.3-8.6c0.8-1.5,2.2-2.6,3.9-3.1c0.6-0.2,1.1-0.2,1.7-0.3c1.1,0,2.3,0.3,3.3,0.8L177.1,319.1z M175.7,327.6
						c1-0.6,1.6-1.7,1.6-2.9c0-1.2-0.7-2.3-1.7-2.8L131,297.3c-0.5-0.3-1.1-0.4-1.6-0.4c-0.3,0-0.6,0-0.8,0.1
						c-0.8,0.2-1.5,0.8-2,1.6c-0.9,1.6,0.3,3.5,1.6,4.7l19.4,16.6c1.5,1.4,3,2.9,3.1,5.3c0.1,2.4-1.5,4.1-2.7,5.3l-0.2,0.2
						l-18.5,17.2c-1,1-2.4,3-1.4,4.7c0.6,1,1.7,1.6,2.9,1.6c0.6,0,1.1-0.2,1.6-0.5L175.7,327.6"/>
				</g>
				<g>
					<path class="st2" d="M139.2,260.3c0.8,0.2,1.6,0.7,2,1.5c-3.7,3.8-7.4,7.7-11.1,11.5c-0.5-0.8-1.2-1.3-2-1.5
						C131.8,268,135.5,264.2,139.2,260.3z"/>
				</g>
				<g>
					<path class="st2" d="M127.3,271.7c0.3,0,0.6,0,0.8,0.1c0.8,0.2,1.6,0.7,2,1.5c0.9,1.6-0.1,3.5-1.4,4.7l-18.4,17.2
						c-1.5,1.5-2.9,3.1-2.8,5.5c0.1,2.4,1.8,4.1,2.9,5.2l0.1,0.1l19.3,16.6c1,0.9,2.5,3,1.6,4.7c-0.6,1-1.6,1.7-2.8,1.7
						c-0.6,0-1.1-0.1-1.6-0.4L82.8,304c-1-0.6-1.7-1.6-1.7-2.8c0-1.2,0.6-2.3,1.6-2.9l43-26.1C126.1,271.9,126.7,271.8,127.3,271.7z
						"/>
				</g>
				<g>
					<path class="st1" d="M132,320.3c2.2,1.9,4.1,5.4,2.3,8.7c-1.1,2-3.2,3.3-5.5,3.4c-1.1,0-2.3-0.3-3.3-0.8l-44.3-24.6
						c-2-1.1-3.3-3.3-3.4-5.6c-0.1-2.3,1.1-4.5,3.1-5.7l43-26.1c1-0.6,2.1-0.9,3.2-0.9c0.6,0,1.1,0.1,1.7,0.2c1.7,0.4,3.1,1.5,4,3
						c1.9,3.2,0.2,6.7-1.9,8.7l-18.4,17.2c-1.2,1.3-1.9,2.1-1.9,3.1c0,1.1,1.1,2.1,2,3L132,320.3z M131.5,327.3
						c0.9-1.7-0.6-3.7-1.6-4.7l-19.3-16.6l-0.1-0.1c-1.1-1.1-2.9-2.9-2.9-5.2c-0.1-2.4,1.4-4,2.8-5.4l18.4-17.2
						c1.2-1.2,2.3-3.2,1.4-4.7c-0.5-0.8-1.2-1.3-2-1.5c-0.3-0.1-0.6-0.1-0.8-0.1c-0.6,0-1.1,0.2-1.6,0.5l-43,26.1
						c-1,0.6-1.6,1.7-1.6,2.9c0,1.2,0.7,2.3,1.7,2.8l44.3,24.6c0.5,0.3,1.1,0.4,1.6,0.4C129.9,329,130.9,328.4,131.5,327.3"/>
				</g>
				<g>
					<path class="st1" d="M142.3,268.7l-11.1,11.5c2-2.1,3.5-5.5,1.7-8.5c-0.9-1.5-2.3-2.6-4-3c-0.6-0.1-1.1-0.2-1.7-0.2
						c-1.1,0-2.2,0.3-3.2,0.9l11.1-11.5c1-0.6,2.1-0.9,3.2-0.9c0.6,0,1.1,0.1,1.7,0.2c1.7,0.4,3.1,1.5,4,3
						C145.8,263.3,144.3,266.6,142.3,268.7z"/>
				</g>
			</g>
		</g>
		<g class="st5">
			<g>
				<g class="st0">
					<g>
						<g>
							<g>
								<path class="st2" d="M85.7,151.6l-5.7,5.6c-4.9,4.8-10.5,7.3-16.3,7.2l5.7-5.6C75.2,158.9,80.8,156.4,85.7,151.6z"/>
							</g>
						</g>
					</g>
					<g>
						<g>
							<g>
								<path class="st2" d="M48.5,71.9l5.7-5.6c-1.8,1.8-3.6,3.9-5.2,6.3c-6.4,9.4-9.9,22.1-10.1,35.8c-0.1,13.7,3.2,26.5,9.4,36.1
									c5.8,9,13.3,14.1,21.2,14.2l-5.7,5.6c-7.9-0.1-15.4-5.2-21.2-14.2c-6.2-9.6-9.5-22.5-9.4-36.1c0.1-13.7,3.7-26.4,10.1-35.8
									C44.9,75.8,46.6,73.7,48.5,71.9z"/>
							</g>
						</g>
					</g>
					<g>
						<g>
							<g>
								<path class="st2" d="M45.1,68.5l5.7-5.6c5.7-5.5,12.5-8.7,19.7-8.5l-5.7,5.6C57.5,59.8,50.8,62.9,45.1,68.5z"/>
							</g>
						</g>
					</g>
					<g>
						<g>
							<g>
								<path class="st2" d="M89.1,155.1l-5.7,5.6c9.9-9.6,16.5-26.3,16.7-45.5c0.3-30.2-15.5-54.9-35.3-55.3l5.7-5.6
									c19.8,0.3,35.6,25.1,35.3,55.3C105.7,128.8,99,145.5,89.1,155.1z"/>
							</g>
						</g>
					</g>
					<g>
						<g>
							<g>
								<path class="st2" d="M64.8,59.9c19.8,0.3,35.6,25.1,35.3,55.3c-0.3,30.2-16.6,54.4-36.4,54c-19.8-0.3-35.6-25.1-35.3-55.3
									C28.7,83.8,45,59.6,64.8,59.9z M63.7,164.4c7.9,0.1,15.5-4.6,21.5-13.4c6.4-9.4,9.9-22.1,10.1-35.8
									c0.1-13.7-3.2-26.5-9.4-36.1c-5.8-9-13.3-14.1-21.2-14.2c-7.9-0.1-15.5,4.6-21.5,13.4c-6.4,9.4-9.9,22.1-10.1,35.8
									c-0.1,13.7,3.2,26.5,9.4,36.1C48.3,159.2,55.9,164.2,63.7,164.4"/>
							</g>
						</g>
					</g>
				</g>
				<g class="st0">
					<g>
						<g>
							<g>
								<path class="st2" d="M228.3,154.1l-5.7,5.6c-4.9,4.8-10.5,7.3-16.3,7.2l5.7-5.6C217.8,161.4,223.4,158.9,228.3,154.1z"/>
							</g>
						</g>
					</g>
					<g>
						<g>
							<g>
								<path class="st2" d="M191,74.4l5.7-5.6c-1.8,1.8-3.6,3.9-5.2,6.3c-6.4,9.4-9.9,22.1-10.1,35.8c-0.1,13.7,3.2,26.5,9.4,36.1
									c5.8,9,13.3,14.1,21.2,14.2l-5.7,5.6c-7.9-0.1-15.4-5.2-21.2-14.2c-6.2-9.6-9.5-22.5-9.4-36.1c0.1-13.7,3.7-26.4,10.1-35.8
									C187.5,78.3,189.2,76.2,191,74.4z"/>
							</g>
						</g>
					</g>
					<g>
						<g>
							<g>
								<path class="st2" d="M187.6,71l5.7-5.6c5.7-5.5,12.5-8.7,19.7-8.5l-5.7,5.6C200.1,62.3,193.3,65.4,187.6,71z"/>
							</g>
						</g>
					</g>
					<g>
						<g>
							<g>
								<path class="st2" d="M231.7,157.6l-5.7,5.6c9.9-9.6,16.5-26.3,16.7-45.5c0.3-30.2-15.5-54.9-35.3-55.3l5.7-5.6
									c19.8,0.3,35.6,25.1,35.3,55.3C248.2,131.3,241.6,148,231.7,157.6z"/>
							</g>
						</g>
					</g>
					<g>
						<g>
							<g>
								<path class="st2" d="M207.3,62.4c19.8,0.3,35.6,25.1,35.3,55.3c-0.3,30.2-16.6,54.4-36.4,54c-19.8-0.3-35.6-25.1-35.3-55.3
									C171.2,86.3,187.5,62.1,207.3,62.4z M206.3,166.8c7.9,0.1,15.5-4.6,21.5-13.4c6.4-9.4,9.9-22.1,10.1-35.8
									c0.1-13.7-3.2-26.5-9.4-36.1c-5.8-9-13.3-14.1-21.2-14.2c-7.9-0.1-15.5,4.6-21.5,13.4c-6.4,9.4-9.9,22.1-10.1,35.8
									c-0.1,13.7,3.2,26.5,9.4,36.1C190.9,161.7,198.4,166.7,206.3,166.8"/>
							</g>
						</g>
					</g>
				</g>
				<g class="st0">
					<g>
						<g>
							<g>
								<path class="st2" d="M119.7,171l5.7-5.6c0.7-0.4,1.5-0.8,2.1-1.1c4-2.2,8.9-5,14-4.9c0.9,0,1.7,0.1,2.5,0.3
									c5.9,1.3,10,6.7,13.2,11c0.4,0.5,0.9,1.1,1.3,1.7l-5.7,5.6c-0.5-0.6-0.9-1.2-1.3-1.7c-3.3-4.3-7.3-9.7-13.2-11
									c-0.8-0.2-1.6-0.3-2.5-0.3c-5.1-0.1-10,2.7-14,4.9C121.1,170.2,120.4,170.6,119.7,171z"/>
							</g>
						</g>
					</g>
					<g>
						<g>
							<g>
								<path class="st2" d="M130.3,147.1l5.7-5.6c-1.2,1.1-2.4,2.5-3.5,4.1c-4.4,6.2-7.2,14.3-7.1,19.7l-5.7,5.6
									c-0.1-5.4,2.7-13.5,7.1-19.7C127.9,149.7,129.1,148.3,130.3,147.1z"/>
							</g>
						</g>
					</g>
					<g>
						<g>
							<g>
								<path class="st2" d="M126.9,143.6l5.7-5.6c3-2.9,6.4-4.8,9.6-4.9c0.3,0,0.6,0,0.9,0l-5.7,5.6c-0.3,0-0.6,0-0.9,0
									C133.3,138.8,130,140.7,126.9,143.6z"/>
							</g>
						</g>
					</g>
					<g>
						<g>
							<g>
								<path class="st2" d="M160.5,178.5l-5.7,5.6c0.1-0.1,0.1-0.1,0.2-0.2c8-9,5.7-44.8-17.5-45.2l5.7-5.6
									c23.2,0.4,25.5,36.2,17.5,45.2C160.6,178.4,160.5,178.5,160.5,178.5z"/>
							</g>
						</g>
					</g>
					<g>
						<g>
							<g>
								<path class="st2" d="M137.4,138.7c23.2,0.4,25.5,36.2,17.5,45.2c-0.5,0.6-1,0.8-1.5,0.8c-3.8-0.1-8.8-13.1-16.1-14.7
									c-0.5-0.1-1-0.2-1.5-0.2c-6.6-0.1-14.5,7.1-18.3,7.1c-0.9,0-1.6-0.5-1.9-1.5c-3.7-11.7,9.1-36.4,21.1-36.7
									C136.9,138.7,137.1,138.7,137.4,138.7z M152.7,178c2-5.3,2.3-15.7-1.4-24.1c-3-6.8-7.7-10.3-14-10.4c-0.2,0-0.5,0-0.7,0
									c-2.8,0.1-6.6,3-9.9,7.7c-4.4,6.2-7.2,14.3-7.1,19.7c0.7-0.4,1.5-0.8,2.1-1.1c4-2.2,8.9-5,14-4.9c0.9,0,1.7,0.1,2.5,0.3
									c5.9,1.3,10,6.7,13.2,11C151.8,176.8,152.3,177.4,152.7,178"/>
							</g>
						</g>
					</g>
				</g>
			</g>
		</g>
		<g>
			<g>
				<g>
					<g>
						<path class="st1" d="M205.8,65.5c10.3,0.2,19.8,6,26.7,16.4c6.6,9.8,10.1,22.8,10,36.3s-3.9,26.4-10.7,36
							c-7.1,10.2-16.7,15.7-27,15.5c-10.3-0.2-19.8-6-26.7-16.4c-6.6-9.8-10.1-22.8-10-36.3s3.9-26.4,10.7-36
							C185.9,70.8,195.5,65.3,205.8,65.5z M204.8,164.9c17.9,0.3,32.5-20.6,32.8-46.7c0.3-26.1-14-47.5-31.9-47.8
							c-17.9-0.3-32.5,20.6-32.8,46.7C172.7,143.2,186.9,164.6,204.8,164.9"/>
					</g>
				</g>
			</g>
			<g>
				<g>
					<g>
						<path class="st1" d="M133.9,140.2c7.6,0.1,14.7,9.2,17.6,15.3c3,6.2,3.2,11.6,0.4,15.2c-1.2,1.6-3.1,2.5-5.1,2.4
							c-2.6,0-4.9-1.6-7.3-3.2c-1.8-1.2-4.3-2.9-5.9-3c-1.6,0-4.1,1.6-5.9,2.8c-2.4,1.5-4.7,3-7.3,3c-2,0-3.9-1-5.1-2.6
							c-2.7-3.7-2.5-9.1,0.7-15.2C119.1,148.9,126.4,140.1,133.9,140.2z M148.1,167.7c4.4-5.7-7-22.5-14.2-22.6
							c-7.2-0.1-18.9,16.3-14.6,22.1c0.3,0.4,0.7,0.6,1.2,0.6c2.8,0,8-5.8,13.2-5.7c5.2,0.1,10.4,6.1,13.1,6.2
							C147.3,168.3,147.7,168.1,148.1,167.7"/>
					</g>
				</g>
			</g>
			<g class="st0">
				<g>
					<g>
						<g>
							<path class="st1" d="M63.2,63c10.3,0.2,19.8,6,26.7,16.4c6.6,9.8,10.1,22.8,10,36.3s-3.9,26.4-10.7,36
								c-7.1,10.2-16.7,15.7-27,15.5c-10.3-0.2-19.8-6-26.7-16.4c-6.6-9.8-10.1-22.8-10-36.3s3.9-26.4,10.7-36
								C43.3,68.4,52.9,62.9,63.2,63z M62.2,162.4c17.9,0.3,32.5-20.6,32.8-46.7c0.3-26.1-14-47.5-31.9-47.8
								c-17.9-0.3-32.5,20.6-32.8,46.7C30.1,140.7,44.4,162.1,62.2,162.4"/>
						</g>
					</g>
				</g>
				<g>
					<g>
						<g>
							<path class="st1" d="M254.6,47.3c5.3,0.1,9.7,4.5,9.6,9.8l-1.2,126c-0.1,5.3-4.5,9.6-9.8,9.5c-1.3,0-26.7-0.5-35.6-0.6
								c-6.5-0.1-9.4,4-9.5,9.5c0,4.9-0.2,18.9-0.2,19.7c-0.1,5.3-4.5,9.6-9.8,9.5c-0.8,0-16-0.3-21.3-0.4c-4.9-0.1-7-4.6-9.6-10.2
								c-2.5-5.5-6.7-14.2-7-14.6c-0.2,0.4-4,9-6.6,14.4c-2.4,4.9-4,9.9-10.1,9.8c-4.7-0.1-16.2-0.3-21.7-0.4
								c-5.5-0.1-7.6-5.1-9.6-10.2c-2.2-5.5-6.1-14.2-6.3-14.6c-0.2,0.4-4.6,8.9-7.3,14.4c-2.4,4.9-3.7,9.9-9.8,9.8
								c-4.9-0.1-20.8-0.4-21.7-0.4c-5.3-0.1-9.7-4.5-9.6-9.8c0-0.7,0.1-14.7,0.2-19.7c0.1-5.2-3.8-9.7-9.6-9.8
								c-8.6-0.1-33-0.6-34.3-0.6c-5.3-0.1-9.7-4.5-9.6-9.8l1.2-126c0.1-5.3,4.5-9.6,9.8-9.5L254.6,47.3z M258.1,183l1.2-126
								c0-2.7-2.1-4.9-4.8-4.9L15.3,48c-2.7,0-4.9,2.1-4.9,4.7l-1.2,126c0,2.7,2.1,4.9,4.8,4.9l34.3,0.6c8.2,0.1,14.5,6.6,14.4,14.8
								l-0.2,19.7c0,2.7,2.1,4.9,4.8,4.9l21.7,0.4c1.8,0,2.3-0.4,4.4-4.9c0.3-0.7,0.6-1.4,1-2.2c2.6-5.4,7.1-14.1,7.3-14.5l4.6-8.9
								l4.1,9.2c0.2,0.4,4.2,9.3,6.4,14.8c0.8,2.1,1.8,4.4,2.8,5.8c0.8,1.1,1.5,1.3,2.3,1.3l21.7,0.4c2,0,2.7-0.7,4.9-5.5
								c0.3-0.5,0.5-1.1,0.8-1.7c2.6-5.3,6.5-14.1,6.5-14.2l4.2-9.5l4.6,9.4c0.2,0.4,4.5,9.2,7,14.7c1.2,2.6,2.2,4.8,3.3,6.1
								c0.9,1.1,1.4,1.2,1.9,1.2l21.3,0.4c2.7,0,4.9-2.1,4.9-4.7l0.2-19.7c0.1-8.8,5.7-14.4,14.4-14.3l35.6,0.6
								C255.9,187.8,258.1,185.7,258.1,183"/>
						</g>
					</g>
				</g>
			</g>
		</g>
	</g>
</g>
</svg>
