<?xml version="1.0" encoding="utf-8"?>
<!-- Generator: Adobe Illustrator 24.2.3, SVG Export Plug-In . SVG Version: 6.00 Build 0)  -->
<svg version="1.1" id="Layer_1_copy" xmlns="http://www.w3.org/2000/svg" xmlns:xlink="http://www.w3.org/1999/xlink" x="0px"
	 y="0px" viewBox="0 0 613 330" style="enable-background:new 0 0 613 330;" xml:space="preserve">
<style type="text/css">
	.st0{fill:#8F48FF;}
</style>
<g>
	<path class="st0" d="M127.6,270.5c-14.4-5.3-21.4-15.5-26.3-28.6c-4.9-13.1,0.2-40.4,19.3-50.8c19.1-10.4,31-4.7,57.5-3.1
		c26.5,1.6,50.8-9.5,50.8-9.5L449,76.8c0,0,23.5-11,39.6-32.3s19.5-34,39.9-41.8s44.5,5.9,51.3,18.1c6.8,12.2,10,24.2,4.7,38.6
		c14.4,5.3,21.5,15.5,26.4,28.7s-0.2,40.6-19.4,51s-31.1,4.7-57.7,3.2c-26.7-1.6-51,9.5-51,9.5l-220,101.6c0,0-23.4,11-39.4,32.2
		c-16,21.3-19.4,34-39.6,41.8s-44.4-6.1-51.2-18.3C125.6,296.9,122.3,284.9,127.6,270.5z"/>
</g>
<g>
	<path class="st0" d="M484.3,271.3c5.3,14.4,2,26.3-4.8,38.5s-31,26-51.2,18.1c-20.3-7.9-23.6-20.6-39.6-41.9
		c-16-21.3-39.3-32.3-39.3-32.3L129.6,151.6c0,0-24.3-11.2-51-9.7c-26.6,1.5-38.5,7.1-57.7-3.4S-3.3,100.7,1.6,87.6
		s12-23.3,26.4-28.5c-5.3-14.4-2.1-26.4,4.8-38.7s31.1-26,51.4-18.1S108,23,124,44.4s39.5,33.4,39.5,33.4L383.3,180
		c0,0,24.2,10.1,50.8,8.6c26.6-1.5,38.5-7.2,57.5,3.2c19.1,10.4,24.1,37.8,19.1,51S498.7,266.1,484.3,271.3z"/>
</g>
</svg>
