<?xml version="1.0" encoding="utf-8"?>
<!-- Generator: Adobe Illustrator 24.2.3, SVG Export Plug-In . SVG Version: 6.00 Build 0)  -->
<svg version="1.1" xmlns="http://www.w3.org/2000/svg" xmlns:xlink="http://www.w3.org/1999/xlink" x="0px" y="0px"
	 viewBox="0 0 800 969" style="enable-background:new 0 0 800 969;" xml:space="preserve">
<style type="text/css">
	.st0{fill:#8F48FF;}
</style>
<g id="Layer_2">
</g>
<g id="Layer_1_copy">
	<g>
		<g>
			<g>
				<g>
					<g>
						<path class="st0" d="M235.6,909.5c-14.4-5.3-21.4-15.5-26.3-28.6c-4.9-13.1,0.2-40.4,19.3-50.8c19.1-10.4,31-4.7,57.5-3.1
							c26.5,1.6,50.8-9.5,50.8-9.5l220-101.6c0,0,23.5-11,39.6-32.3c16.1-21.3,19.5-34,39.9-41.8s44.5,5.9,51.3,18.1
							c6.8,12.2,10,24.2,4.7,38.6c14.4,5.3,21.5,15.5,26.4,28.7s-0.2,40.6-19.4,51s-31.1,4.7-57.7,3.2c-26.7-1.6-51,9.5-51,9.5
							l-220,101.6c0,0-23.4,11-39.4,32.2s-19.4,34-39.6,41.8s-44.4-6.1-51.2-18.3C233.6,935.9,230.3,923.9,235.6,909.5z"/>
					</g>
					<g>
						<path class="st0" d="M592.3,910.3c5.3,14.4,2,26.3-4.8,38.5c-6.8,12.2-31,26-51.2,18.1c-20.3-7.9-23.6-20.6-39.6-41.9
							c-16-21.3-39.3-32.3-39.3-32.3L237.6,790.6c0,0-24.3-11.2-51-9.7s-38.5,7.1-57.7-3.4s-24.3-37.8-19.3-50.9s12-23.3,26.4-28.5
							c-5.3-14.4-2.1-26.4,4.8-38.7c6.9-12.2,31.1-26,51.4-18.1s23.7,20.7,39.7,42c16,21.3,39.5,33.4,39.5,33.4L491.3,819
							c0,0,24.2,10.1,50.8,8.6c26.6-1.5,38.5-7.2,57.5,3.2c19.1,10.4,24.1,37.8,19.1,51C613.8,894.9,606.7,905.1,592.3,910.3z"/>
					</g>
				</g>
			</g>
			<g>
				<g>
					<g>
						<path class="st0" d="M769.5-0.2h-740c-16.5,0-30,13.5-30,29.9v389.6c0,16.4,13.5,29.9,30,29.9c0,0,79.5,0,106,0
							c18,0,30,14,30,29.9c0,15.2,0,60.8,0,60.8c0,16.4,13.5,29.9,30,29.9c0,0,52,0,67,0c19,0,22.8-15.6,30-30.9
							c8-16.9,22-44.8,22-44.8s13,27.9,20,44.8c6.5,15.7,13,30.9,30,30.9c16.8,0,52.5,0,67,0c19,0,23.8-15.6,31-30.9
							c8-16.9,20-44.8,20-44.8s14,27.9,22,44.8c8.1,17.1,15,30.9,30,30.9c16.5,0,66,0,66,0c16.5,0,30-13.5,30-29.9
							c0,0,0-45.6,0-60.8c0-16.9,9-29.9,29-29.9c27.5,0,110,0,110,0c16.5,0,30-13.5,30-29.9V29.7C799.5,13.2,786-0.2,769.5-0.2z
							 M178,366.2c-55.2,0-100-65.5-100-146.2c0-80.8,44.8-146.2,100-146.2S278,139.3,278,220C278,300.8,233.2,366.2,178,366.2z
							 M443.6,377.9c-6.7,8.9-25.6-16.5-44.6-16.5s-37.9,25.4-44.6,16.5c-13.4-17.7,22.3-69.2,44.6-69.2S457,360.2,443.6,377.9z
							 M619,366.2c-55.2,0-100-65.5-100-146.2c0-80.8,44.8-146.2,100-146.2S719,139.3,719,220C719,300.8,674.2,366.2,619,366.2z"/>
					</g>
				</g>
			</g>
		</g>
	</g>
</g>
</svg>
