<?xml version="1.0" encoding="utf-8"?>
<!-- Generator: Adobe Illustrator 24.2.3, SVG Export Plug-In . SVG Version: 6.00 Build 0)  -->
<svg version="1.1" id="Layer_1" xmlns="http://www.w3.org/2000/svg" xmlns:xlink="http://www.w3.org/1999/xlink" x="0px" y="0px"
	 viewBox="0 0 200 200" style="enable-background:new 0 0 200 200;" xml:space="preserve">
<style type="text/css">
	.st0{fill-rule:evenodd;clip-rule:evenodd;fill:#FFFFFF;}
</style>
<g>
	<path vector-effect="none" class="st0" d="M150.4,127.8l-75.7,10.1c-5.1,0.7-10.3-0.8-14.2-4.2l-15.7-13.6L19,123.6
		c-2,0.3-2.9,2.8-1.3,4.2l47.5,41.2c2.4,2.1,5.6,3.1,8.9,2.6l107-14.3c2.1-0.3,2.9-3,1.3-4.2L150.4,127.8L150.4,127.8"/>
	<path vector-effect="none" class="st0" d="M150.4,87.1L74.7,97.2c-5.1,0.7-10.3-0.8-14.2-4.2L44.9,79.5L19,82.9
		c-2,0.3-2.9,2.8-1.3,4.2l47.5,41.2c2.4,2.1,5.6,3.1,8.9,2.6l107-14.2c2.1-0.3,2.9-3,1.3-4.2L150.4,87.1L150.4,87.1"/>
	<path vector-effect="none" class="st0" d="M19,42.2l103.1-13.7c3.1-0.4,6.1,0.4,8.5,2.3l51.7,40.9c1.6,1.3,0.8,4-1.3,4.3L74,90.2
		c-3.2,0.4-6.4-0.5-8.9-2.6L17.6,46.4C16.1,45.1,16.9,42.5,19,42.2L19,42.2"/>
</g>
</svg>
